CommissionerFlair-Medium.ufo
<glyph name="dollar" format="2">
  <advance width="566.7789473684211"/>
  <unicode hex="0024"/>
  <outline>
    <contour>
      <point x="286.30526315789473" y="-11.463157894736842" type="curve" smooth="yes"/>
      <point x="456.06315789473683" y="-11.463157894736842"/>
      <point x="530.6842105263158" y="72.07368421052631"/>
      <point x="530.6842105263158" y="189.31578947368422" type="curve" smooth="yes"/>
      <point x="530.6842105263158" y="292.09473684210525"/>
      <point x="478.86315789473684" y="340.9157894736842"/>
      <point x="316.09473684210525" y="391.8105263157895" type="curve" smooth="yes"/>
      <point x="202.21052631578948" y="428.1894736842105"/>
      <point x="153.0105263157895" y="447.10526315789474"/>
      <point x="153.0105263157895" y="504.93684210526317" type="curve" smooth="yes"/>
      <point x="153.0105263157895" y="573.7368421052631"/>
      <point x="219.58947368421053" y="601.6526315789473"/>
      <point x="291.93684210526317" y="602.8315789473684" type="curve"/>
      <point x="326.1157894736842" y="602.8315789473684"/>
      <point x="398.4" y="585.0105263157895"/>
      <point x="480.4526315789474" y="546.6526315789474" type="curve"/>
      <point x="490.7368421052632" y="650.8" type="line"/>
      <point x="439.9157894736842" y="667.6947368421053"/>
      <point x="348.9052631578947" y="697.6421052631579"/>
      <point x="277.2842105263158" y="697.6421052631579" type="curve" smooth="yes"/>
      <point x="125.22105263157894" y="697.6421052631579"/>
      <point x="49.16842105263158" y="616.1263157894737"/>
      <point x="49.16842105263158" y="504.5263157894737" type="curve" smooth="yes"/>
      <point x="49.16842105263158" y="392.1578947368421"/>
      <point x="122.29473684210527" y="347.46315789473687"/>
      <point x="249.7263157894737" y="308.38947368421054" type="curve" smooth="yes"/>
      <point x="359.82105263157894" y="274.5473684210526"/>
      <point x="427.2526315789474" y="252.45263157894738"/>
      <point x="427.2526315789474" y="188.26315789473685" type="curve" smooth="yes"/>
      <point x="427.2526315789474" y="111.62105263157895"/>
      <point x="366.1894736842105" y="82.88421052631578"/>
      <point x="282.2" y="81.70526315789473" type="curve"/>
      <point x="221.0736842105263" y="81.70526315789473"/>
      <point x="140.45263157894738" y="105.93684210526317"/>
      <point x="68.32631578947368" y="139.29473684210527" type="curve"/>
      <point x="58.810526315789474" y="32.915789473684214" type="line"/>
      <point x="109.81052631578947" y="17.43157894736842"/>
      <point x="189.04210526315788" y="-11.463157894736842"/>
    </contour>
    <contour>
      <point x="241.83157894736843" y="-137.0" type="curve"/>
      <point x="337.41052631578947" y="-137.0" type="line"/>
      <point x="331.7157894736842" y="-19.0"/>
      <point x="331.30526315789473" y="84.0"/>
      <point x="331.30526315789473" y="192.0" type="curve"/>
      <point x="331.30526315789473" y="474.0" type="line"/>
      <point x="331.30526315789473" y="582.0"/>
      <point x="331.7157894736842" y="685.0"/>
      <point x="337.41052631578947" y="803.0" type="curve"/>
      <point x="241.83157894736843" y="803.0" type="line"/>
      <point x="247.5263157894737" y="685.0"/>
      <point x="247.93684210526317" y="582.0"/>
      <point x="247.93684210526317" y="474.0" type="curve"/>
      <point x="247.93684210526317" y="192.0" type="line"/>
      <point x="247.93684210526317" y="84.0"/>
      <point x="247.5263157894737" y="-19.0"/>
    </contour>
  </outline>
</glyph>
<glyph name="percent" format="2">
  <advance width="903.7894736842105"/>
  <unicode hex="0025"/>
  <outline>
    <contour>
      <point x="183.68421052631578" y="0.0" type="curve"/>
      <point x="300.0421052631579" y="0.0" type="line"/>
      <point x="335.34736842105264" y="73.0"/>
      <point x="372.1684210526316" y="138.41052631578947"/>
      <point x="425.22105263157897" y="229.41052631578947" type="curve"/>
      <point x="569.1473684210526" y="477.0" type="line"/>
      <point x="623.378947368421" y="571.1789473684211"/>
      <point x="662.6631578947369" y="636.8210526315789"/>
      <point x="714.4105263157895" y="713.0" type="curve"/>
      <point x="598.8736842105262" y="713.0" type="line"/>
      <point x="562.5684210526315" y="636.8210526315789"/>
      <point x="524.5157894736842" y="571.1789473684211"/>
      <point x="470.2842105263158" y="477.0" type="curve"/>
      <point x="326.3578947368421" y="229.41052631578947" type="line"/>
      <point x="273.30526315789473" y="138.41052631578947"/>
      <point x="234.43157894736842" y="73.0"/>
    </contour>
    <contour>
      <point x="222.56842105263158" y="368.14736842105265" type="curve" smooth="yes"/>
      <point x="337.7052631578947" y="368.14736842105265"/>
      <point x="414.1684210526316" y="437.14736842105265"/>
      <point x="414.1684210526316" y="547.5368421052632" type="curve" smooth="yes"/>
      <point x="414.1684210526316" y="649.5894736842105"/>
      <point x="337.7052631578947" y="726.6421052631579"/>
      <point x="223.56842105263158" y="726.6421052631579" type="curve" smooth="yes"/>
      <point x="108.84210526315789" y="726.6421052631579"/>
      <point x="31.789473684210527" y="649.5894736842105"/>
      <point x="31.789473684210527" y="547.5368421052632" type="curve" smooth="yes"/>
      <point x="31.789473684210527" y="437.14736842105265"/>
      <point x="108.84210526315789" y="368.14736842105265"/>
    </contour>
    <contour>
      <point x="222.97894736842105" y="440.2" type="curve"/>
      <point x="158.20000000000002" y="443.4315789473684"/>
      <point x="115.33684210526316" y="480.7052631578947"/>
      <point x="115.33684210526316" y="546.3052631578947" type="curve" smooth="yes"/>
      <point x="115.33684210526316" y="608.4947368421052"/>
      <point x="157.37894736842105" y="650.5368421052632"/>
      <point x="223.56842105263158" y="654.1789473684211" type="curve"/>
      <point x="289.7578947368421" y="650.5368421052632"/>
      <point x="330.62105263157895" y="607.6736842105263"/>
      <point x="330.62105263157895" y="546.3052631578947" type="curve" smooth="yes"/>
      <point x="330.62105263157895" y="480.7052631578947"/>
      <point x="289.34736842105264" y="443.4315789473684"/>
    </contour>
    <contour>
      <point x="676.2947368421052" y="-11.873684210526315" type="curve" smooth="yes"/>
      <point x="791.4315789473684" y="-11.873684210526315"/>
      <point x="867.8947368421052" y="57.126315789473686"/>
      <point x="867.8947368421052" y="167.5157894736842" type="curve" smooth="yes"/>
      <point x="867.8947368421052" y="269.5684210526316"/>
      <point x="791.4315789473684" y="346.62105263157895"/>
      <point x="677.2947368421053" y="346.62105263157895" type="curve" smooth="yes"/>
      <point x="562.5684210526316" y="346.62105263157895"/>
      <point x="485.5157894736842" y="269.5684210526316"/>
      <point x="485.5157894736842" y="167.5157894736842" type="curve" smooth="yes"/>
      <point x="485.5157894736842" y="57.126315789473686"/>
      <point x="562.5684210526316" y="-11.873684210526315"/>
    </contour>
    <contour>
      <point x="676.2947368421052" y="60.17894736842105" type="curve"/>
      <point x="611.5157894736842" y="63.41052631578947"/>
      <point x="568.6526315789473" y="100.6842105263158"/>
      <point x="568.6526315789473" y="166.2842105263158" type="curve" smooth="yes"/>
      <point x="568.6526315789473" y="228.4736842105263"/>
      <point x="610.6947368421053" y="270.5157894736842"/>
      <point x="676.8842105263158" y="274.1578947368421" type="curve"/>
      <point x="743.0736842105263" y="270.5157894736842"/>
      <point x="783.936842105263" y="227.65263157894736"/>
      <point x="783.936842105263" y="166.2842105263158" type="curve" smooth="yes"/>
      <point x="783.936842105263" y="100.6842105263158"/>
      <point x="742.6631578947369" y="63.41052631578947"/>
    </contour>
  </outline>
</glyph>
<glyph name="ampersand" format="2">
  <advance width="749.448275862069"/>
  <unicode hex="0026"/>
  <outline>
    <contour>
      <point x="588.0" y="0.0" type="curve"/>
      <point x="743.7931034482759" y="0.0" type="line"/>
      <point x="673.3448275862069" y="64.55172413793103"/>
      <point x="610.3793103448276" y="129.20689655172413"/>
      <point x="548.2068965517242" y="193.86206896551724" type="curve"/>
      <point x="327.9310344827586" y="420.58620689655174" type="line" smooth="yes"/>
      <point x="274.17241379310343" y="475.0344827586207"/>
      <point x="252.0344827586207" y="512.8620689655172"/>
      <point x="252.0344827586207" y="556.9310344827586" type="curve" smooth="yes"/>
      <point x="252.0344827586207" y="608.3103448275862"/>
      <point x="284.3793103448276" y="641.7931034482759"/>
      <point x="336.2758620689655" y="644.6896551724138" type="curve"/>
      <point x="384.44827586206895" y="641.7931034482759"/>
      <point x="421.58620689655174" y="609.551724137931"/>
      <point x="421.58620689655174" y="562.448275862069" type="curve" smooth="yes"/>
      <point x="421.58620689655174" y="503.65517241379314"/>
      <point x="362.82758620689657" y="472.51724137931035"/>
      <point x="305.1379310344828" y="437.48275862068965" type="curve"/>
      <point x="360.8965517241379" y="370.55172413793105" type="line"/>
      <point x="424.55172413793105" y="411.6551724137931"/>
      <point x="522.5172413793103" y="476.0"/>
      <point x="522.5172413793103" y="565.1379310344828" type="curve" smooth="yes"/>
      <point x="522.5172413793103" y="668.0"/>
      <point x="437.6896551724138" y="726.7931034482758"/>
      <point x="330.8965517241379" y="726.7931034482758" type="curve" smooth="yes"/>
      <point x="226.27586206896552" y="726.7931034482758"/>
      <point x="142.13793103448276" y="664.5862068965517"/>
      <point x="142.13793103448276" y="556.0344827586207" type="curve" smooth="yes"/>
      <point x="142.13793103448276" y="485.41379310344826"/>
      <point x="179.6551724137931" y="430.51724137931035"/>
      <point x="238.68965517241378" y="369.0" type="curve" smooth="yes"/>
      <point x="464.3448275862069" y="136.0" type="line"/>
      <point x="508.6551724137931" y="91.0"/>
      <point x="553.9655172413793" y="44.0"/>
    </contour>
    <contour>
      <point x="265.2413793103448" y="-10.793103448275861" type="curve" smooth="yes"/>
      <point x="348.0689655172414" y="-10.793103448275861"/>
      <point x="418.6551724137931" y="29.137931034482758"/>
      <point x="490.06896551724134" y="99.89655172413792" type="curve"/>
      <point x="502.9655172413793" y="99.89655172413792" type="line"/>
      <point x="499.0689655172414" y="119.06896551724138" type="line"/>
      <point x="438.1034482758621" y="181.79310344827587" type="line"/>
      <point x="384.4137931034483" y="114.58620689655172"/>
      <point x="319.82758620689657" y="80.27586206896552"/>
      <point x="280.48275862068965" y="80.27586206896552" type="curve"/>
      <point x="200.0344827586207" y="83.17241379310346"/>
      <point x="150.17241379310346" y="128.82758620689654"/>
      <point x="150.17241379310346" y="198.0344827586207" type="curve" smooth="yes"/>
      <point x="150.17241379310346" y="267.55172413793105"/>
      <point x="198.3793103448276" y="316.6896551724138"/>
      <point x="270.17241379310343" y="349.0344827586207" type="curve"/>
      <point x="222.89655172413794" y="417.17241379310343" type="line"/>
      <point x="132.31034482758622" y="377.17241379310343"/>
      <point x="43.86206896551724" y="308.37931034482756"/>
      <point x="43.86206896551724" y="186.3793103448276" type="curve" smooth="yes"/>
      <point x="43.86206896551724" y="75.3103448275862"/>
      <point x="117.65517241379311" y="-10.793103448275861"/>
    </contour>
    <contour>
      <point x="561.1724137931035" y="173.10344827586206" type="line"/>
      <point x="608.448275862069" y="234.41379310344828"/>
      <point x="654.6206896551724" y="293.62068965517244"/>
      <point x="705.5862068965517" y="350.2413793103448" type="curve"/>
      <point x="606.3448275862069" y="413.9655172413793" type="line"/>
      <point x="574.8275862068966" y="349.9655172413793"/>
      <point x="538.7241379310345" y="292.86206896551727"/>
      <point x="499.51724137931035" y="232.34482758620692" type="curve"/>
    </contour>
  </outline>
</glyph>
<glyph name="quotesingle" format="2">
  <advance width="211.32631578947368"/>
  <unicode hex="0027"/>
  <outline>
    <contour>
      <point x="55.96842105263158" y="422.0736842105263" type="curve"/>
      <point x="136.97894736842105" y="423.0736842105263" type="line"/>
      <point x="139.85263157894735" y="531.2631578947369"/>
      <point x="146.0842105263158" y="638.6315789473684"/>
      <point x="158.18947368421055" y="744.4105263157895" type="curve"/>
      <point x="34.347368421052636" y="741.7684210526315" type="line"/>
      <point x="46.45263157894737" y="636.4"/>
      <point x="53.09473684210526" y="530.0315789473684"/>
    </contour>
  </outline>
</glyph>
<glyph name="parenleft" format="2">
  <advance width="395.61052631578946"/>
  <unicode hex="0028"/>
  <outline>
    <contour>
      <point x="274.0210526315789" y="-125.54736842105262" type="curve"/>
      <point x="364.67368421052635" y="-91.25263157894737" type="line"/>
      <point x="253.65263157894734" y="19.978947368421053"/>
      <point x="164.4" y="142.23157894736843"/>
      <point x="164.4" y="323.58947368421053" type="curve" smooth="yes"/>
      <point x="164.4" y="505.53684210526313"/>
      <point x="253.65263157894734" y="627.2"/>
      <point x="364.67368421052635" y="738.4315789473684" type="curve"/>
      <point x="274.0210526315789" y="772.7263157894737" type="line"/>
      <point x="167.23157894736843" y="670.0947368421052"/>
      <point x="53.578947368421055" y="525.3157894736842"/>
      <point x="53.578947368421055" y="323.58947368421053" type="curve" smooth="yes"/>
      <point x="53.578947368421055" y="122.45263157894738"/>
      <point x="167.23157894736843" y="-22.915789473684207"/>
    </contour>
  </outline>
</glyph>
<glyph name="asterisk" format="2">
  <advance width="480.57894736842104"/>
  <unicode hex="002A"/>
  <outline>
    <contour>
      <point x="415.33684210526314" y="364.0631578947369" type="curve"/>
      <point x="456.5052631578947" y="433.88421052631577" type="line"/>
      <point x="387.4" y="466.77894736842103"/>
      <point x="319.5263157894737" y="501.4947368421053"/>
      <point x="252.83157894736843" y="537.2105263157895" type="curve"/>
      <point x="188.83157894736843" y="580.6736842105263"/>
      <point x="126.83157894736843" y="624.5473684210526"/>
      <point x="65.2421052631579" y="670.2421052631579" type="curve"/>
      <point x="24.073684210526316" y="600.421052631579" type="line"/>
      <point x="93.17894736842105" y="567.5263157894736"/>
      <point x="161.46315789473684" y="532.8105263157894"/>
      <point x="228.74736842105264" y="496.09473684210525" type="curve"/>
      <point x="291.7473684210526" y="453.63157894736844"/>
      <point x="353.7473684210526" y="409.34736842105264"/>
    </contour>
    <contour>
      <point x="65.65263157894738" y="364.0631578947369" type="line"/>
      <point x="126.83157894736843" y="409.7578947368421"/>
      <point x="189.2421052631579" y="453.63157894736844"/>
      <point x="252.83157894736843" y="497.09473684210525" type="curve"/>
      <point x="319.5263157894737" y="532.8105263157894"/>
      <point x="387.81052631578945" y="567.5263157894736"/>
      <point x="456.5052631578947" y="600.8315789473685" type="curve"/>
      <point x="415.33684210526314" y="670.2421052631579" type="line"/>
      <point x="353.7473684210526" y="624.5473684210526"/>
      <point x="291.7473684210526" y="580.6736842105263"/>
      <point x="228.74736842105264" y="537.8" type="curve"/>
      <point x="161.05263157894737" y="501.4947368421053"/>
      <point x="93.17894736842105" y="466.77894736842103"/>
      <point x="24.073684210526316" y="433.88421052631577" type="curve"/>
    </contour>
    <contour>
      <point x="199.50526315789472" y="288.66315789473686" type="curve"/>
      <point x="281.0736842105263" y="288.66315789473686" type="line"/>
      <point x="273.5578947368421" y="364.89473684210526"/>
      <point x="268.2736842105263" y="441.12631578947367"/>
      <point x="263.57894736842104" y="517.9473684210526" type="curve"/>
      <point x="268.2736842105263" y="593.5894736842105"/>
      <point x="273.5578947368421" y="669.8210526315789"/>
      <point x="280.66315789473686" y="746.0526315789474" type="curve"/>
      <point x="199.50526315789472" y="746.0526315789474" type="line"/>
      <point x="207.02105263157895" y="669.8210526315789"/>
      <point x="212.30526315789473" y="593.5894736842105"/>
      <point x="217.0" y="517.9473684210526" type="curve"/>
      <point x="212.30526315789473" y="441.12631578947367"/>
      <point x="207.02105263157895" y="364.89473684210526"/>
    </contour>
  </outline>
</glyph>
<glyph name="plus" format="2">
  <advance width="592.3157894736842"/>
  <unicode hex="002B"/>
  <outline>
    <contour>
      <point x="242.62105263157895" y="56.37894736842105" type="curve"/>
      <point x="349.69473684210527" y="56.37894736842105" type="line"/>
      <point x="345.6421052631579" y="121.3578947368421"/>
      <point x="345.2315789473684" y="182.92631578947368"/>
      <point x="345.2315789473684" y="236.0842105263158" type="curve"/>
      <point x="345.2315789473684" y="365.41052631578947" type="line"/>
      <point x="345.2315789473684" y="418.5684210526316"/>
      <point x="345.6421052631579" y="480.13684210526316"/>
      <point x="349.69473684210527" y="545.1157894736842" type="curve"/>
      <point x="242.62105263157895" y="545.1157894736842" type="line"/>
      <point x="246.67368421052632" y="480.13684210526316"/>
      <point x="247.0842105263158" y="418.5684210526316"/>
      <point x="247.0842105263158" y="365.41052631578947" type="curve"/>
      <point x="247.0842105263158" y="236.0842105263158" type="line"/>
      <point x="247.0842105263158" y="182.92631578947368"/>
      <point x="246.67368421052632" y="121.3578947368421"/>
    </contour>
    <contour>
      <point x="57.68421052631579" y="248.4421052631579" type="line"/>
      <point x="122.66315789473684" y="252.49473684210528"/>
      <point x="184.23157894736843" y="252.90526315789475"/>
      <point x="237.38947368421051" y="252.90526315789475" type="curve"/>
      <point x="354.9263157894737" y="252.90526315789475" type="line"/>
      <point x="408.0842105263158" y="252.90526315789475"/>
      <point x="469.65263157894736" y="252.49473684210528"/>
      <point x="534.6315789473684" y="248.4421052631579" type="curve"/>
      <point x="534.6315789473684" y="353.0526315789474" type="line"/>
      <point x="469.65263157894736" y="349.0"/>
      <point x="408.0842105263158" y="348.58947368421053"/>
      <point x="354.9263157894737" y="348.58947368421053" type="curve"/>
      <point x="237.38947368421051" y="348.58947368421053" type="line"/>
      <point x="184.23157894736843" y="348.58947368421053"/>
      <point x="122.66315789473684" y="349.0"/>
      <point x="57.68421052631579" y="353.0526315789474" type="curve"/>
    </contour>
  </outline>
</glyph>
<glyph name="comma" format="2">
  <advance width="237.81052631578947"/>
  <unicode hex="002C"/>
  <outline>
    <contour>
      <point x="24.063157894736843" y="-157.0" type="curve"/>
      <point x="84.08421052631579" y="-155.58947368421053" type="line"/>
      <point x="123.6" y="-109.05263157894737"/>
      <point x="190.41052631578947" y="-11.842105263157894"/>
      <point x="190.41052631578947" y="61.652631578947364" type="curve" smooth="yes"/>
      <point x="190.41052631578947" y="104.1263157894737"/>
      <point x="171.78947368421052" y="136.31578947368422"/>
      <point x="128.03157894736842" y="141.0105263157895" type="curve"/>
      <point x="65.49473684210527" y="136.7263157894737" type="line"/>
      <point x="73.01052631578948" y="100.0"/>
      <point x="76.06315789473685" y="63.27368421052631"/>
      <point x="76.06315789473685" y="29.010526315789473" type="curve"/>
      <point x="76.06315789473685" y="-30.452631578947365"/>
      <point x="56.90526315789474" y="-98.41052631578948"/>
    </contour>
  </outline>
</glyph>
<glyph name="hyphen" format="2">
  <advance width="424.10526315789474"/>
  <unicode hex="002D"/>
  <outline>
    <contour>
      <point x="57.68421052631579" y="246.38947368421051" type="line"/>
      <point x="113.61052631578947" y="250.44210526315788"/>
      <point x="166.53684210526316" y="250.85263157894735"/>
      <point x="212.05263157894737" y="250.85263157894735" type="curve"/>
      <point x="257.5684210526316" y="250.85263157894735"/>
      <point x="310.4947368421053" y="250.44210526315788"/>
      <point x="366.42105263157896" y="246.38947368421051" type="curve"/>
      <point x="366.42105263157896" y="351.0" type="line"/>
      <point x="310.4947368421053" y="346.9473684210526"/>
      <point x="257.5684210526316" y="346.53684210526313"/>
      <point x="212.05263157894737" y="346.53684210526313" type="curve"/>
      <point x="166.53684210526316" y="346.53684210526313"/>
      <point x="113.61052631578947" y="346.9473684210526"/>
      <point x="57.68421052631579" y="351.0" type="curve"/>
    </contour>
  </outline>
</glyph>
<glyph name="slash" format="2">
  <advance width="457.29473684210524"/>
  <unicode hex="002F"/>
  <outline>
    <contour>
      <point x="20.757894736842104" y="0.0" type="curve"/>
      <point x="142.73684210526315" y="0.0" type="line"/>
      <point x="166.52631578947367" y="74.0"/>
      <point x="191.2421052631579" y="137.0"/>
      <point x="229.13684210526316" y="228.0" type="curve"/>
      <point x="330.4631578947368" y="474.0" type="line"/>
      <point x="370.3578947368421" y="571.0"/>
      <point x="397.89473684210526" y="636.0"/>
      <point x="436.53684210526313" y="713.0" type="curve"/>
      <point x="314.9684210526316" y="713.0" type="line"/>
      <point x="289.58947368421053" y="636.0"/>
      <point x="263.87368421052633" y="570.5894736842105"/>
      <point x="224.97894736842105" y="476.0" type="curve"/>
      <point x="122.65263157894736" y="228.0" type="line"/>
      <point x="84.7578947368421" y="137.0"/>
      <point x="57.22105263157894" y="74.0"/>
    </contour>
  </outline>
</glyph>
<glyph name="zero" format="2">
  <advance width="657.3684210526316"/>
  <unicode hex="0030"/>
  <outline>
    <contour>
      <point x="331.38947368421054" y="-11.463157894736842" type="curve" smooth="yes"/>
      <point x="512.7368421052631" y="-11.463157894736842"/>
      <point x="606.7368421052631" y="128.05263157894737"/>
      <point x="606.7368421052631" y="344.41052631578947" type="curve" smooth="yes"/>
      <point x="606.7368421052631" y="554.7684210526315"/>
      <point x="517.1473684210526" y="700.1052631578947"/>
      <point x="328.1578947368421" y="700.1052631578947" type="curve" smooth="yes"/>
      <point x="141.34736842105264" y="700.1052631578947"/>
      <point x="50.631578947368425" y="555.9473684210526"/>
      <point x="50.631578947368425" y="344.0" type="curve" smooth="yes"/>
      <point x="50.631578947368425" y="141.5157894736842"/>
      <point x="133.98947368421054" y="-11.463157894736842"/>
    </contour>
    <contour>
      <point x="329.38947368421054" y="84.16842105263157" type="curve"/>
      <point x="212.90526315789472" y="88.81052631578947"/>
      <point x="166.78947368421052" y="193.7157894736842"/>
      <point x="166.78947368421052" y="344.41052631578947" type="curve" smooth="yes"/>
      <point x="166.78947368421052" y="495.5684210526316"/>
      <point x="215.90526315789472" y="599.421052631579"/>
      <point x="329.38947368421054" y="604.0631578947368" type="curve"/>
      <point x="439.69473684210527" y="599.421052631579"/>
      <point x="490.9894736842105" y="501.64210526315793"/>
      <point x="490.9894736842105" y="344.41052631578947" type="curve" smooth="yes"/>
      <point x="490.9894736842105" y="195.4842105263158"/>
      <point x="445.0526315789474" y="88.81052631578947"/>
    </contour>
  </outline>
</glyph>
<glyph name="one" format="2">
  <advance width="441.66315789473686"/>
  <unicode hex="0031"/>
  <outline>
    <contour>
      <point x="56.97894736842105" y="462.2421052631579" type="line"/>
      <point x="130.21052631578948" y="508.29473684210524"/>
      <point x="205.0842105263158" y="548.421052631579"/>
      <point x="280.9578947368421" y="587.5473684210526" type="curve"/>
      <point x="284.65263157894736" y="690.1052631578947" type="line"/>
      <point x="198.8" y="646.1052631578947"/>
      <point x="113.1263157894737" y="602.6947368421053"/>
      <point x="25.452631578947365" y="565.8" type="curve"/>
    </contour>
    <contour>
      <point x="218.56842105263158" y="0.0" type="curve"/>
      <point x="348.4" y="0.0" type="line"/>
      <point x="341.70526315789476" y="72.53684210526316"/>
      <point x="339.2421052631579" y="135.4842105263158"/>
      <point x="339.2421052631579" y="217.7157894736842" type="curve"/>
      <point x="339.2421052631579" y="447.82105263157894" type="line"/>
      <point x="339.2421052631579" y="530.3578947368421"/>
      <point x="341.4736842105263" y="609.9473684210526"/>
      <point x="348.4" y="686.4631578947368" type="curve"/>
      <point x="284.65263157894736" y="690.1052631578947" type="line"/>
      <point x="222.44210526315788" y="638.8526315789474" type="line"/>
      <point x="225.7263157894737" y="568.1368421052632"/>
      <point x="227.13684210526316" y="497.8315789473684"/>
      <point x="227.13684210526316" y="427.70526315789476" type="curve"/>
      <point x="227.13684210526316" y="217.7157894736842" type="line"/>
      <point x="227.13684210526316" y="135.4842105263158"/>
      <point x="224.26315789473685" y="72.53684210526316"/>
    </contour>
  </outline>
</glyph>
<glyph name="two" format="2">
  <advance width="560.2421052631579"/>
  <unicode hex="0032"/>
  <outline>
    <contour>
      <point x="46.43157894736842" y="0.0" type="line"/>
      <point x="510.5052631578947" y="0.0" type="line"/>
      <point x="510.5052631578947" y="108.12631578947368" type="line"/>
      <point x="437.9473684210526" y="98.73684210526315"/>
      <point x="364.8" y="97.32631578947368"/>
      <point x="292.2421052631579" y="97.32631578947368" type="curve"/>
      <point x="158.89473684210526" y="97.32631578947368" type="line"/>
      <point x="174.2842105263158" y="74.9578947368421" type="line"/>
      <point x="280.5052631578947" y="162.8421052631579" type="line"/>
      <point x="425.6736842105263" y="282.8"/>
      <point x="499.2526315789474" y="389.0"/>
      <point x="499.2526315789474" y="499.7894736842105" type="curve" smooth="yes"/>
      <point x="499.2526315789474" y="623.8210526315789"/>
      <point x="419.2736842105263" y="700.1052631578947"/>
      <point x="275.4421052631579" y="700.1052631578947" type="curve" smooth="yes"/>
      <point x="204.5157894736842" y="700.1052631578947"/>
      <point x="100.12631578947368" y="665.2105263157895"/>
      <point x="43.02105263157895" y="644.8526315789474" type="curve"/>
      <point x="53.94736842105263" y="533.5473684210526" type="line"/>
      <point x="135.91578947368419" y="578.0842105263158"/>
      <point x="220.91578947368419" y="603.2421052631579"/>
      <point x="254.9157894736842" y="603.2421052631579" type="curve"/>
      <point x="340.82105263157894" y="601.421052631579"/>
      <point x="383.6842105263158" y="563.7894736842105"/>
      <point x="383.6842105263158" y="486.06315789473683" type="curve" smooth="yes"/>
      <point x="383.6842105263158" y="389.30526315789473"/>
      <point x="300.30526315789473" y="298.13684210526316"/>
      <point x="163.83157894736843" y="179.07368421052632" type="curve"/>
      <point x="124.7578947368421" y="145.41052631578947"/>
      <point x="85.50526315789473" y="114.62105263157895"/>
      <point x="46.43157894736842" y="85.83157894736843" type="curve"/>
    </contour>
  </outline>
</glyph>
<glyph name="three" format="2">
  <advance width="575.3448275862069"/>
  <unicode hex="0033"/>
  <outline>
    <contour>
      <point x="277.58620689655174" y="-11.689655172413794" type="curve" smooth="yes"/>
      <point x="448.3103448275862" y="-11.689655172413794"/>
      <point x="528.7931034482758" y="73.20689655172414"/>
      <point x="528.7931034482758" y="185.27586206896552" type="curve" smooth="yes"/>
      <point x="528.7931034482758" y="294.6896551724138"/>
      <point x="449.6551724137931" y="348.1034482758621"/>
      <point x="377.55172413793105" y="361.0" type="curve"/>
      <point x="377.55172413793105" y="370.58620689655174" type="line"/>
      <point x="448.7586206896552" y="386.7931034482759"/>
      <point x="507.2758620689655" y="442.7241379310345"/>
      <point x="507.2758620689655" y="528.7241379310345" type="curve" smooth="yes"/>
      <point x="507.2758620689655" y="634.1034482758621"/>
      <point x="420.37931034482756" y="700.4827586206897"/>
      <point x="282.58620689655174" y="700.4827586206897" type="curve" smooth="yes"/>
      <point x="213.10344827586206" y="700.4827586206897"/>
      <point x="110.93103448275862" y="662.8620689655173"/>
      <point x="55.3448275862069" y="641.551724137931" type="curve"/>
      <point x="66.72413793103448" y="534.6206896551724" type="line"/>
      <point x="147.75862068965517" y="579.3448275862069"/>
      <point x="232.6551724137931" y="603.0344827586207"/>
      <point x="265.6551724137931" y="603.0344827586207" type="curve"/>
      <point x="338.93103448275866" y="601.1379310344828"/>
      <point x="392.0" y="572.8965517241379"/>
      <point x="392.0" y="508.1034482758621" type="curve" smooth="yes"/>
      <point x="392.0" y="445.3103448275862"/>
      <point x="344.0344827586207" y="401.3103448275862"/>
      <point x="232.06896551724137" y="399.51724137931035" type="curve"/>
      <point x="209.79310344827587" y="399.51724137931035"/>
      <point x="187.51724137931035" y="400.41379310344826"/>
      <point x="166.13793103448276" y="404.1034482758621" type="curve"/>
      <point x="166.13793103448276" y="304.86206896551727" type="line"/>
      <point x="190.20689655172413" y="307.65517241379314"/>
      <point x="213.3793103448276" y="308.55172413793105"/>
      <point x="238.3448275862069" y="308.55172413793105" type="curve"/>
      <point x="349.3103448275862" y="306.7586206896552"/>
      <point x="413.51724137931035" y="268.2758620689655"/>
      <point x="413.51724137931035" y="193.3448275862069" type="curve" smooth="yes"/>
      <point x="413.51724137931035" y="130.24137931034483"/>
      <point x="370.6551724137931" y="86.75862068965517"/>
      <point x="266.7241379310345" y="84.86206896551724" type="curve"/>
      <point x="205.3103448275862" y="84.86206896551724"/>
      <point x="124.03448275862068" y="110.65517241379311"/>
      <point x="51.51724137931035" y="145.96551724137933" type="curve"/>
      <point x="41.03448275862069" y="38.24137931034483" type="line"/>
      <point x="94.03448275862068" y="20.724137931034484"/>
      <point x="175.82758620689657" y="-11.689655172413794"/>
    </contour>
  </outline>
</glyph>
<glyph name="five" format="2">
  <advance width="577.8620689655172"/>
  <unicode hex="0035"/>
  <outline>
    <contour>
      <point x="274.6896551724138" y="-11.689655172413794" type="curve" smooth="yes"/>
      <point x="445.3103448275862" y="-11.689655172413794"/>
      <point x="531.3103448275862" y="84.58620689655173"/>
      <point x="531.3103448275862" y="226.86206896551724" type="curve" smooth="yes"/>
      <point x="531.3103448275862" y="375.7586206896552"/>
      <point x="436.48275862068965" y="446.44827586206895"/>
      <point x="319.9655172413793" y="446.44827586206895" type="curve" smooth="yes"/>
      <point x="278.7931034482759" y="446.44827586206895"/>
      <point x="233.6551724137931" y="433.62068965517244"/>
      <point x="199.24137931034483" y="417.8965517241379" type="curve"/>
      <point x="189.6551724137931" y="417.8965517241379" type="line"/>
      <point x="189.6551724137931" y="458.6551724137931" type="line"/>
      <point x="190.55172413793105" y="513.7241379310345"/>
      <point x="193.3448275862069" y="569.7931034482758"/>
      <point x="197.82758620689654" y="625.8620689655172" type="curve"/>
      <point x="152.44827586206895" y="589.448275862069" type="line"/>
      <point x="252.86206896551724" y="589.448275862069" type="line"/>
      <point x="332.0689655172414" y="589.448275862069"/>
      <point x="413.2758620689655" y="588.551724137931"/>
      <point x="492.58620689655174" y="578.3793103448276" type="curve"/>
      <point x="492.58620689655174" y="686.6896551724138" type="line"/>
      <point x="74.17241379310344" y="686.6896551724138" type="line"/>
      <point x="81.55172413793103" y="607.5172413793103"/>
      <point x="82.55172413793103" y="520.3448275862069"/>
      <point x="82.55172413793103" y="427.2758620689655" type="curve"/>
      <point x="82.55172413793103" y="317.3103448275862" type="line"/>
      <point x="131.72413793103448" y="313.51724137931035" type="line"/>
      <point x="178.48275862068965" y="344.0689655172414"/>
      <point x="230.82758620689654" y="354.37931034482756"/>
      <point x="269.7586206896552" y="354.37931034482756" type="curve"/>
      <point x="353.1379310344828" y="352.48275862068965"/>
      <point x="416.0344827586207" y="317.1379310344828"/>
      <point x="416.0344827586207" y="222.3793103448276" type="curve" smooth="yes"/>
      <point x="416.0344827586207" y="135.3448275862069"/>
      <point x="366.7586206896552" y="86.75862068965517"/>
      <point x="264.82758620689657" y="84.86206896551724" type="curve"/>
      <point x="204.3103448275862" y="84.86206896551724"/>
      <point x="124.03448275862068" y="110.65517241379311"/>
      <point x="51.51724137931035" y="145.96551724137933" type="curve"/>
      <point x="41.03448275862069" y="38.24137931034483" type="line"/>
      <point x="94.03448275862068" y="20.724137931034484"/>
      <point x="174.82758620689657" y="-11.689655172413794"/>
    </contour>
  </outline>
</glyph>
<glyph name="six" format="2">
  <advance width="610.6551724137931"/>
  <unicode hex="0036"/>
  <outline>
    <contour>
      <point x="320.0689655172414" y="-11.689655172413794" type="curve" smooth="yes"/>
      <point x="485.1034482758621" y="-11.689655172413794"/>
      <point x="564.1034482758621" y="106.48275862068965"/>
      <point x="564.1034482758621" y="232.6551724137931" type="curve" smooth="yes"/>
      <point x="564.1034482758621" y="361.9310344827586"/>
      <point x="480.3103448275862" y="448.44827586206895"/>
      <point x="351.17241379310343" y="448.44827586206895" type="curve" smooth="yes"/>
      <point x="277.1034482758621" y="448.44827586206895"/>
      <point x="216.75862068965517" y="413.2068965517241"/>
      <point x="172.13793103448276" y="374.6896551724138" type="curve"/>
      <point x="156.55172413793105" y="375.6896551724138" type="line"/>
      <point x="133.9310344827586" y="334.7931034482759"/>
      <point x="133.0344827586207" y="318.58620689655174"/>
      <point x="157.44827586206895" y="281.44827586206895" type="curve"/>
      <point x="202.72413793103448" y="331.1379310344828"/>
      <point x="263.7241379310345" y="356.2758620689655"/>
      <point x="318.8965517241379" y="357.2758620689655" type="curve"/>
      <point x="410.65517241379314" y="354.48275862068965"/>
      <point x="452.41379310344826" y="299.48275862068965"/>
      <point x="452.41379310344826" y="226.3793103448276" type="curve" smooth="yes"/>
      <point x="452.41379310344826" y="152.3793103448276"/>
      <point x="409.65517241379314" y="87.75862068965517"/>
      <point x="315.58620689655174" y="84.86206896551724" type="curve"/>
      <point x="216.6206896551724" y="90.44827586206897"/>
      <point x="160.55172413793105" y="162.9655172413793"/>
      <point x="160.55172413793105" y="329.0689655172414" type="curve" smooth="yes"/>
      <point x="160.55172413793105" y="510.51724137931035"/>
      <point x="211.82758620689654" y="599.2413793103449"/>
      <point x="337.82758620689657" y="603.0344827586207" type="curve"/>
      <point x="366.7241379310345" y="603.0344827586207"/>
      <point x="440.31034482758616" y="583.3448275862069"/>
      <point x="511.82758620689657" y="548.7241379310345" type="curve"/>
      <point x="523.3103448275862" y="654.6551724137931" type="line"/>
      <point x="475.7241379310345" y="670.9655172413793"/>
      <point x="389.2413793103448" y="700.4827586206897"/>
      <point x="330.6551724137931" y="700.4827586206897" type="curve" smooth="yes"/>
      <point x="157.86206896551724" y="700.4827586206897"/>
      <point x="50.6551724137931" y="579.1034482758621"/>
      <point x="50.6551724137931" y="331.86206896551727" type="curve" smooth="yes"/>
      <point x="50.6551724137931" y="107.20689655172414"/>
      <point x="144.3448275862069" y="-11.689655172413794"/>
    </contour>
  </outline>
</glyph>
<glyph name="seven" format="2">
  <advance width="536.4526315789474"/>
  <unicode hex="0037"/>
  <outline>
    <contour>
      <point x="98.36842105263158" y="0.0" type="curve"/>
      <point x="237.7157894736842" y="0.0" type="line"/>
      <point x="264.4526315789474" y="79.84210526315789"/>
      <point x="297.06315789473683" y="159.0421052631579"/>
      <point x="332.36842105263156" y="237.70526315789473" type="curve"/>
      <point x="393.38947368421054" y="373.4421052631579" type="line"/>
      <point x="429.87368421052633" y="455.0526315789474"/>
      <point x="463.7684210526316" y="528.8421052631579"/>
      <point x="499.66315789473686" y="600.5263157894738" type="curve"/>
      <point x="499.66315789473686" y="686.4631578947368" type="line"/>
      <point x="25.0" y="686.4631578947368" type="line"/>
      <point x="25.0" y="577.1052631578948" type="line"/>
      <point x="106.2" y="586.6736842105264"/>
      <point x="186.98947368421054" y="589.1368421052632"/>
      <point x="267.1894736842105" y="589.1368421052632" type="curve"/>
      <point x="403.0526315789474" y="589.1368421052632" type="line"/>
      <point x="373.70526315789476" y="612.6842105263158" type="line"/>
      <point x="356.6842105263158" y="563.2"/>
      <point x="335.9684210526316" y="513.8947368421052"/>
      <point x="313.4315789473684" y="464.41052631578947" type="curve"/>
      <point x="221.2842105263158" y="262.2421052631579" type="line"/>
      <point x="182.38947368421051" y="176.22105263157894"/>
      <point x="141.08421052631581" y="87.2"/>
    </contour>
  </outline>
</glyph>
<glyph name="less" format="2">
  <advance width="572.3157894736842"/>
  <unicode hex="003C"/>
  <outline>
    <contour>
      <point x="514.6315789473684" y="60.136842105263156" type="curve"/>
      <point x="514.6315789473684" y="173.03157894736842" type="line"/>
      <point x="448.17894736842106" y="194.3578947368421"/>
      <point x="378.77894736842103" y="222.9157894736842"/>
      <point x="311.14736842105265" y="250.8842105263158" type="curve"/>
      <point x="203.54736842105262" y="295.10526315789474" type="line"/>
      <point x="203.54736842105262" y="305.2105263157895" type="line"/>
      <point x="311.14736842105265" y="349.4315789473684" type="line"/>
      <point x="378.77894736842103" y="377.4"/>
      <point x="448.17894736842106" y="405.9578947368421"/>
      <point x="514.6315789473684" y="427.2842105263158" type="curve"/>
      <point x="514.6315789473684" y="540.178947368421" type="line"/>
      <point x="450.2421052631579" y="509.4842105263158"/>
      <point x="388.0842105263158" y="483.4842105263158"/>
      <point x="334.33684210526314" y="461.4842105263158" type="curve"/>
      <point x="236.8" y="421.41052631578947" type="line"/>
      <point x="184.23157894736843" y="400.0"/>
      <point x="122.07368421052631" y="375.0"/>
      <point x="57.68421052631579" y="353.87368421052633" type="curve"/>
      <point x="57.68421052631579" y="246.44210526315788" type="line"/>
      <point x="122.07368421052631" y="225.31578947368422"/>
      <point x="184.23157894736843" y="200.31578947368422"/>
      <point x="236.8" y="178.90526315789475" type="curve"/>
      <point x="334.33684210526314" y="138.83157894736843" type="line"/>
      <point x="388.0842105263158" y="116.83157894736843"/>
      <point x="450.2421052631579" y="90.83157894736841"/>
    </contour>
  </outline>
</glyph>
<glyph name="equal" format="2">
  <advance width="572.3157894736842"/>
  <unicode hex="003D"/>
  <outline>
    <contour>
      <point x="61.78947368421053" y="133.17894736842106" type="line"/>
      <point x="126.76842105263158" y="137.23157894736843"/>
      <point x="188.33684210526314" y="137.6421052631579"/>
      <point x="241.49473684210525" y="137.6421052631579" type="curve"/>
      <point x="330.82105263157894" y="137.6421052631579" type="line"/>
      <point x="383.9789473684211" y="137.6421052631579"/>
      <point x="445.5473684210526" y="137.23157894736843"/>
      <point x="510.5263157894737" y="133.17894736842106" type="curve"/>
      <point x="510.5263157894737" y="237.78947368421052" type="line"/>
      <point x="445.5473684210526" y="233.73684210526315"/>
      <point x="383.9789473684211" y="233.32631578947368"/>
      <point x="330.82105263157894" y="233.32631578947368" type="curve"/>
      <point x="241.49473684210525" y="233.32631578947368" type="line"/>
      <point x="188.33684210526314" y="233.32631578947368"/>
      <point x="126.76842105263158" y="233.73684210526315"/>
      <point x="61.78947368421053" y="237.78947368421052" type="curve"/>
    </contour>
    <contour>
      <point x="61.78947368421053" y="363.7052631578947" type="line"/>
      <point x="126.76842105263158" y="367.7578947368421"/>
      <point x="188.33684210526314" y="368.1684210526316"/>
      <point x="241.49473684210525" y="368.1684210526316" type="curve"/>
      <point x="330.82105263157894" y="368.1684210526316" type="line"/>
      <point x="383.9789473684211" y="368.1684210526316"/>
      <point x="445.5473684210526" y="367.7578947368421"/>
      <point x="510.5263157894737" y="363.7052631578947" type="curve"/>
      <point x="510.5263157894737" y="468.3157894736842" type="line"/>
      <point x="445.5473684210526" y="464.2631578947368"/>
      <point x="383.9789473684211" y="463.85263157894735"/>
      <point x="330.82105263157894" y="463.85263157894735" type="curve"/>
      <point x="241.49473684210525" y="463.85263157894735" type="line"/>
      <point x="188.33684210526314" y="463.85263157894735"/>
      <point x="126.76842105263158" y="464.2631578947368"/>
      <point x="61.78947368421053" y="468.3157894736842" type="curve"/>
    </contour>
  </outline>
</glyph>
<glyph name="greater" format="2">
  <advance width="572.3157894736842"/>
  <unicode hex="003E"/>
  <outline>
    <contour>
      <point x="57.68421052631579" y="60.136842105263156" type="line"/>
      <point x="122.07368421052631" y="90.83157894736841"/>
      <point x="184.23157894736843" y="116.83157894736843"/>
      <point x="237.97894736842105" y="138.83157894736843" type="curve"/>
      <point x="335.5157894736842" y="178.90526315789475" type="line"/>
      <point x="388.0842105263158" y="200.31578947368422"/>
      <point x="450.2421052631579" y="225.31578947368422"/>
      <point x="514.6315789473684" y="246.44210526315788" type="curve"/>
      <point x="514.6315789473684" y="353.87368421052633" type="line"/>
      <point x="450.2421052631579" y="375.0"/>
      <point x="388.0842105263158" y="400.0"/>
      <point x="335.5157894736842" y="421.41052631578947" type="curve"/>
      <point x="237.97894736842105" y="461.4842105263158" type="line"/>
      <point x="184.23157894736843" y="483.4842105263158"/>
      <point x="122.07368421052631" y="509.4842105263158"/>
      <point x="57.68421052631579" y="540.178947368421" type="curve"/>
      <point x="57.68421052631579" y="427.2842105263158" type="line"/>
      <point x="124.13684210526316" y="405.9578947368421"/>
      <point x="193.53684210526316" y="377.4"/>
      <point x="261.1684210526316" y="349.4315789473684" type="curve"/>
      <point x="368.7684210526316" y="305.2105263157895" type="line"/>
      <point x="368.7684210526316" y="295.10526315789474" type="line"/>
      <point x="261.1684210526316" y="250.8842105263158" type="line"/>
      <point x="193.53684210526316" y="222.9157894736842"/>
      <point x="124.13684210526316" y="194.3578947368421"/>
      <point x="57.68421052631579" y="173.03157894736842" type="curve"/>
    </contour>
  </outline>
</glyph>
<glyph name="at" format="2">
  <advance width="886.0842105263158"/>
  <unicode hex="0040"/>
  <outline>
    <contour>
      <point x="474.10526315789474" y="-136.3684210526316" type="curve" smooth="yes"/>
      <point x="558.9263157894737" y="-136.3684210526316"/>
      <point x="674.2842105263159" y="-100.8842105263158"/>
      <point x="756.9263157894737" y="-66.1157894736842" type="curve"/>
      <point x="756.9263157894737" y="13.757894736842104" type="line"/>
      <point x="650.5894736842105" y="-38.526315789473685"/>
      <point x="538.5368421052632" y="-65.01052631578948"/>
      <point x="474.10526315789474" y="-68.83157894736843" type="curve"/>
      <point x="201.8842105263158" y="-65.01052631578948"/>
      <point x="79.63157894736842" y="117.82105263157895"/>
      <point x="126.27368421052631" y="335.05263157894734" type="curve" smooth="yes"/>
      <point x="165.34736842105264" y="517.9578947368421"/>
      <point x="291.0" y="612.0421052631579"/>
      <point x="469.10526315789474" y="615.8631578947368" type="curve"/>
      <point x="680.1473684210526" y="612.0421052631579"/>
      <point x="801.578947368421" y="466.4947368421053"/>
      <point x="761.4" y="264.0105263157895" type="curve" smooth="yes"/>
      <point x="747.4526315789474" y="193.86315789473684"/>
      <point x="687.2315789473685" y="135.69473684210527"/>
      <point x="645.4421052631579" y="134.05263157894737" type="curve"/>
      <point x="598.2947368421053" y="136.8736842105263"/>
      <point x="581.4526315789474" y="168.5157894736842"/>
      <point x="593.2210526315789" y="225.7157894736842" type="curve"/>
      <point x="611.1157894736842" y="311.6" type="line"/>
      <point x="624.5263157894738" y="368.90526315789475"/>
      <point x="639.7578947368421" y="425.85263157894735"/>
      <point x="660.4000000000001" y="482.9263157894737" type="curve"/>
      <point x="572.3368421052631" y="477.87368421052633" type="line"/>
      <point x="555.9263157894737" y="424.9263157894737" type="line"/>
      <point x="547.6421052631579" y="424.9263157894737" type="line"/>
      <point x="520.3368421052631" y="462.0315789473684"/>
      <point x="468.3157894736842" y="488.5157894736842"/>
      <point x="423.70526315789476" y="488.5157894736842" type="curve" smooth="yes"/>
      <point x="330.5263157894737" y="488.5157894736842"/>
      <point x="261.86315789473684" y="412.53684210526313"/>
      <point x="239.9157894736842" y="305.7473684210526" type="curve" smooth="yes"/>
      <point x="214.50526315789475" y="182.41052631578947"/>
      <point x="265.4315789473684" y="70.53684210526316"/>
      <point x="380.6842105263158" y="70.53684210526316" type="curve" smooth="yes"/>
      <point x="418.5263157894737" y="70.53684210526316"/>
      <point x="466.1157894736842" y="93.3578947368421"/>
      <point x="506.77894736842103" y="137.30526315789473" type="curve"/>
      <point x="514.6526315789474" y="137.30526315789473" type="line"/>
      <point x="528.4526315789474" y="97.8421052631579"/>
      <point x="570.0526315789474" y="61.357894736842105"/>
      <point x="647.1052631578947" y="61.357894736842105" type="curve" smooth="yes"/>
      <point x="698.2105263157895" y="61.357894736842105"/>
      <point x="807.9368421052632" y="128.78947368421052"/>
      <point x="831.6315789473684" y="249.8" type="curve" smooth="yes"/>
      <point x="877.9157894736843" y="487.88421052631577"/>
      <point x="722.0631578947368" y="683.4"/>
      <point x="470.5157894736842" y="683.4" type="curve" smooth="yes"/>
      <point x="277.2315789473684" y="683.4"/>
      <point x="103.73684210526315" y="579.9368421052632"/>
      <point x="55.863157894736844" y="349.3157894736842" type="curve" smooth="yes"/>
      <point x="3.1157894736842096" y="97.14736842105263"/>
      <point x="156.37894736842105" y="-136.3684210526316"/>
    </contour>
    <contour>
      <point x="405.62105263157895" y="150.21052631578948" type="curve"/>
      <point x="337.4631578947368" y="152.21052631578948"/>
      <point x="311.13684210526316" y="214.2736842105263"/>
      <point x="327.1578947368421" y="290.8421052631579" type="curve" smooth="yes"/>
      <point x="341.2315789473684" y="357.2631578947368"/>
      <point x="380.2736842105263" y="404.61052631578946"/>
      <point x="444.17894736842106" y="407.0210526315789" type="curve"/>
      <point x="479.57894736842104" y="406.7894736842105"/>
      <point x="510.7473684210526" y="388.2315789473684"/>
      <point x="533.6105263157895" y="363.9578947368421" type="curve"/>
      <point x="501.0526315789474" y="212.4736842105263" type="line"/>
      <point x="470.4736842105263" y="169.41052631578947"/>
      <point x="435.7157894736842" y="152.21052631578948"/>
    </contour>
  </outline>
</glyph>
<glyph name="A" format="2">
  <advance width="702.8947368421052"/>
  <unicode hex="0041"/>
  <anchor x="351.65263157894736" y="0.0" name="bottom"/>
  <anchor x="683.4421052631579" y="0.0" name="ogonek"/>
  <anchor x="351.65263157894736" y="713.0" name="top"/>
  <outline>
    <contour>
      <point x="16.63157894736842" y="0.0" type="curve"/>
      <point x="158.8" y="0.0" type="line"/>
      <point x="178.2526315789474" y="80.14736842105263"/>
      <point x="202.93684210526314" y="168.5263157894737"/>
      <point x="228.7263157894737" y="247.49473684210525" type="curve"/>
      <point x="346.9578947368421" y="608.4421052631579" type="line"/>
      <point x="357.06315789473683" y="608.4421052631579" type="line"/>
      <point x="474.29473684210524" y="244.0842105263158" type="line"/>
      <point x="498.4947368421052" y="168.70526315789473"/>
      <point x="524.2315789473685" y="80.37894736842105"/>
      <point x="542.2736842105263" y="0.0" type="curve"/>
      <point x="686.4947368421053" y="0.0" type="line"/>
      <point x="653.4947368421052" y="76.0"/>
      <point x="620.9052631578948" y="162.0"/>
      <point x="593.7789473684211" y="241.0" type="curve"/>
      <point x="509.2210526315789" y="486.58947368421053" type="line"/>
      <point x="478.9157894736842" y="573.7684210526315"/>
      <point x="458.8421052631579" y="639.3578947368421"/>
      <point x="441.821052631579" y="713.0" type="curve"/>
      <point x="264.66315789473686" y="713.0" type="line"/>
      <point x="247.46315789473687" y="641.0"/>
      <point x="226.97894736842105" y="575.0"/>
      <point x="196.26315789473682" y="486.58947368421053" type="curve"/>
      <point x="111.11578947368422" y="241.58947368421053" type="line"/>
      <point x="84.4" y="165.0"/>
      <point x="50.45263157894737" y="76.58947368421053"/>
    </contour>
    <contour>
      <point x="174.76842105263157" y="167.2842105263158" type="line"/>
      <point x="540.2105263157895" y="167.2842105263158" type="line"/>
      <point x="530.7684210526315" y="258.86315789473684" type="line"/>
      <point x="186.26315789473682" y="258.86315789473684" type="line"/>
    </contour>
  </outline>
</glyph>
<glyph name="B" format="2">
  <advance width="654.5172413793103"/>
  <unicode hex="0042"/>
  <outline>
    <contour>
      <point x="318.9655172413793" y="-4.586206896551724" type="curve"/>
      <point x="546.4827586206897" y="-4.586206896551724"/>
      <point x="617.1724137931035" y="82.51724137931035"/>
      <point x="617.1724137931035" y="197.48275862068965" type="curve" smooth="yes"/>
      <point x="617.1724137931035" y="306.1034482758621"/>
      <point x="549.9310344827586" y="352.0"/>
      <point x="471.58620689655174" y="368.37931034482756" type="curve"/>
      <point x="471.58620689655174" y="378.86206896551727" type="line"/>
      <point x="544.1724137931034" y="399.37931034482756"/>
      <point x="598.8620689655172" y="455.48275862068965"/>
      <point x="598.8620689655172" y="546.4827586206897" type="curve" smooth="yes"/>
      <point x="598.8620689655172" y="652.6896551724138"/>
      <point x="531.6551724137931" y="716.6896551724138"/>
      <point x="358.2758620689655" y="716.6896551724138" type="curve"/>
      <point x="260.3103448275862" y="716.6896551724138"/>
      <point x="163.17241379310346" y="713.0"/>
      <point x="76.62068965517241" y="713.0" type="curve"/>
      <point x="83.10344827586206" y="633.7931034482758"/>
      <point x="85.79310344827586" y="564.6896551724138"/>
      <point x="85.79310344827586" y="475.0" type="curve"/>
      <point x="85.79310344827586" y="234.41379310344828" type="line"/>
      <point x="85.79310344827586" y="145.6206896551724"/>
      <point x="83.10344827586206" y="78.3103448275862"/>
      <point x="76.62068965517241" y="0.0" type="curve"/>
      <point x="153.48275862068965" y="0.0"/>
      <point x="216.0" y="-4.586206896551724"/>
    </contour>
    <contour>
      <point x="205.86206896551724" y="97.3448275862069" type="line"/>
      <point x="203.86206896551724" y="148.31034482758622"/>
      <point x="202.96551724137933" y="196.9655172413793"/>
      <point x="202.96551724137933" y="259.51724137931035" type="curve"/>
      <point x="202.96551724137933" y="448.1034482758621" type="line"/>
      <point x="202.96551724137933" y="512.448275862069"/>
      <point x="203.86206896551724" y="562.8965517241379"/>
      <point x="205.86206896551724" y="615.6551724137931" type="curve"/>
      <point x="349.1034482758621" y="615.6551724137931" type="line" smooth="yes"/>
      <point x="433.0344827586207" y="615.6551724137931"/>
      <point x="475.3103448275862" y="583.7241379310345"/>
      <point x="475.3103448275862" y="516.8965517241379" type="curve" smooth="yes"/>
      <point x="475.3103448275862" y="456.2068965517241"/>
      <point x="433.7586206896552" y="406.6896551724138"/>
      <point x="337.6896551724138" y="406.6896551724138" type="curve" smooth="yes"/>
      <point x="175.44827586206898" y="406.6896551724138" type="line"/>
      <point x="175.44827586206898" y="313.0344827586207" type="line"/>
      <point x="340.7586206896552" y="313.0344827586207" type="line" smooth="yes"/>
      <point x="437.51724137931035" y="313.0344827586207"/>
      <point x="492.7241379310345" y="281.7931034482759"/>
      <point x="492.7241379310345" y="207.3448275862069" type="curve" smooth="yes"/>
      <point x="492.7241379310345" y="137.9310344827586"/>
      <point x="446.6551724137931" y="97.3448275862069"/>
      <point x="329.8275862068965" y="97.3448275862069" type="curve" smooth="yes"/>
    </contour>
  </outline>
</glyph>
<glyph name="C" format="2">
  <advance width="683.9473684210526"/>
  <unicode hex="0043"/>
  <anchor x="397.7157894736842" y="0.0" name="bottom"/>
  <anchor x="391.82105263157894" y="713.0" name="top"/>
  <outline>
    <contour>
      <point x="414.94736842105266" y="-11.873684210526315" type="curve" smooth="yes"/>
      <point x="490.1052631578947" y="-11.873684210526315"/>
      <point x="572.5684210526316" y="9.357894736842105"/>
      <point x="631.978947368421" y="32.96842105263158" type="curve"/>
      <point x="623.9263157894737" y="149.14736842105265" type="line"/>
      <point x="562.1052631578948" y="110.68421052631578"/>
      <point x="486.0526315789474" y="88.86315789473684"/>
      <point x="427.7263157894737" y="88.86315789473684" type="curve"/>
      <point x="256.5473684210526" y="92.27368421052631"/>
      <point x="169.7684210526316" y="210.3578947368421"/>
      <point x="169.7684210526316" y="356.7684210526316" type="curve" smooth="yes"/>
      <point x="169.7684210526316" y="523.4631578947368"/>
      <point x="271.90526315789475" y="619.6210526315789"/>
      <point x="400.3578947368421" y="623.0315789473684" type="curve"/>
      <point x="439.94736842105266" y="623.0315789473684"/>
      <point x="522.8947368421052" y="604.2105263157895"/>
      <point x="626.8210526315789" y="556.7473684210527" type="curve"/>
      <point x="636.7473684210526" y="672.7473684210527" type="line"/>
      <point x="577.9263157894737" y="695.1052631578947"/>
      <point x="484.9789473684211" y="726.6421052631579"/>
      <point x="401.7684210526316" y="726.6421052631579" type="curve" smooth="yes"/>
      <point x="184.83157894736843" y="726.6421052631579"/>
      <point x="45.22105263157895" y="572.3052631578947"/>
      <point x="45.22105263157895" y="356.94736842105266" type="curve" smooth="yes"/>
      <point x="45.22105263157895" y="141.50526315789475"/>
      <point x="186.37894736842105" y="-11.873684210526315"/>
    </contour>
  </outline>
</glyph>
<glyph name="D" format="2">
  <advance width="737.3578947368421"/>
  <unicode hex="0044"/>
  <anchor x="352.05263157894734" y="0.0" name="bottom"/>
  <anchor x="369.17894736842106" y="357.0" name="center"/>
  <anchor x="352.05263157894734" y="713.0" name="top"/>
  <outline>
    <contour>
      <point x="76.8" y="0.0" type="curve"/>
      <point x="155.85263157894735" y="0.0"/>
      <point x="225.32631578947368" y="-4.284210526315789"/>
      <point x="318.6947368421052" y="-4.284210526315789" type="curve"/>
      <point x="592.5473684210526" y="-4.284210526315789"/>
      <point x="692.1368421052632" y="157.76842105263157"/>
      <point x="692.1368421052632" y="359.17894736842106" type="curve" smooth="yes"/>
      <point x="692.1368421052632" y="582.8736842105263"/>
      <point x="567.9052631578948" y="716.4631578947368"/>
      <point x="349.1894736842105" y="716.4631578947368" type="curve"/>
      <point x="254.84210526315792" y="716.4631578947368"/>
      <point x="166.8736842105263" y="713.0"/>
      <point x="76.8" y="713.0" type="curve"/>
      <point x="82.90526315789474" y="633.6421052631579"/>
      <point x="85.77894736842106" y="564.8736842105263"/>
      <point x="85.77894736842106" y="474.58947368421053" type="curve"/>
      <point x="85.77894736842106" y="234.30526315789473" type="line"/>
      <point x="85.77894736842106" y="145.66315789473686"/>
      <point x="82.90526315789474" y="78.12631578947368"/>
    </contour>
    <contour>
      <point x="208.86315789473684" y="97.50526315789473" type="line"/>
      <point x="206.45263157894735" y="148.67368421052632"/>
      <point x="205.6315789473684" y="198.1263157894737"/>
      <point x="205.6315789473684" y="260.57894736842104" type="curve"/>
      <point x="205.6315789473684" y="449.13684210526316" type="line"/>
      <point x="205.6315789473684" y="513.2315789473685"/>
      <point x="206.45263157894735" y="563.0947368421052"/>
      <point x="208.86315789473684" y="615.4947368421052" type="curve"/>
      <point x="328.5894736842105" y="615.4947368421052" type="line"/>
      <point x="501.6842105263158" y="611.2631578947368"/>
      <point x="567.5894736842106" y="514.5368421052632"/>
      <point x="567.5894736842106" y="361.0" type="curve" smooth="yes"/>
      <point x="567.5894736842106" y="210.3578947368421"/>
      <point x="509.9894736842105" y="102.14736842105263"/>
      <point x="318.8736842105263" y="97.50526315789473" type="curve"/>
    </contour>
  </outline>
</glyph>
<glyph name="F" format="2">
  <advance width="577.1578947368421"/>
  <unicode hex="0046"/>
  <outline>
    <contour>
      <point x="76.8" y="0.0" type="curve"/>
      <point x="212.73684210526315" y="0.0" type="line"/>
      <point x="205.6315789473684" y="78.12631578947368"/>
      <point x="203.16842105263157" y="145.66315789473686"/>
      <point x="203.16842105263157" y="234.30526315789473" type="curve"/>
      <point x="203.16842105263157" y="456.4" type="line"/>
      <point x="203.16842105263157" y="546.6842105263158"/>
      <point x="205.6315789473684" y="615.4526315789474"/>
      <point x="212.73684210526315" y="694.8105263157895" type="curve"/>
      <point x="212.73684210526315" y="713.0" type="line"/>
      <point x="76.8" y="713.0" type="line"/>
      <point x="82.90526315789474" y="633.6421052631579"/>
      <point x="85.77894736842106" y="564.8736842105263"/>
      <point x="85.77894736842106" y="474.58947368421053" type="curve"/>
      <point x="85.77894736842106" y="234.30526315789473" type="line"/>
      <point x="85.77894736842106" y="145.66315789473686"/>
      <point x="82.90526315789474" y="78.12631578947368"/>
    </contour>
    <contour>
      <point x="173.76842105263157" y="305.12631578947367" type="line"/>
      <point x="302.84210526315786" y="305.12631578947367" type="line"/>
      <point x="390.6842105263158" y="305.12631578947367"/>
      <point x="449.9894736842105" y="304.30526315789473"/>
      <point x="514.4736842105264" y="300.0210526315789" type="curve"/>
      <point x="514.4736842105264" y="409.3263157894737" type="line"/>
      <point x="453.57894736842104" y="403.4526315789474"/>
      <point x="393.6842105263158" y="402.63157894736844"/>
      <point x="303.4315789473684" y="402.63157894736844" type="curve"/>
      <point x="173.76842105263157" y="402.63157894736844" type="line"/>
    </contour>
    <contour>
      <point x="180.33684210526317" y="611.8" type="line"/>
      <point x="298.53684210526313" y="611.8" type="line"/>
      <point x="398.6842105263158" y="611.8"/>
      <point x="468.1157894736842" y="608.7473684210526"/>
      <point x="532.9578947368421" y="602.0526315789473" type="curve"/>
      <point x="532.9578947368421" y="713.0" type="line"/>
      <point x="180.33684210526317" y="713.0" type="line"/>
    </contour>
  </outline>
</glyph>
<glyph name="G" format="2">
  <advance width="730.8421052631579"/>
  <unicode hex="0047"/>
  <anchor x="397.7157894736842" y="0.0" name="bottom"/>
  <anchor x="397.7157894736842" y="713.0" name="top"/>
  <outline>
    <contour>
      <point x="426.9684210526316" y="-11.463157894736842" type="curve" smooth="yes"/>
      <point x="520.2526315789473" y="-11.463157894736842"/>
      <point x="620.8526315789474" y="10.894736842105264"/>
      <point x="672.3157894736843" y="25.968421052631577" type="curve"/>
      <point x="652.3578947368421" y="138.45263157894738" type="line"/>
      <point x="585.3052631578947" y="101.63157894736841"/>
      <point x="514.0315789473684" y="86.81052631578947"/>
      <point x="436.41052631578947" y="86.81052631578947" type="curve"/>
      <point x="252.0105263157895" y="90.22105263157894"/>
      <point x="168.94736842105263" y="206.94736842105263"/>
      <point x="168.94736842105263" y="356.94736842105266" type="curve" smooth="yes"/>
      <point x="168.94736842105263" y="525.4631578947368"/>
      <point x="273.77894736842103" y="620.0315789473684"/>
      <point x="403.89473684210526" y="623.0315789473684" type="curve"/>
      <point x="445.71578947368425" y="623.0315789473684"/>
      <point x="533.7157894736843" y="604.2105263157895"/>
      <point x="644.9263157894737" y="556.7473684210527" type="curve"/>
      <point x="654.8526315789474" y="672.3368421052633" type="line"/>
      <point x="591.8" y="694.6947368421053"/>
      <point x="493.3894736842105" y="726.6421052631579"/>
      <point x="404.7157894736842" y="726.6421052631579" type="curve" smooth="yes"/>
      <point x="185.57894736842104" y="726.6421052631579"/>
      <point x="45.22105263157895" y="573.6421052631579"/>
      <point x="45.22105263157895" y="357.3578947368421" type="curve" smooth="yes"/>
      <point x="45.22105263157895" y="145.61052631578949"/>
      <point x="180.43157894736842" y="-11.463157894736842"/>
    </contour>
    <contour>
      <point x="548.8736842105263" y="25.96842105263158" type="curve"/>
      <point x="672.3157894736843" y="25.968421052631577" type="line"/>
      <point x="667.4421052631579" y="97.48421052631579"/>
      <point x="666.621052631579" y="148.76842105263157"/>
      <point x="666.621052631579" y="202.8736842105263" type="curve"/>
      <point x="666.621052631579" y="266.5684210526316"/>
      <point x="669.0842105263158" y="311.4421052631579"/>
      <point x="675.6" y="362.13684210526316" type="curve"/>
      <point x="544.1789473684211" y="362.13684210526316" type="line"/>
      <point x="550.2842105263159" y="311.4421052631579"/>
      <point x="553.7473684210527" y="266.5684210526316"/>
      <point x="553.7473684210527" y="202.8736842105263" type="curve"/>
      <point x="553.7473684210527" y="148.76842105263157"/>
      <point x="552.5157894736842" y="97.48421052631579"/>
    </contour>
  </outline>
</glyph>
<glyph name="H" format="2">
  <advance width="754.5157894736842"/>
  <unicode hex="0048"/>
  <anchor x="377.4631578947368" y="0.0" name="bottom"/>
  <anchor x="377.4631578947368" y="357.0" name="center"/>
  <anchor x="377.4631578947368" y="713.0" name="top"/>
  <anchor x="38.87368421052632" y="713.0" name="topleft"/>
  <outline>
    <contour>
      <point x="539.3157894736842" y="0.0" type="curve"/>
      <point x="677.7157894736843" y="0.0" type="line"/>
      <point x="670.6105263157895" y="78.12631578947368"/>
      <point x="668.1473684210526" y="145.66315789473686"/>
      <point x="668.1473684210526" y="234.30526315789473" type="curve"/>
      <point x="668.1473684210526" y="474.58947368421053" type="line"/>
      <point x="668.1473684210526" y="564.8736842105263"/>
      <point x="670.6105263157895" y="633.6421052631579"/>
      <point x="677.7157894736843" y="713.0" type="curve"/>
      <point x="539.3157894736842" y="713.0" type="line"/>
      <point x="545.421052631579" y="633.6421052631579"/>
      <point x="548.2947368421053" y="564.8736842105263"/>
      <point x="548.2947368421053" y="474.58947368421053" type="curve"/>
      <point x="548.2947368421053" y="234.30526315789473" type="line"/>
      <point x="548.2947368421053" y="145.66315789473686"/>
      <point x="545.421052631579" y="78.12631578947368"/>
    </contour>
    <contour>
      <point x="76.8" y="0.0" type="curve"/>
      <point x="215.2" y="0.0" type="line"/>
      <point x="208.09473684210525" y="78.12631578947368"/>
      <point x="205.6315789473684" y="145.66315789473686"/>
      <point x="205.6315789473684" y="234.30526315789473" type="curve"/>
      <point x="205.6315789473684" y="474.58947368421053" type="line"/>
      <point x="205.6315789473684" y="564.8736842105263"/>
      <point x="208.09473684210525" y="633.6421052631579"/>
      <point x="215.2" y="713.0" type="curve"/>
      <point x="76.8" y="713.0" type="line"/>
      <point x="82.90526315789474" y="633.6421052631579"/>
      <point x="85.77894736842106" y="564.8736842105263"/>
      <point x="85.77894736842106" y="474.58947368421053" type="curve"/>
      <point x="85.77894736842106" y="234.30526315789473" type="line"/>
      <point x="85.77894736842106" y="145.66315789473686"/>
      <point x="82.90526315789474" y="78.12631578947368"/>
    </contour>
    <contour>
      <point x="168.21052631578948" y="309.6421052631579" type="line"/>
      <point x="587.8947368421052" y="309.6421052631579" type="line"/>
      <point x="587.8947368421052" y="410.8421052631579" type="line"/>
      <point x="168.21052631578948" y="410.8421052631579" type="line"/>
    </contour>
  </outline>
</glyph>
<glyph name="I" format="2">
  <advance width="298.15789473684214"/>
  <unicode hex="0049"/>
  <anchor x="146.93684210526317" y="0.0" name="bottom"/>
  <anchor x="217.25263157894736" y="0.0" name="ogonek"/>
  <anchor x="146.93684210526317" y="713.0" name="top"/>
  <anchor x="34.53684210526316" y="713.0" name="topleft"/>
  <outline>
    <contour>
      <point x="78.85263157894737" y="0.0" type="curve"/>
      <point x="219.30526315789473" y="0.0" type="line"/>
      <point x="212.2" y="78.12631578947368"/>
      <point x="209.73684210526315" y="145.66315789473686"/>
      <point x="209.73684210526315" y="234.30526315789473" type="curve"/>
      <point x="209.73684210526315" y="474.58947368421053" type="line"/>
      <point x="209.73684210526315" y="564.8736842105263"/>
      <point x="212.2" y="633.6421052631579"/>
      <point x="219.30526315789473" y="713.0" type="curve"/>
      <point x="78.85263157894737" y="713.0" type="line"/>
      <point x="84.9578947368421" y="633.6421052631579"/>
      <point x="87.83157894736843" y="564.8736842105263"/>
      <point x="87.83157894736843" y="474.58947368421053" type="curve"/>
      <point x="87.83157894736843" y="234.30526315789473" type="line"/>
      <point x="87.83157894736843" y="145.66315789473686"/>
      <point x="84.9578947368421" y="78.12631578947368"/>
    </contour>
  </outline>
</glyph>
<glyph name="J" format="2">
  <advance width="306.30526315789473"/>
  <unicode hex="004A"/>
  <anchor x="156.13684210526316" y="0.0" name="bottom"/>
  <anchor x="156.13684210526316" y="713.0" name="top"/>
  <outline>
    <contour>
      <point x="11.631578947368421" y="-156.7157894736842" type="curve"/>
      <point x="136.57894736842107" y="-156.7157894736842" type="line"/>
      <point x="173.39999999999998" y="-110.89473684210526"/>
      <point x="224.22105263157894" y="-37.71578947368421"/>
      <point x="224.22105263157894" y="65.44210526315788" type="curve" smooth="yes"/>
      <point x="224.22105263157894" y="141.1157894736842"/>
      <point x="217.88421052631577" y="222.78947368421052"/>
      <point x="217.88421052631577" y="309.2315789473684" type="curve"/>
      <point x="217.88421052631577" y="474.58947368421053" type="line"/>
      <point x="217.88421052631577" y="564.8736842105263"/>
      <point x="220.3473684210526" y="633.6421052631579"/>
      <point x="227.45263157894735" y="713.0" type="curve"/>
      <point x="89.05263157894737" y="713.0" type="line"/>
      <point x="95.15789473684211" y="633.6421052631579"/>
      <point x="98.03157894736842" y="564.8736842105263"/>
      <point x="98.03157894736842" y="474.58947368421053" type="curve"/>
      <point x="98.03157894736842" y="290.9578947368421" type="line"/>
      <point x="97.4421052631579" y="72.13684210526316" type="line"/>
      <point x="97.44210526315788" y="-19.347368421052632"/>
      <point x="64.52631578947368" y="-89.96842105263158"/>
    </contour>
  </outline>
</glyph>
<glyph name="K" format="2">
  <advance width="682.7157894736843"/>
  <unicode hex="004B"/>
  <anchor x="350.06315789473683" y="0.0" name="bottom"/>
  <anchor x="350.06315789473683" y="713.0" name="top"/>
  <outline>
    <contour>
      <point x="501.4736842105263" y="0.0" type="curve"/>
      <point x="668.5473684210526" y="0.0" type="line"/>
      <point x="607.9368421052632" y="61.873684210526314"/>
      <point x="518.1263157894737" y="164.7263157894737"/>
      <point x="452.85263157894735" y="241.29473684210527" type="curve"/>
      <point x="311.9473684210526" y="407.66315789473686" type="line"/>
      <point x="313.99999999999994" y="355.0736842105263" type="line"/>
      <point x="440.1894736842105" y="492.94736842105266" type="line"/>
      <point x="507.4631578947368" y="566.0"/>
      <point x="574.3263157894736" y="638.2315789473685"/>
      <point x="651.0631578947368" y="713.0" type="curve"/>
      <point x="489.9157894736842" y="713.0" type="line"/>
      <point x="433.7052631578947" y="640.8000000000001"/>
      <point x="391.178947368421" y="590.7263157894737"/>
      <point x="341.06315789473683" y="535.2947368421053" type="curve"/>
      <point x="234.70526315789473" y="417.4842105263158" type="line"/>
      <point x="193.93684210526317" y="417.4842105263158" type="line"/>
      <point x="193.93684210526317" y="321.62105263157895" type="line"/>
      <point x="235.7578947368421" y="321.62105263157895" type="line"/>
      <point x="357.2631578947368" y="179.57894736842104" type="line"/>
      <point x="404.55789473684206" y="124.91578947368421"/>
      <point x="450.85263157894735" y="68.66315789473686"/>
    </contour>
    <contour>
      <point x="76.8" y="0.0" type="curve"/>
      <point x="214.78947368421052" y="0.0" type="line"/>
      <point x="207.68421052631578" y="78.12631578947368"/>
      <point x="205.22105263157894" y="145.66315789473686"/>
      <point x="205.22105263157894" y="234.30526315789473" type="curve"/>
      <point x="205.22105263157894" y="474.58947368421053" type="line"/>
      <point x="205.22105263157894" y="564.8736842105263"/>
      <point x="207.68421052631578" y="633.6421052631579"/>
      <point x="214.78947368421052" y="713.0" type="curve"/>
      <point x="76.8" y="713.0" type="line"/>
      <point x="82.90526315789474" y="633.6421052631579"/>
      <point x="85.77894736842106" y="564.8736842105263"/>
      <point x="85.77894736842106" y="474.58947368421053" type="curve"/>
      <point x="85.77894736842106" y="234.30526315789473" type="line"/>
      <point x="85.77894736842106" y="145.66315789473686"/>
      <point x="82.90526315789474" y="78.12631578947368"/>
    </contour>
  </outline>
</glyph>
<glyph name="L" format="2">
  <advance width="571.3368421052631"/>
  <unicode hex="004C"/>
  <anchor x="310.37894736842105" y="0.0" name="bottom"/>
  <anchor x="429.65263157894736" y="358.2315789473684" name="center"/>
  <anchor x="212.78947368421052" y="713.0" name="top"/>
  <anchor x="291.8105263157895" y="497.2842105263158" name="topright"/>
  <outline>
    <contour>
      <point x="76.8" y="0.0" type="curve"/>
      <point x="215.2" y="0.0" type="line"/>
      <point x="215.2" y="18.77894736842105" type="line"/>
      <point x="208.09473684210525" y="96.90526315789474"/>
      <point x="205.6315789473684" y="164.44210526315788"/>
      <point x="205.6315789473684" y="253.0842105263158" type="curve"/>
      <point x="205.6315789473684" y="474.58947368421053" type="line"/>
      <point x="205.6315789473684" y="564.8736842105263"/>
      <point x="208.09473684210525" y="633.6421052631579"/>
      <point x="215.2" y="713.0" type="curve"/>
      <point x="76.8" y="713.0" type="line"/>
      <point x="82.90526315789474" y="633.6421052631579"/>
      <point x="85.77894736842106" y="564.8736842105263"/>
      <point x="85.77894736842106" y="474.58947368421053" type="curve"/>
      <point x="85.77894736842106" y="234.30526315789473" type="line"/>
      <point x="85.77894736842106" y="145.66315789473686"/>
      <point x="82.90526315789474" y="78.12631578947368"/>
    </contour>
    <contour>
      <point x="188.95789473684212" y="0.0" type="line"/>
      <point x="539.0842105263158" y="0.0" type="line"/>
      <point x="539.0842105263158" y="117.92631578947369" type="line"/>
      <point x="464.1157894736842" y="109.17894736842106"/>
      <point x="400.5052631578947" y="105.30526315789474"/>
      <point x="290.6421052631579" y="105.30526315789474" type="curve"/>
      <point x="188.95789473684212" y="105.30526315789474" type="line"/>
    </contour>
  </outline>
</glyph>
<glyph name="M" format="2">
  <advance width="958.6210526315789"/>
  <unicode hex="004D"/>
  <anchor x="479.10526315789474" y="0.0" name="bottom"/>
  <anchor x="479.10526315789474" y="713.0" name="top"/>
  <outline>
    <contour>
      <point x="50.95789473684211" y="0.0" type="curve"/>
      <point x="184.37894736842105" y="0.0" type="line"/>
      <point x="189.5263157894737" y="115.8"/>
      <point x="198.54736842105262" y="221.06315789473683"/>
      <point x="209.6736842105263" y="311.8421052631579" type="curve"/>
      <point x="233.5157894736842" y="507.7052631578947" type="line"/>
      <point x="241.85263157894735" y="507.7052631578947" type="line"/>
      <point x="325.7052631578947" y="295.58947368421053" type="line"/>
      <point x="364.56842105263155" y="197.2736842105263"/>
      <point x="403.86315789473684" y="85.1157894736842"/>
      <point x="432.08421052631576" y="0.0" type="curve"/>
      <point x="531.2315789473685" y="0.0" type="line"/>
      <point x="560.2210526315789" y="89.42105263157895"/>
      <point x="596.9263157894736" y="195.2736842105263"/>
      <point x="634.9157894736842" y="296.7684210526316" type="curve"/>
      <point x="714.2526315789473" y="507.7052631578947" type="line"/>
      <point x="722.5894736842105" y="507.7052631578947" type="line"/>
      <point x="746.4315789473684" y="311.8421052631579" type="line"/>
      <point x="757.5578947368421" y="221.06315789473683"/>
      <point x="765.9894736842106" y="115.38947368421053"/>
      <point x="771.5473684210526" y="0.0" type="curve"/>
      <point x="907.6631578947369" y="0.0" type="line"/>
      <point x="891.9684210526316" y="77.71578947368421"/>
      <point x="880.0947368421054" y="147.89473684210526"/>
      <point x="869.6842105263157" y="234.30526315789473" type="curve"/>
      <point x="840.0421052631579" y="472.58947368421053" type="line"/>
      <point x="829.0421052631579" y="559.7684210526315"/>
      <point x="822.2736842105263" y="632.6421052631579"/>
      <point x="817.5578947368422" y="713.0" type="curve"/>
      <point x="679.6210526315789" y="713.0" type="line"/>
      <point x="650.6315789473684" y="617.7578947368421"/>
      <point x="620.0" y="533.8000000000001"/>
      <point x="585.9052631578948" y="448.61052631578946" type="curve"/>
      <point x="485.8" y="195.4" type="line"/>
      <point x="477.2842105263158" y="195.4" type="line"/>
      <point x="375.12631578947367" y="448.61052631578946" type="line"/>
      <point x="340.62105263157895" y="533.8000000000001"/>
      <point x="308.7578947368421" y="618.1684210526316"/>
      <point x="279.7684210526316" y="713.0" type="curve"/>
      <point x="139.18947368421053" y="713.0" type="line"/>
      <point x="135.47368421052633" y="631.6421052631579"/>
      <point x="129.1157894736842" y="558.5894736842105"/>
      <point x="118.11578947368422" y="472.58947368421053" type="curve"/>
      <point x="88.70526315789475" y="234.30526315789473" type="line"/>
      <point x="77.70526315789475" y="147.7157894736842"/>
      <point x="65.83157894736843" y="76.48421052631579"/>
    </contour>
  </outline>
</glyph>
<glyph name="N" format="2">
  <advance width="757.1789473684211"/>
  <unicode hex="004E"/>
  <anchor x="379.0" y="0.0" name="bottom"/>
  <anchor x="379.0" y="713.0" name="top"/>
  <outline>
    <contour>
      <point x="76.8" y="0.0" type="curve"/>
      <point x="208.22105263157894" y="0.0" type="line"/>
      <point x="201.1157894736842" y="78.12631578947368"/>
      <point x="198.65263157894736" y="145.66315789473686"/>
      <point x="198.65263157894736" y="234.30526315789473" type="curve"/>
      <point x="198.65263157894736" y="510.90526315789475" type="line"/>
      <point x="207.57894736842107" y="510.90526315789475" type="line"/>
      <point x="348.24210526315784" y="310.61052631578946" type="line"/>
      <point x="431.7368421052631" y="191.73684210526315"/>
      <point x="498.15789473684214" y="94.65263157894736"/>
      <point x="555.9368421052632" y="0.0" type="curve"/>
      <point x="680.378947368421" y="0.0" type="line"/>
      <point x="673.2736842105263" y="78.12631578947368"/>
      <point x="670.8105263157895" y="145.66315789473686"/>
      <point x="670.8105263157895" y="234.30526315789473" type="curve"/>
      <point x="670.8105263157895" y="474.58947368421053" type="line"/>
      <point x="670.8105263157895" y="564.8736842105263"/>
      <point x="673.2736842105263" y="633.6421052631579"/>
      <point x="680.378947368421" y="713.0" type="curve"/>
      <point x="548.957894736842" y="713.0" type="line"/>
      <point x="555.0631578947368" y="633.6421052631579"/>
      <point x="557.9368421052632" y="564.8736842105263"/>
      <point x="557.9368421052632" y="474.58947368421053" type="curve"/>
      <point x="557.9368421052632" y="204.45263157894738" type="line"/>
      <point x="548.6" y="204.45263157894738" type="line"/>
      <point x="409.1684210526316" y="403.1578947368421" type="line"/>
      <point x="340.7473684210526" y="500.01052631578943"/>
      <point x="274.2" y="601.2736842105263"/>
      <point x="205.11578947368423" y="713.0" type="curve"/>
      <point x="76.8" y="713.0" type="line"/>
      <point x="82.90526315789474" y="633.6421052631579"/>
      <point x="85.77894736842106" y="564.8736842105263"/>
      <point x="85.77894736842106" y="474.58947368421053" type="curve"/>
      <point x="85.77894736842106" y="234.30526315789473" type="line"/>
      <point x="85.77894736842106" y="145.66315789473686"/>
      <point x="82.90526315789474" y="78.12631578947368"/>
    </contour>
  </outline>
</glyph>
<glyph name="R" format="2">
  <advance width="683.0"/>
  <unicode hex="0052"/>
  <anchor x="342.44827586206895" y="0.0" name="bottom"/>
  <anchor x="340.48275862068965" y="713.0" name="top"/>
  <outline>
    <contour>
      <point x="507.1379310344828" y="0.0" type="curve"/>
      <point x="664.7241379310345" y="0.0" type="line"/>
      <point x="617.1034482758621" y="54.10344827586207"/>
      <point x="550.2758620689655" y="139.68965517241378"/>
      <point x="501.3448275862069" y="205.48275862068965" type="curve"/>
      <point x="395.17241379310343" y="347.2758620689655" type="line"/>
      <point x="352.93103448275866" y="297.0" type="line"/>
      <point x="529.9655172413793" y="298.0"/>
      <point x="593.9310344827586" y="395.6896551724138"/>
      <point x="593.9310344827586" y="514.7586206896551" type="curve" smooth="yes"/>
      <point x="593.9310344827586" y="660.5862068965517"/>
      <point x="507.7931034482759" y="716.6896551724138"/>
      <point x="340.34482758620686" y="716.6896551724138" type="curve"/>
      <point x="238.86206896551724" y="716.6896551724138"/>
      <point x="145.86206896551727" y="713.0"/>
      <point x="76.62068965517241" y="713.0" type="curve"/>
      <point x="165.0689655172414" y="615.6551724137931" type="line"/>
      <point x="335.65517241379314" y="615.6551724137931" type="line" smooth="yes"/>
      <point x="396.9310344827586" y="615.6551724137931"/>
      <point x="471.2758620689655" y="604.7931034482758"/>
      <point x="471.2758620689655" y="501.3103448275862" type="curve" smooth="yes"/>
      <point x="471.2758620689655" y="404.7931034482759"/>
      <point x="418.2068965517241" y="370.7241379310345"/>
      <point x="311.0" y="370.7241379310345" type="curve" smooth="yes"/>
      <point x="181.82758620689657" y="370.7241379310345" type="line"/>
      <point x="181.82758620689657" y="273.48275862068965" type="line"/>
      <point x="346.51724137931035" y="273.48275862068965" type="line"/>
      <point x="274.3103448275862" y="335.48275862068965" type="line"/>
      <point x="399.44827586206895" y="163.86206896551724" type="line"/>
      <point x="437.10344827586204" y="112.13793103448276"/>
      <point x="471.0689655172414" y="60.31034482758621"/>
    </contour>
    <contour>
      <point x="76.62068965517241" y="0.0" type="curve"/>
      <point x="213.13793103448276" y="0.0" type="line"/>
      <point x="205.6551724137931" y="78.3103448275862"/>
      <point x="203.86206896551724" y="145.6206896551724"/>
      <point x="203.86206896551724" y="234.41379310344828" type="curve"/>
      <point x="203.86206896551724" y="456.7586206896552" type="line"/>
      <point x="203.86206896551724" y="546.448275862069"/>
      <point x="205.6551724137931" y="615.551724137931"/>
      <point x="213.13793103448276" y="694.7586206896551" type="curve"/>
      <point x="76.62068965517241" y="713.0" type="line"/>
      <point x="83.10344827586206" y="633.7931034482758"/>
      <point x="85.79310344827586" y="564.6896551724138"/>
      <point x="85.79310344827586" y="475.0" type="curve"/>
      <point x="85.79310344827586" y="234.41379310344828" type="line"/>
      <point x="85.79310344827586" y="145.6206896551724"/>
      <point x="83.10344827586206" y="78.3103448275862"/>
    </contour>
  </outline>
</glyph>
<glyph name="T" format="2">
  <advance width="642.7473684210527"/>
  <unicode hex="0054"/>
  <anchor x="321.87368421052633" y="0.0" name="bottom"/>
  <anchor x="321.87368421052633" y="333.1894736842105" name="center"/>
  <anchor x="321.87368421052633" y="713.0" name="top"/>
  <outline>
    <contour>
      <point x="252.96842105263156" y="0.0" type="curve"/>
      <point x="390.95789473684215" y="0.0" type="line"/>
      <point x="383.8526315789474" y="78.12631578947368"/>
      <point x="381.38947368421054" y="145.66315789473686"/>
      <point x="381.38947368421054" y="234.30526315789473" type="curve"/>
      <point x="381.38947368421054" y="456.4" type="line"/>
      <point x="381.38947368421054" y="546.6842105263158"/>
      <point x="384.4421052631579" y="615.4526315789474"/>
      <point x="390.95789473684215" y="694.8105263157895" type="curve"/>
      <point x="390.95789473684215" y="713.0" type="line"/>
      <point x="252.37894736842102" y="713.0" type="line"/>
      <point x="252.37894736842102" y="694.8105263157895" type="line"/>
      <point x="258.89473684210526" y="615.4526315789474"/>
      <point x="261.9473684210526" y="546.6842105263158"/>
      <point x="261.9473684210526" y="456.4" type="curve"/>
      <point x="261.9473684210526" y="234.30526315789473" type="line"/>
      <point x="261.9473684210526" y="145.66315789473686"/>
      <point x="259.48421052631574" y="78.12631578947368"/>
    </contour>
    <contour>
      <point x="28.842105263157894" y="595.0736842105264" type="line"/>
      <point x="83.32631578947368" y="603.2315789473685"/>
      <point x="140.81052631578947" y="607.6947368421053"/>
      <point x="219.65263157894736" y="607.6947368421053" type="curve"/>
      <point x="281.7263157894737" y="607.6947368421053" type="line"/>
      <point x="281.7263157894737" y="713.0" type="line"/>
      <point x="28.842105263157894" y="713.0" type="line"/>
    </contour>
    <contour>
      <point x="361.0210526315789" y="607.6947368421053" type="line"/>
      <point x="423.09473684210525" y="607.6947368421053" type="line"/>
      <point x="501.93684210526317" y="607.6947368421053"/>
      <point x="560.0105263157894" y="603.8210526315789"/>
      <point x="613.9052631578948" y="595.0736842105264" type="curve"/>
      <point x="613.9052631578948" y="713.0" type="line"/>
      <point x="361.0210526315789" y="713.0" type="line"/>
    </contour>
  </outline>
</glyph>
<glyph name="V" format="2">
  <advance width="697.5578947368421"/>
  <unicode hex="0056"/>
  <anchor x="349.36842105263156" y="0.0" name="bottom"/>
  <anchor x="349.36842105263156" y="713.0" name="top"/>
  <outline>
    <contour>
      <point x="259.9157894736842" y="0.0" type="curve"/>
      <point x="437.9473684210526" y="0.0" type="line"/>
      <point x="457.7894736842105" y="72.58947368421053"/>
      <point x="482.4" y="156.4105263157895"/>
      <point x="506.11578947368423" y="225.41052631578947" type="curve"/>
      <point x="582.0315789473684" y="450.0" type="line"/>
      <point x="608.3368421052631" y="527.4105263157895"/>
      <point x="646.6947368421053" y="630.4631578947368"/>
      <point x="682.9263157894736" y="713.0" type="curve"/>
      <point x="531.4947368421052" y="713.0" type="line"/>
      <point x="506.14736842105265" y="613.7789473684211"/>
      <point x="474.1578947368421" y="500.5578947368421"/>
      <point x="443.4736842105263" y="402.5684210526316" type="curve"/>
      <point x="354.1894736842105" y="122.62105263157895" type="line"/>
      <point x="344.08421052631576" y="122.62105263157895" type="line"/>
      <point x="256.6736842105263" y="401.5684210526316" type="line"/>
      <point x="226.22105263157894" y="498.2"/>
      <point x="191.46315789473684" y="614.957894736842"/>
      <point x="167.29473684210524" y="713.0" type="curve"/>
      <point x="13.631578947368421" y="713.0" type="line"/>
      <point x="51.45263157894737" y="629.4631578947368"/>
      <point x="89.4" y="526.821052631579"/>
      <point x="115.29473684210527" y="450.0" type="curve"/>
      <point x="191.56842105263158" y="226.0" type="line"/>
      <point x="214.46315789473684" y="158.41052631578947"/>
      <point x="240.4842105263158" y="71.41052631578947"/>
    </contour>
  </outline>
</glyph>
<glyph name="W" format="2">
  <advance width="1030.6105263157895"/>
  <unicode hex="0057"/>
  <anchor x="512.5473684210526" y="0.0" name="bottom"/>
  <anchor x="512.5473684210526" y="713.0" name="top"/>
  <outline>
    <contour>
      <point x="215.21052631578948" y="0.0" type="curve"/>
      <point x="375.4315789473684" y="0.0" type="line"/>
      <point x="392.52631578947364" y="89.47368421052632"/>
      <point x="416.5684210526316" y="197.02105263157893"/>
      <point x="439.12631578947367" y="285.2631578947368" type="curve"/>
      <point x="504.62105263157895" y="543.0947368421052" type="line"/>
      <point x="514.7263157894737" y="543.0947368421052" type="line"/>
      <point x="581.6315789473684" y="285.6736842105263" type="line"/>
      <point x="604.6" y="197.02105263157893"/>
      <point x="628.642105263158" y="90.06315789473685"/>
      <point x="646.3263157894737" y="0.0" type="curve"/>
      <point x="813.9368421052632" y="0.0" type="line"/>
      <point x="826.421052631579" y="68.82105263157894"/>
      <point x="848.7263157894737" y="155.41052631578947"/>
      <point x="868.6736842105263" y="225.58947368421053" type="curve"/>
      <point x="932.3368421052631" y="450.0" type="line"/>
      <point x="954.2842105263157" y="528.5894736842106"/>
      <point x="984.6947368421053" y="629.0526315789474"/>
      <point x="1018.8" y="713.0" type="curve"/>
      <point x="864.9052631578948" y="713.0" type="line"/>
      <point x="846.6315789473684" y="618.2421052631579"/>
      <point x="821.4105263157895" y="505.94736842105266"/>
      <point x="798.4947368421052" y="413.0105263157895" type="curve"/>
      <point x="732.1052631578947" y="141.68421052631578" type="line"/>
      <point x="722.0" y="141.68421052631578" type="line"/>
      <point x="655.0947368421052" y="412.0105263157895" type="line"/>
      <point x="630.9473684210526" y="507.1263157894737"/>
      <point x="607.4947368421053" y="617.063157894737"/>
      <point x="589.221052631579" y="713.0" type="curve"/>
      <point x="439.8" y="713.0" type="line"/>
      <point x="422.7052631578947" y="618.8315789473684"/>
      <point x="397.66315789473686" y="504.7684210526316"/>
      <point x="375.10526315789474" y="413.0105263157895" type="curve"/>
      <point x="309.61052631578946" y="141.68421052631578" type="line"/>
      <point x="299.5052631578947" y="141.68421052631578" type="line"/>
      <point x="233.70526315789473" y="410.8315789473684" type="line"/>
      <point x="210.2" y="505.94736842105266"/>
      <point x="185.56842105263158" y="617.063157894737"/>
      <point x="166.70526315789476" y="713.0" type="curve"/>
      <point x="12.399999999999999" y="713.0" type="line"/>
      <point x="45.73684210526315" y="629.8210526315789"/>
      <point x="76.6842105263158" y="527.4105263157894"/>
      <point x="98.63157894736842" y="448.82105263157894" type="curve"/>
      <point x="160.8842105263158" y="225.0" type="line"/>
      <point x="179.83157894736843" y="156.41052631578947"/>
      <point x="201.13684210526316" y="71.41052631578948"/>
    </contour>
  </outline>
</glyph>
<glyph name="X" format="2">
  <advance width="699.6421052631579"/>
  <unicode hex="0058"/>
  <outline>
    <contour>
      <point x="24.757894736842108" y="0.0" type="curve"/>
      <point x="179.54736842105262" y="0.0" type="line"/>
      <point x="207.66315789473683" y="59.32631578947369"/>
      <point x="234.5263157894737" y="110.5263157894737"/>
      <point x="263.79999999999995" y="160.44210526315788" type="curve"/>
      <point x="334.65263157894736" y="282.4526315789474" type="line"/>
      <point x="344.7578947368421" y="282.4526315789474" type="line"/>
      <point x="420.55789473684206" y="161.03157894736842" type="line"/>
      <point x="450.8315789473684" y="112.8842105263158"/>
      <point x="483.28421052631575" y="59.32631578947369"/>
      <point x="513.578947368421" y="0.0" type="curve"/>
      <point x="676.1157894736842" y="0.0" type="line"/>
      <point x="617.7578947368421" y="72.94736842105263"/>
      <point x="570.8631578947368" y="140.76842105263157"/>
      <point x="520.0210526315789" y="219.41052631578947" type="curve"/>
      <point x="418.978947368421" y="375.2315789473684" type="line"/>
      <point x="418.978947368421" y="340.57894736842104" type="line"/>
      <point x="517.2526315789473" y="506.37894736842105" type="line"/>
      <point x="552.7368421052632" y="566.2526315789473"/>
      <point x="597.2210526315789" y="638.3578947368421"/>
      <point x="653.6842105263157" y="713.0" type="curve"/>
      <point x="498.30526315789473" y="713.0" type="line"/>
      <point x="468.5473684210526" y="652.8000000000001"/>
      <point x="437.1473684210526" y="592.6526315789473"/>
      <point x="406.8736842105263" y="540.5052631578948" type="curve"/>
      <point x="347.6842105263158" y="438.33684210526314" type="line"/>
      <point x="337.57894736842104" y="438.33684210526314" type="line"/>
      <point x="276.3894736842105" y="539.9157894736842" type="line"/>
      <point x="245.1157894736842" y="591.4736842105262"/>
      <point x="212.30526315789473" y="651.4421052631578"/>
      <point x="181.54736842105262" y="713.0" type="curve"/>
      <point x="24.11578947368421" y="713.0" type="line"/>
      <point x="84.11578947368422" y="633.8210526315789"/>
      <point x="126.77894736842104" y="565.7684210526315"/>
      <point x="169.03157894736842" y="498.12631578947367" type="curve"/>
      <point x="260.4842105263158" y="350.89473684210526" type="line"/>
      <point x="260.4842105263158" y="382.2631578947368" type="line"/>
      <point x="156.49473684210525" y="205.1578947368421" type="line"/>
      <point x="112.65263157894736" y="130.2842105263158"/>
      <point x="71.57894736842104" y="65.05263157894737"/>
    </contour>
  </outline>
</glyph>
<glyph name="Y" format="2">
  <advance width="664.3052631578947"/>
  <unicode hex="0059"/>
  <anchor x="333.88421052631577" y="0.0" name="bottom"/>
  <anchor x="333.88421052631577" y="713.0" name="top"/>
  <anchor x="20.0" y="713.0" name="topleft"/>
  <outline>
    <contour>
      <point x="276.59999999999997" y="267.9789473684211" type="line"/>
      <point x="390.7578947368421" y="267.9789473684211" type="line"/>
      <point x="542.6736842105263" y="538.2736842105263" type="line"/>
      <point x="574.621052631579" y="595.1999999999999"/>
      <point x="609.3894736842105" y="653.8947368421053"/>
      <point x="651.3157894736843" y="713.0" type="curve"/>
      <point x="496.06315789473683" y="713.0" type="line"/>
      <point x="458.3368421052632" y="622.7789473684211"/>
      <point x="435.8315789473684" y="576.3473684210526"/>
      <point x="397.89473684210526" y="505.12631578947367" type="curve"/>
      <point x="339.34736842105264" y="394.42105263157896" type="line"/>
      <point x="328.42105263157896" y="394.42105263157896" type="line"/>
      <point x="268.5157894736842" y="508.4842105263158" type="line"/>
      <point x="232.34736842105264" y="576.9368421052632"/>
      <point x="211.02105263157895" y="621.7789473684211"/>
      <point x="172.70526315789473" y="713.0" type="curve"/>
      <point x="13.757894736842106" y="713.0" type="line"/>
      <point x="62.68421052631579" y="644.4842105263158"/>
      <point x="92.09473684210526" y="595.7894736842105"/>
      <point x="124.45263157894738" y="538.2736842105263" type="curve"/>
    </contour>
    <contour>
      <point x="264.9789473684211" y="0.0" type="curve"/>
      <point x="403.37894736842105" y="0.0" type="line"/>
      <point x="396.2736842105263" y="78.12631578947368"/>
      <point x="393.81052631578945" y="145.66315789473686"/>
      <point x="393.81052631578945" y="234.30526315789473" type="curve"/>
      <point x="393.81052631578945" y="368.2842105263158" type="line"/>
      <point x="273.9578947368421" y="368.2842105263158" type="line"/>
      <point x="273.9578947368421" y="234.30526315789473" type="line"/>
      <point x="273.9578947368421" y="145.66315789473686"/>
      <point x="271.0842105263158" y="78.12631578947368"/>
    </contour>
  </outline>
</glyph>
<glyph name="Z" format="2">
  <advance width="677.4736842105264"/>
  <unicode hex="005A"/>
  <anchor x="339.0315789473684" y="0.0" name="bottom"/>
  <anchor x="339.0315789473684" y="357.0" name="center"/>
  <anchor x="339.0315789473684" y="713.0" name="top"/>
  <outline>
    <contour>
      <point x="44.73684210526316" y="0.0" type="line"/>
      <point x="629.7894736842105" y="0.0" type="line"/>
      <point x="629.7894736842105" y="114.41052631578947" type="line"/>
      <point x="553.2842105263157" y="103.66315789473684"/>
      <point x="429.57894736842104" y="100.78947368421052"/>
      <point x="344.7157894736842" y="100.78947368421052" type="curve"/>
      <point x="167.81052631578947" y="100.78947368421052" type="line"/>
      <point x="180.9894736842105" y="56.72631578947368" type="line"/>
      <point x="453.06315789473683" y="406.86315789473684" type="line"/>
      <point x="509.62105263157895" y="480.3157894736842"/>
      <point x="566.5894736842105" y="553.357894736842"/>
      <point x="625.1473684210526" y="619.8315789473685" type="curve"/>
      <point x="625.1473684210526" y="713.0" type="line"/>
      <point x="53.61052631578947" y="713.0" type="line"/>
      <point x="53.61052631578947" y="597.5368421052632" type="line"/>
      <point x="150.2421052631579" y="608.7473684210527"/>
      <point x="241.10526315789474" y="612.2105263157895"/>
      <point x="321.2" y="612.2105263157895" type="curve"/>
      <point x="515.4631578947368" y="612.2105263157895" type="line"/>
      <point x="494.9263157894737" y="651.5578947368421" type="line"/>
      <point x="236.05263157894737" y="314.2842105263158" type="line"/>
      <point x="178.85263157894735" y="239.77894736842106"/>
      <point x="98.34736842105264" y="136.61052631578949"/>
      <point x="44.73684210526316" y="78.90526315789475" type="curve"/>
    </contour>
  </outline>
</glyph>
<glyph name="bracketleft" format="2">
  <advance width="386.0526315789474"/>
  <unicode hex="005B"/>
  <outline>
    <contour>
      <point x="80.26315789473685" y="-119.38947368421053" type="curve"/>
      <point x="197.95789473684212" y="-119.38947368421053" type="line"/>
      <point x="197.95789473684212" y="-100.61052631578947" type="line"/>
      <point x="190.85263157894738" y="-22.48421052631579"/>
      <point x="188.38947368421054" y="45.05263157894737"/>
      <point x="188.38947368421054" y="133.69473684210527" type="curve"/>
      <point x="188.38947368421054" y="512.8421052631579" type="line"/>
      <point x="188.38947368421054" y="603.1263157894737"/>
      <point x="190.85263157894738" y="671.8947368421053"/>
      <point x="197.95789473684212" y="751.2526315789473" type="curve"/>
      <point x="197.95789473684212" y="769.4421052631579" type="line"/>
      <point x="80.26315789473685" y="769.4421052631579" type="line"/>
      <point x="85.13684210526316" y="690.0842105263158"/>
      <point x="88.01052631578948" y="621.3157894736842"/>
      <point x="88.01052631578948" y="531.0315789473684" type="curve"/>
      <point x="88.01052631578948" y="114.91578947368421" type="line"/>
      <point x="88.01052631578948" y="26.273684210526316"/>
      <point x="85.13684210526316" y="-41.26315789473684"/>
    </contour>
    <contour>
      <point x="174.17894736842106" y="-119.38947368421053" type="line"/>
      <point x="367.2526315789474" y="-119.38947368421053" type="line"/>
      <point x="367.2526315789474" y="-24.757894736842104" type="line"/>
      <point x="321.12631578947367" y="-29.452631578947365"/>
      <point x="271.58947368421053" y="-30.684210526315788"/>
      <point x="215.8736842105263" y="-30.684210526315788" type="curve"/>
      <point x="174.17894736842106" y="-30.684210526315788" type="line"/>
    </contour>
    <contour>
      <point x="167.61052631578949" y="680.7368421052631" type="line"/>
      <point x="209.17894736842103" y="680.7368421052631" type="line"/>
      <point x="275.89473684210526" y="680.7368421052631"/>
      <point x="322.2526315789474" y="678.2736842105263"/>
      <point x="365.7894736842105" y="674.8105263157894" type="curve"/>
      <point x="365.7894736842105" y="769.4421052631579" type="line"/>
      <point x="167.61052631578949" y="769.4421052631579" type="line"/>
    </contour>
  </outline>
</glyph>
<glyph name="asciicircum" format="2">
  <advance width="617.9157894736842"/>
  <unicode hex="005E"/>
  <outline>
    <contour>
      <point x="464.4736842105263" y="371.42105263157896" type="curve"/>
      <point x="563.4631578947368" y="372.8315789473684" type="line"/>
      <point x="500.2105263157895" y="477.0421052631579"/>
      <point x="438.36842105263156" y="582.2526315789473"/>
      <point x="385.0421052631579" y="686.4631578947368" type="curve"/>
      <point x="232.8736842105263" y="686.4631578947368" type="line"/>
      <point x="179.54736842105262" y="582.2526315789473"/>
      <point x="117.70526315789473" y="479.0421052631579"/>
      <point x="54.452631578947376" y="374.8315789473684" type="curve"/>
      <point x="153.85263157894735" y="374.8315789473684" type="line"/>
      <point x="206.3578947368421" y="447.2842105263158"/>
      <point x="255.04210526315788" y="520.7368421052631"/>
      <point x="303.90526315789475" y="593.1894736842105" type="curve"/>
      <point x="314.0105263157895" y="593.1894736842105" type="line"/>
      <point x="362.87368421052633" y="519.3263157894737"/>
      <point x="411.9684210526316" y="445.2842105263158"/>
    </contour>
  </outline>
</glyph>
<glyph name="underscore" format="2">
  <advance width="496.17894736842106"/>
  <unicode hex="005F"/>
  <outline>
    <contour>
      <point x="-10.0" y="-141.7263157894737" type="line"/>
      <point x="54.97894736842105" y="-139.31578947368422"/>
      <point x="118.6" y="-138.0842105263158"/>
      <point x="169.70526315789473" y="-137.26315789473685" type="curve"/>
      <point x="243.13684210526316" y="-137.26315789473685" type="line"/>
      <point x="294.2421052631579" y="-138.0842105263158"/>
      <point x="357.86315789473684" y="-139.31578947368422"/>
      <point x="422.8421052631579" y="-141.7263157894737" type="curve"/>
      <point x="422.8421052631579" y="-43.22105263157894" type="line"/>
      <point x="357.86315789473684" y="-45.63157894736842"/>
      <point x="294.2421052631579" y="-46.86315789473684"/>
      <point x="243.13684210526316" y="-47.68421052631579" type="curve"/>
      <point x="169.70526315789473" y="-47.68421052631579" type="line"/>
      <point x="118.6" y="-46.86315789473684"/>
      <point x="54.97894736842105" y="-45.63157894736842"/>
      <point x="-10.0" y="-43.22105263157894" type="curve"/>
    </contour>
  </outline>
</glyph>
<glyph name="a" format="2">
  <advance width="531.2413793103448"/>
  <unicode hex="0061"/>
  <anchor x="263.8965517241379" y="0.0" name="bottom"/>
  <anchor x="460.9655172413793" y="0.0" name="ogonek"/>
  <anchor x="263.8965517241379" y="497.58620689655174" name="top"/>
  <outline>
    <contour>
      <point x="193.58620689655172" y="-10.793103448275861" type="curve" smooth="yes"/>
      <point x="254.48275862068968" y="-10.793103448275861"/>
      <point x="321.2068965517242" y="29.586206896551722"/>
      <point x="353.6551724137931" y="63.06896551724139" type="curve"/>
      <point x="363.2413793103448" y="63.06896551724139" type="line"/>
      <point x="382.65517241379314" y="0.0" type="line"/>
      <point x="492.7586206896551" y="0.0" type="line"/>
      <point x="471.27586206896547" y="59.275862068965516"/>
      <point x="460.8620689655172" y="111.3448275862069"/>
      <point x="460.8620689655172" y="158.51724137931035" type="curve"/>
      <point x="460.8620689655172" y="211.0" type="line" smooth="yes"/>
      <point x="460.8620689655172" y="251.6206896551724"/>
      <point x="463.7586206896551" y="302.41379310344826"/>
      <point x="463.7586206896551" y="334.0" type="curve" smooth="yes"/>
      <point x="463.7586206896551" y="457.48275862068965"/>
      <point x="391.7931034482759" y="509.37931034482756"/>
      <point x="271.2758620689655" y="509.37931034482756" type="curve" smooth="yes"/>
      <point x="200.24137931034483" y="509.37931034482756"/>
      <point x="113.96551724137932" y="487.1724137931035"/>
      <point x="67.27586206896551" y="474.17241379310343" type="curve"/>
      <point x="72.06896551724138" y="371.82758620689657" type="line"/>
      <point x="140.89655172413794" y="399.0344827586207"/>
      <point x="218.9655172413793" y="418.2068965517241"/>
      <point x="245.27586206896552" y="418.2068965517241" type="curve" smooth="yes"/>
      <point x="304.0344827586207" y="418.2068965517241"/>
      <point x="358.8620689655172" y="397.1034482758621"/>
      <point x="355.6551724137931" y="318.2758620689655" type="curve"/>
      <point x="208.6551724137931" y="295.7241379310345" type="line" smooth="yes"/>
      <point x="129.79310344827587" y="283.51724137931035"/>
      <point x="45.275862068965516" y="247.13793103448276"/>
      <point x="45.275862068965516" y="136.86206896551724" type="curve" smooth="yes"/>
      <point x="45.275862068965516" y="42.41379310344828"/>
      <point x="108.34482758620689" y="-10.793103448275861"/>
    </contour>
    <contour>
      <point x="229.44827586206895" y="75.79310344827587" type="curve" smooth="yes"/>
      <point x="189.9310344827586" y="75.79310344827587"/>
      <point x="156.0689655172414" y="93.24137931034483"/>
      <point x="156.0689655172414" y="141.44827586206895" type="curve" smooth="yes"/>
      <point x="156.0689655172414" y="186.17241379310346"/>
      <point x="185.10344827586206" y="213.3793103448276"/>
      <point x="233.20689655172413" y="222.0" type="curve" smooth="yes"/>
      <point x="317.51724137931035" y="236.72413793103448"/>
      <point x="338.44827586206895" y="242.3448275862069"/>
      <point x="352.9655172413793" y="251.3448275862069" type="curve"/>
      <point x="352.8620689655172" y="164.48275862068965" type="line"/>
      <point x="322.62068965517244" y="110.0"/>
      <point x="264.41379310344826" y="75.79310344827587"/>
    </contour>
  </outline>
</glyph>
<glyph name="b" format="2">
  <advance width="593.2842105263157"/>
  <unicode hex="0062"/>
  <outline>
    <contour>
      <point x="341.0736842105263" y="-11.873684210526315" type="curve" smooth="yes"/>
      <point x="480.91578947368424" y="-11.873684210526315"/>
      <point x="548.5263157894736" y="110.82105263157895"/>
      <point x="548.5263157894736" y="249.82105263157894" type="curve" smooth="yes"/>
      <point x="548.5263157894736" y="397.6421052631579"/>
      <point x="473.9684210526316" y="509.7473684210526"/>
      <point x="339.4842105263158" y="509.7473684210526" type="curve" smooth="yes"/>
      <point x="280.8" y="509.7473684210526"/>
      <point x="231.77894736842106" y="479.3157894736842"/>
      <point x="196.65263157894736" y="442.4421052631579" type="curve"/>
      <point x="186.54736842105262" y="442.4421052631579" type="line"/>
      <point x="186.54736842105262" y="493.58947368421053" type="line"/>
      <point x="186.54736842105262" y="583.1052631578947"/>
      <point x="191.06315789473683" y="664.9789473684211"/>
      <point x="198.16842105263157" y="744.9263157894737" type="curve"/>
      <point x="59.82105263157895" y="730.2315789473685" type="line"/>
      <point x="72.85263157894738" y="653.7157894736843"/>
      <point x="77.72631578947369" y="576.1263157894737"/>
      <point x="77.72631578947369" y="493.58947368421053" type="curve"/>
      <point x="77.72631578947369" y="217.7157894736842" type="line"/>
      <point x="77.72631578947369" y="135.4842105263158"/>
      <point x="74.85263157894738" y="72.53684210526316"/>
      <point x="69.15789473684211" y="0.0" type="curve"/>
      <point x="163.66315789473686" y="0.0" type="line"/>
      <point x="176.10526315789474" y="65.25263157894737" type="line"/>
      <point x="184.97894736842105" y="65.25263157894737" type="line"/>
      <point x="231.69473684210527" y="13.663157894736843"/>
      <point x="288.0" y="-11.873684210526315"/>
    </contour>
    <contour>
      <point x="303.71578947368425" y="82.93684210526317" type="curve"/>
      <point x="257.59999999999997" y="84.16842105263159"/>
      <point x="217.7157894736842" y="108.90526315789474"/>
      <point x="186.54736842105262" y="153.96842105263158" type="curve"/>
      <point x="186.54736842105262" y="354.4421052631579" type="line"/>
      <point x="219.1263157894737" y="393.3263157894737"/>
      <point x="263.3684210526316" y="412.7052631578947"/>
      <point x="302.5368421052632" y="413.7052631578947" type="curve"/>
      <point x="393.71578947368425" y="410.7052631578947"/>
      <point x="437.0631578947369" y="339.1578947368421"/>
      <point x="437.0631578947369" y="249.0" type="curve" smooth="yes"/>
      <point x="437.0631578947369" y="163.02105263157895"/>
      <point x="396.2526315789474" y="85.93684210526317"/>
    </contour>
  </outline>
</glyph>
<glyph name="d" format="2">
  <advance width="581.0315789473685"/>
  <unicode hex="0064"/>
  <anchor x="312.5684210526316" y="0.0" name="bottom"/>
  <anchor x="291.87368421052633" y="248.6421052631579" name="center"/>
  <anchor x="312.5684210526316" y="727.1052631578947" name="top"/>
  <anchor x="558.1368421052632" y="497.2842105263158" name="topright"/>
  <outline>
    <contour>
      <point x="252.21052631578948" y="-11.873684210526315" type="curve" smooth="yes"/>
      <point x="305.2842105263158" y="-11.873684210526315"/>
      <point x="360.3578947368421" y="15.715789473684211"/>
      <point x="407.0736842105263" y="67.71578947368421" type="curve"/>
      <point x="415.9473684210526" y="67.71578947368421" type="line"/>
      <point x="423.2842105263158" y="0.0" type="line"/>
      <point x="524.7157894736841" y="0.0" type="line"/>
      <point x="518.0210526315789" y="72.53684210526316"/>
      <point x="515.5578947368421" y="135.4842105263158"/>
      <point x="515.5578947368421" y="217.7157894736842" type="curve"/>
      <point x="515.5578947368421" y="493.58947368421053" type="line"/>
      <point x="515.5578947368421" y="583.1052631578947"/>
      <point x="520.0736842105263" y="664.9789473684211"/>
      <point x="527.178947368421" y="744.9263157894737" type="curve"/>
      <point x="388.8315789473684" y="730.2315789473685" type="line"/>
      <point x="401.86315789473684" y="653.7157894736843"/>
      <point x="406.7368421052632" y="576.1263157894737"/>
      <point x="406.7368421052632" y="493.58947368421053" type="curve"/>
      <point x="406.7368421052632" y="442.4421052631579" type="line"/>
      <point x="396.63157894736844" y="442.4421052631579" type="line"/>
      <point x="361.5052631578947" y="479.3157894736842"/>
      <point x="312.4842105263158" y="509.7473684210526"/>
      <point x="253.8" y="509.7473684210526" type="curve" smooth="yes"/>
      <point x="119.3157894736842" y="509.7473684210526"/>
      <point x="44.757894736842104" y="397.6421052631579"/>
      <point x="44.757894736842104" y="249.82105263157894" type="curve" smooth="yes"/>
      <point x="44.757894736842104" y="110.82105263157895"/>
      <point x="112.36842105263158" y="-11.873684210526315"/>
    </contour>
    <contour>
      <point x="289.5684210526316" y="82.93684210526317" type="curve"/>
      <point x="197.03157894736842" y="85.93684210526317"/>
      <point x="156.22105263157894" y="163.02105263157895"/>
      <point x="156.22105263157894" y="249.0" type="curve" smooth="yes"/>
      <point x="156.22105263157894" y="339.1578947368421"/>
      <point x="199.56842105263158" y="410.7052631578947"/>
      <point x="290.7473684210526" y="413.7052631578947" type="curve"/>
      <point x="329.9157894736842" y="412.7052631578947"/>
      <point x="374.15789473684214" y="393.3263157894737"/>
      <point x="406.7368421052632" y="354.4421052631579" type="curve"/>
      <point x="406.7368421052632" y="153.96842105263158" type="line"/>
      <point x="375.5684210526316" y="108.90526315789474"/>
      <point x="335.6842105263158" y="84.16842105263159"/>
    </contour>
  </outline>
</glyph>
<glyph name="e" format="2">
  <advance width="527.1034482758621"/>
  <unicode hex="0065"/>
  <anchor x="282.7241379310345" y="0.0" name="bottom"/>
  <anchor x="398.58620689655174" y="0.0" name="ogonek"/>
  <anchor x="277.2068965517241" y="497.58620689655174" name="top"/>
  <outline>
    <contour>
      <point x="310.7931034482759" y="-11.689655172413794" type="curve" smooth="yes"/>
      <point x="380.55172413793105" y="-11.689655172413794"/>
      <point x="437.55172413793105" y="8.517241379310345"/>
      <point x="477.3448275862069" y="20.620689655172413" type="curve"/>
      <point x="473.44827586206895" y="117.68965517241378" type="line"/>
      <point x="421.2413793103448" y="96.17241379310344"/>
      <point x="361.0689655172414" y="80.37931034482759"/>
      <point x="322.44827586206895" y="80.37931034482759" type="curve" smooth="yes"/>
      <point x="207.72413793103448" y="80.37931034482759"/>
      <point x="153.9655172413793" y="144.17241379310346"/>
      <point x="153.9655172413793" y="249.0" type="curve"/>
      <point x="153.9655172413793" y="261.7586206896552" type="line"/>
      <point x="153.9655172413793" y="354.7931034482759"/>
      <point x="204.0344827586207" y="420.58620689655174"/>
      <point x="279.41379310344826" y="424.48275862068965" type="curve"/>
      <point x="341.3448275862069" y="421.48275862068965"/>
      <point x="386.51724137931035" y="378.3448275862069"/>
      <point x="386.51724137931035" y="297.68965517241384" type="curve" smooth="yes"/>
      <point x="386.51724137931035" y="288.58620689655174"/>
      <point x="386.51724137931035" y="279.48275862068965"/>
      <point x="385.51724137931035" y="270.2758620689655" type="curve"/>
      <point x="482.44827586206895" y="228.93103448275863" type="line"/>
      <point x="485.44827586206895" y="248.82758620689654"/>
      <point x="486.44827586206895" y="267.7241379310345"/>
      <point x="486.44827586206895" y="293.41379310344826" type="curve" smooth="yes"/>
      <point x="486.44827586206895" y="435.9655172413793"/>
      <point x="407.9655172413793" y="509.37931034482756"/>
      <point x="278.41379310344826" y="509.37931034482756" type="curve" smooth="yes"/>
      <point x="128.58620689655172" y="509.37931034482756"/>
      <point x="44.06896551724138" y="402.48275862068965"/>
      <point x="44.06896551724138" y="251.0" type="curve" smooth="yes"/>
      <point x="44.06896551724138" y="98.3103448275862"/>
      <point x="126.86206896551724" y="-11.689655172413794"/>
    </contour>
    <contour>
      <point x="87.86206896551724" y="228.93103448275863" type="line"/>
      <point x="482.44827586206895" y="228.93103448275863" type="line"/>
      <point x="482.44827586206895" y="280.55172413793105" type="line"/>
      <point x="417.41379310344826" y="309.1379310344828" type="line"/>
      <point x="87.86206896551724" y="304.6551724137931" type="line"/>
    </contour>
  </outline>
</glyph>
<glyph name="g" format="2">
  <advance width="546.7586206896551"/>
  <unicode hex="0067"/>
  <anchor x="272.27586206896547" y="-192.0" name="bottom"/>
  <anchor x="270.51724137931035" y="497.58620689655174" name="top"/>
  <outline>
    <contour>
      <point x="241.6206896551724" y="-203.79310344827587" type="curve" smooth="yes"/>
      <point x="363.7586206896552" y="-203.79310344827587"/>
      <point x="505.7931034482759" y="-150.3793103448276"/>
      <point x="505.7931034482759" y="-26.275862068965516" type="curve" smooth="yes"/>
      <point x="505.7931034482759" y="63.44827586206897"/>
      <point x="438.7586206896552" y="92.65517241379311"/>
      <point x="305.2068965517241" y="92.65517241379311" type="curve" smooth="yes"/>
      <point x="284.0" y="92.65517241379311" type="line" smooth="yes"/>
      <point x="216.82758620689657" y="92.65517241379311"/>
      <point x="189.20689655172413" y="99.27586206896552"/>
      <point x="189.20689655172413" y="123.0344827586207" type="curve" smooth="yes"/>
      <point x="189.20689655172413" y="144.89655172413794"/>
      <point x="219.93103448275863" y="153.41379310344828"/>
      <point x="284.10344827586204" y="168.0344827586207" type="curve" smooth="yes"/>
      <point x="378.9310344827586" y="189.3448275862069"/>
      <point x="446.0" y="238.93103448275863"/>
      <point x="446.0" y="339.3103448275862" type="curve" smooth="yes"/>
      <point x="446.0" y="396.41379310344826"/>
      <point x="423.37931034482756" y="442.2413793103448"/>
      <point x="371.2068965517241" y="470.3448275862069" type="curve"/>
      <point x="341.37931034482756" y="430.551724137931" type="line"/>
      <point x="403.0" y="428.551724137931"/>
      <point x="461.9310344827586" y="422.9655172413793"/>
      <point x="526.448275862069" y="410.0" type="curve"/>
      <point x="526.448275862069" y="498.48275862068965" type="line"/>
      <point x="379.06896551724134" y="498.48275862068965" type="line" smooth="yes"/>
      <point x="318.7241379310345" y="498.48275862068965"/>
      <point x="295.2413793103448" y="509.37931034482756"/>
      <point x="244.3793103448276" y="509.37931034482756" type="curve" smooth="yes"/>
      <point x="115.89655172413794" y="509.37931034482756"/>
      <point x="42.96551724137931" y="441.3103448275862"/>
      <point x="42.96551724137931" y="346.0" type="curve" smooth="yes"/>
      <point x="42.96551724137931" y="253.2758620689655"/>
      <point x="115.93103448275862" y="207.9655172413793"/>
      <point x="149.41379310344828" y="189.79310344827584" type="curve"/>
      <point x="149.41379310344828" y="182.10344827586206" type="line"/>
      <point x="107.10344827586208" y="163.51724137931035"/>
      <point x="88.27586206896552" y="135.13793103448276"/>
      <point x="88.27586206896552" y="101.51724137931035" type="curve" smooth="yes"/>
      <point x="88.27586206896552" y="54.724137931034484"/>
      <point x="123.27586206896552" y="33.827586206896555"/>
      <point x="139.58620689655172" y="28.82758620689655" type="curve"/>
      <point x="139.58620689655172" y="20.241379310344826" type="line"/>
      <point x="111.75862068965517" y="10.137931034482758"/>
      <point x="48.55172413793103" y="-24.862068965517242"/>
      <point x="48.55172413793103" y="-87.48275862068965" type="curve" smooth="yes"/>
      <point x="48.55172413793103" y="-145.27586206896552"/>
      <point x="93.0344827586207" y="-203.79310344827587"/>
    </contour>
    <contour>
      <point x="258.44827586206895" y="-118.89655172413794" type="curve"/>
      <point x="177.20689655172413" y="-117.79310344827587"/>
      <point x="147.68965517241378" y="-91.3448275862069"/>
      <point x="147.68965517241378" y="-62.275862068965516" type="curve" smooth="yes"/>
      <point x="147.68965517241378" y="-24.965517241379313"/>
      <point x="209.75862068965517" y="-4.241379310344827"/>
      <point x="250.51724137931035" y="4.275862068965516" type="curve"/>
      <point x="275.72413793103453" y="4.275862068965516" type="line" smooth="yes"/>
      <point x="374.75862068965523" y="4.275862068965516"/>
      <point x="403.0689655172414" y="-12.13793103448276"/>
      <point x="403.0689655172414" y="-44.41379310344828" type="curve" smooth="yes"/>
      <point x="403.0689655172414" y="-77.79310344827586"/>
      <point x="347.41379310344826" y="-115.10344827586208"/>
    </contour>
    <contour>
      <point x="238.17241379310343" y="242.13793103448273" type="curve"/>
      <point x="199.0689655172414" y="255.6551724137931"/>
      <point x="143.89655172413794" y="284.4137931034483"/>
      <point x="143.89655172413794" y="337.0344827586207" type="curve" smooth="yes"/>
      <point x="143.89655172413794" y="390.9655172413793"/>
      <point x="191.27586206896552" y="417.2068965517241"/>
      <point x="242.89655172413794" y="420.0" type="curve"/>
      <point x="293.1379310344828" y="417.0"/>
      <point x="345.06896551724134" y="392.9655172413793"/>
      <point x="345.06896551724134" y="331.2413793103448" type="curve" smooth="yes"/>
      <point x="345.06896551724134" y="269.9655172413793"/>
      <point x="281.6551724137931" y="249.86206896551724"/>
    </contour>
  </outline>
</glyph>
<glyph name="h" format="2">
  <advance width="580.3157894736842"/>
  <unicode hex="0068"/>
  <guideline x="87.15789473684211" y="725.9052631578948" angle="4.470799999999997"/>
  <anchor x="294.33684210526314" y="0.0" name="bottom"/>
  <anchor x="294.33684210526314" y="409.0" name="center"/>
  <anchor x="272.41052631578947" y="727.1052631578947" name="top"/>
  <outline>
    <contour>
      <point x="69.15789473684211" y="0.0" type="curve"/>
      <point x="195.70526315789473" y="0.0" type="line"/>
      <point x="189.01052631578946" y="72.53684210526316"/>
      <point x="186.54736842105262" y="135.4842105263158"/>
      <point x="186.54736842105262" y="212.37894736842105" type="curve"/>
      <point x="186.54736842105262" y="323.42105263157896" type="line"/>
      <point x="220.53684210526316" y="370.7894736842105"/>
      <point x="279.4947368421053" y="408.77894736842103"/>
      <point x="316.7894736842106" y="408.77894736842103" type="curve" smooth="yes"/>
      <point x="381.46315789473687" y="408.77894736842103"/>
      <point x="402.43157894736845" y="369.04210526315785"/>
      <point x="402.43157894736845" y="289.8736842105263" type="curve"/>
      <point x="402.43157894736845" y="212.37894736842105" type="line"/>
      <point x="402.43157894736845" y="135.4842105263158"/>
      <point x="399.9684210526316" y="72.53684210526316"/>
      <point x="395.09473684210525" y="0.0" type="curve"/>
      <point x="520.8210526315789" y="0.0" type="line"/>
      <point x="512.8947368421052" y="72.53684210526316"/>
      <point x="511.2526315789474" y="135.4842105263158"/>
      <point x="511.2526315789474" y="217.7157894736842" type="curve"/>
      <point x="511.2526315789474" y="249.0526315789474"/>
      <point x="513.8947368421052" y="288.7473684210526"/>
      <point x="513.8947368421052" y="332.15789473684214" type="curve" smooth="yes"/>
      <point x="513.8947368421052" y="448.62105263157895"/>
      <point x="464.0947368421053" y="509.7473684210526"/>
      <point x="359.2526315789474" y="509.7473684210526" type="curve" smooth="yes"/>
      <point x="297.5684210526316" y="509.7473684210526"/>
      <point x="232.65263157894736" y="462.1157894736842"/>
      <point x="197.06315789473683" y="419.29473684210524" type="curve"/>
      <point x="186.54736842105262" y="419.29473684210524" type="line"/>
      <point x="186.54736842105262" y="493.58947368421053" type="line"/>
      <point x="186.54736842105262" y="583.1052631578947"/>
      <point x="191.06315789473683" y="664.978947368421"/>
      <point x="198.9894736842105" y="744.9263157894737" type="curve"/>
      <point x="59.82105263157895" y="730.2315789473685" type="line"/>
      <point x="72.85263157894738" y="653.7157894736841"/>
      <point x="77.72631578947369" y="576.1263157894737"/>
      <point x="77.72631578947369" y="493.58947368421053" type="curve"/>
      <point x="77.72631578947369" y="217.7157894736842" type="line"/>
      <point x="77.72631578947369" y="135.4842105263158"/>
      <point x="74.85263157894738" y="72.53684210526316"/>
    </contour>
  </outline>
</glyph>
<glyph name="k" format="2">
  <advance width="557.4631578947368"/>
  <unicode hex="006B"/>
  <anchor x="282.77894736842103" y="0.0" name="bottom"/>
  <anchor x="282.77894736842103" y="727.1052631578947" name="top"/>
  <outline>
    <contour>
      <point x="394.30526315789473" y="0.0" type="curve"/>
      <point x="548.2421052631579" y="0.0" type="line"/>
      <point x="486.5052631578947" y="59.463157894736845"/>
      <point x="428.41052631578947" y="118.74736842105263"/>
      <point x="372.95789473684215" y="178.21052631578948" type="curve"/>
      <point x="276.91578947368424" y="284.4526315789474" type="line"/>
      <point x="281.43157894736845" y="234.25263157894736" type="line"/>
      <point x="361.18947368421055" y="320.53684210526313" type="line"/>
      <point x="416.2842105263158" y="379.58947368421053"/>
      <point x="471.2" y="437.6421052631579"/>
      <point x="532.3473684210526" y="497.2842105263158" type="curve"/>
      <point x="386.56842105263155" y="497.2842105263158" type="line"/>
      <point x="353.09473684210525" y="451.9789473684211"/>
      <point x="314.8" y="406.4947368421053"/>
      <point x="275.0421052631579" y="361.1894736842105" type="curve"/>
      <point x="209.9578947368421" y="287.34736842105264" type="line"/>
      <point x="175.85263157894738" y="287.34736842105264" type="line"/>
      <point x="175.85263157894738" y="212.54736842105262" type="line"/>
      <point x="205.83157894736843" y="212.54736842105262" type="line"/>
      <point x="282.2947368421053" y="130.98947368421054" type="line"/>
      <point x="322.4105263157895" y="87.32631578947368"/>
      <point x="360.29473684210524" y="43.66315789473684"/>
    </contour>
    <contour>
      <point x="69.15789473684211" y="0.0" type="curve"/>
      <point x="195.70526315789473" y="0.0" type="line"/>
      <point x="189.01052631578946" y="67.61052631578947"/>
      <point x="186.54736842105262" y="126.45263157894738"/>
      <point x="186.54736842105262" y="198.42105263157896" type="curve"/>
      <point x="186.54736842105262" y="493.58947368421053" type="line"/>
      <point x="186.54736842105262" y="583.1052631578947"/>
      <point x="191.06315789473683" y="664.978947368421"/>
      <point x="198.9894736842105" y="744.9263157894737" type="curve"/>
      <point x="59.82105263157895" y="730.2315789473685" type="line"/>
      <point x="72.85263157894738" y="653.7157894736841"/>
      <point x="77.72631578947369" y="576.1263157894737"/>
      <point x="77.72631578947369" y="493.58947368421053" type="curve"/>
      <point x="77.72631578947369" y="217.7157894736842" type="line"/>
      <point x="77.72631578947369" y="135.4842105263158"/>
      <point x="74.85263157894738" y="72.53684210526316"/>
    </contour>
  </outline>
</glyph>
<glyph name="l" format="2">
  <advance width="264.2736842105263"/>
  <unicode hex="006C"/>
  <anchor x="132.13684210526316" y="0.0" name="bottom"/>
  <anchor x="134.18947368421053" y="409.0" name="center"/>
  <anchor x="132.13684210526316" y="727.1052631578947" name="top"/>
  <anchor x="227.66315789473686" y="497.2842105263158" name="topright"/>
  <outline>
    <contour>
      <point x="69.15789473684211" y="0.0" type="curve"/>
      <point x="195.70526315789473" y="0.0" type="line"/>
      <point x="189.01052631578946" y="72.53684210526316"/>
      <point x="186.54736842105262" y="135.4842105263158"/>
      <point x="186.54736842105262" y="217.7157894736842" type="curve"/>
      <point x="186.54736842105262" y="493.58947368421053" type="line"/>
      <point x="186.54736842105262" y="583.1052631578947"/>
      <point x="191.06315789473683" y="664.9789473684211"/>
      <point x="198.16842105263157" y="744.9263157894737" type="curve"/>
      <point x="59.82105263157895" y="730.2315789473685" type="line"/>
      <point x="72.85263157894738" y="653.7157894736843"/>
      <point x="77.72631578947369" y="576.1263157894737"/>
      <point x="77.72631578947369" y="493.58947368421053" type="curve"/>
      <point x="77.72631578947369" y="217.7157894736842" type="line"/>
      <point x="77.72631578947369" y="135.4842105263158"/>
      <point x="74.85263157894738" y="72.53684210526316"/>
    </contour>
  </outline>
</glyph>
<glyph name="m" format="2">
  <advance width="882.7473684210527"/>
  <unicode hex="006D"/>
  <anchor x="449.76842105263154" y="0.0" name="bottom"/>
  <anchor x="449.76842105263154" y="497.2842105263158" name="top"/>
  <outline>
    <contour>
      <point x="74.33684210526316" y="0.0" type="curve"/>
      <point x="200.8842105263158" y="0.0" type="line"/>
      <point x="194.18947368421053" y="72.53684210526316"/>
      <point x="191.7263157894737" y="135.4842105263158"/>
      <point x="191.7263157894737" y="212.37894736842105" type="curve"/>
      <point x="191.7263157894737" y="323.42105263157896" type="line"/>
      <point x="225.71578947368423" y="370.7894736842105"/>
      <point x="278.1894736842105" y="408.77894736842103"/>
      <point x="315.07368421052627" y="408.77894736842103" type="curve" smooth="yes"/>
      <point x="375.56842105263155" y="408.77894736842103"/>
      <point x="395.35789473684207" y="369.04210526315785"/>
      <point x="395.35789473684207" y="289.8736842105263" type="curve"/>
      <point x="395.35789473684207" y="212.37894736842105" type="line"/>
      <point x="395.35789473684207" y="135.4842105263158"/>
      <point x="392.89473684210526" y="72.53684210526316"/>
      <point x="388.0210526315789" y="0.0" type="curve"/>
      <point x="513.7473684210526" y="0.0" type="line"/>
      <point x="505.82105263157894" y="72.53684210526316"/>
      <point x="504.178947368421" y="135.4842105263158"/>
      <point x="504.178947368421" y="217.7157894736842" type="curve"/>
      <point x="504.178947368421" y="249.0526315789474"/>
      <point x="506.82105263157894" y="289.56842105263155"/>
      <point x="506.82105263157894" y="332.15789473684214" type="curve" smooth="yes"/>
      <point x="506.82105263157894" y="354.0315789473684"/>
      <point x="505.0" y="374.4947368421053"/>
      <point x="501.17894736842106" y="392.13684210526316" type="curve"/>
      <point x="493.20000000000005" y="394.4947368421053" type="line"/>
      <point x="478.32631578947365" y="471.0315789473684"/>
      <point x="433.0947368421053" y="509.7473684210526"/>
      <point x="357.7157894736842" y="509.7473684210526" type="curve" smooth="yes"/>
      <point x="292.74736842105267" y="509.7473684210526"/>
      <point x="229.62105263157895" y="459.65263157894736"/>
      <point x="190.74736842105264" y="412.7263157894737" type="curve"/>
      <point x="180.23157894736843" y="412.7263157894737" type="line"/>
      <point x="170.82105263157894" y="503.1578947368421" type="line"/>
      <point x="63.6421052631579" y="497.2842105263158" type="line"/>
      <point x="78.4421052631579" y="419.58947368421053"/>
      <point x="82.90526315789475" y="342.0"/>
      <point x="82.90526315789475" y="267.7157894736842" type="curve"/>
      <point x="82.90526315789475" y="217.7157894736842" type="line"/>
      <point x="82.90526315789475" y="135.4842105263158"/>
      <point x="80.03157894736843" y="72.53684210526316"/>
    </contour>
    <contour>
      <point x="697.5263157894736" y="0.0" type="curve"/>
      <point x="823.2526315789473" y="0.0" type="line"/>
      <point x="815.3263157894736" y="72.53684210526316"/>
      <point x="813.6842105263157" y="135.4842105263158"/>
      <point x="813.6842105263157" y="217.7157894736842" type="curve"/>
      <point x="813.6842105263157" y="249.0526315789474"/>
      <point x="816.3263157894736" y="288.7473684210526"/>
      <point x="816.3263157894736" y="332.15789473684214" type="curve" smooth="yes"/>
      <point x="816.3263157894736" y="448.62105263157895"/>
      <point x="766.5263157894736" y="509.7473684210526"/>
      <point x="667.2210526315789" y="509.7473684210526" type="curve" smooth="yes"/>
      <point x="602.2526315789473" y="509.7473684210526"/>
      <point x="539.0736842105263" y="460.8315789473684"/>
      <point x="497.2526315789474" y="410.9578947368421" type="curve"/>
      <point x="485.5052631578947" y="410.9578947368421" type="line"/>
      <point x="500.82105263157894" y="323.42105263157896" type="line"/>
      <point x="534.8105263157895" y="370.7894736842105"/>
      <point x="587.6947368421053" y="408.77894736842103"/>
      <point x="624.578947368421" y="408.77894736842103" type="curve" smooth="yes"/>
      <point x="684.4842105263158" y="408.77894736842103"/>
      <point x="704.8631578947368" y="369.04210526315785"/>
      <point x="704.8631578947368" y="289.8736842105263" type="curve"/>
      <point x="704.8631578947368" y="212.37894736842105" type="line"/>
      <point x="704.8631578947368" y="135.4842105263158"/>
      <point x="702.4" y="72.53684210526316"/>
    </contour>
  </outline>
</glyph>
<glyph name="n" format="2">
  <advance width="585.4947368421052"/>
  <unicode hex="006E"/>
  <anchor x="296.05263157894734" y="0.0" name="bottom"/>
  <anchor x="296.05263157894734" y="497.2842105263158" name="top"/>
  <outline>
    <contour>
      <point x="74.33684210526316" y="0.0" type="curve"/>
      <point x="200.8842105263158" y="0.0" type="line"/>
      <point x="194.18947368421053" y="72.53684210526316"/>
      <point x="191.7263157894737" y="135.4842105263158"/>
      <point x="191.7263157894737" y="212.37894736842105" type="curve"/>
      <point x="191.7263157894737" y="323.42105263157896" type="line"/>
      <point x="225.71578947368423" y="370.7894736842105"/>
      <point x="284.6736842105263" y="408.77894736842103"/>
      <point x="321.9684210526316" y="408.77894736842103" type="curve" smooth="yes"/>
      <point x="386.6421052631579" y="408.77894736842103"/>
      <point x="407.61052631578946" y="369.04210526315785"/>
      <point x="407.61052631578946" y="289.8736842105263" type="curve"/>
      <point x="407.61052631578946" y="212.37894736842105" type="line"/>
      <point x="407.61052631578946" y="135.4842105263158"/>
      <point x="405.14736842105265" y="72.53684210526316"/>
      <point x="400.2736842105263" y="0.0" type="curve"/>
      <point x="526.0" y="0.0" type="line"/>
      <point x="518.0736842105263" y="72.53684210526316"/>
      <point x="516.4315789473684" y="135.4842105263158"/>
      <point x="516.4315789473684" y="217.7157894736842" type="curve"/>
      <point x="516.4315789473684" y="249.0526315789474"/>
      <point x="519.0736842105263" y="288.7473684210526"/>
      <point x="519.0736842105263" y="332.15789473684214" type="curve" smooth="yes"/>
      <point x="519.0736842105263" y="448.62105263157895"/>
      <point x="469.2736842105263" y="509.7473684210526"/>
      <point x="364.4315789473684" y="509.7473684210526" type="curve" smooth="yes"/>
      <point x="298.6421052631579" y="509.7473684210526"/>
      <point x="229.62105263157895" y="459.65263157894736"/>
      <point x="190.74736842105264" y="412.7263157894737" type="curve"/>
      <point x="180.23157894736843" y="412.7263157894737" type="line"/>
      <point x="170.82105263157894" y="503.1578947368421" type="line"/>
      <point x="63.6421052631579" y="497.2842105263158" type="line"/>
      <point x="78.4421052631579" y="419.58947368421053"/>
      <point x="82.90526315789475" y="342.0"/>
      <point x="82.90526315789475" y="267.7157894736842" type="curve"/>
      <point x="82.90526315789475" y="217.7157894736842" type="line"/>
      <point x="82.90526315789475" y="135.4842105263158"/>
      <point x="80.03157894736843" y="72.53684210526316"/>
    </contour>
  </outline>
</glyph>
<glyph name="o" format="2">
  <advance width="597.4105263157895"/>
  <unicode hex="006F"/>
  <anchor x="298.41052631578947" y="0.0" name="bottom"/>
  <anchor x="298.41052631578947" y="248.6421052631579" name="center"/>
  <anchor x="380.2421052631579" y="0.0" name="ogonek"/>
  <anchor x="298.41052631578947" y="497.2842105263158" name="top"/>
  <anchor x="529.7894736842105" y="497.2842105263158" name="topright"/>
  <outline>
    <contour>
      <point x="300.82105263157894" y="-11.873684210526315" type="curve" smooth="yes"/>
      <point x="458.4736842105263" y="-11.873684210526315"/>
      <point x="553.4736842105264" y="102.30526315789474"/>
      <point x="553.4736842105264" y="251.0" type="curve" smooth="yes"/>
      <point x="553.4736842105264" y="397.05263157894734"/>
      <point x="464.11578947368423" y="509.7473684210526"/>
      <point x="298.7684210526316" y="509.7473684210526" type="curve" smooth="yes"/>
      <point x="137.83157894736843" y="509.7473684210526"/>
      <point x="43.93684210526315" y="399.82105263157894"/>
      <point x="43.93684210526315" y="251.0" type="curve" smooth="yes"/>
      <point x="43.93684210526315" y="112.17894736842105"/>
      <point x="129.4736842105263" y="-11.873684210526315"/>
    </contour>
    <contour>
      <point x="300.41052631578947" y="79.65263157894736" type="curve"/>
      <point x="202.74736842105264" y="83.06315789473683"/>
      <point x="154.9894736842105" y="161.50526315789475"/>
      <point x="154.9894736842105" y="251.0" type="curve" smooth="yes"/>
      <point x="154.9894736842105" y="344.85263157894735"/>
      <point x="204.2842105263158" y="414.40000000000003"/>
      <point x="300.41052631578947" y="418.22105263157897" type="curve"/>
      <point x="391.2315789473684" y="413.16842105263163"/>
      <point x="442.42105263157896" y="349.56842105263155"/>
      <point x="442.42105263157896" y="251.0" type="curve" smooth="yes"/>
      <point x="442.42105263157896" y="160.2736842105263"/>
      <point x="397.07368421052627" y="83.06315789473683"/>
    </contour>
  </outline>
</glyph>
<glyph name="p" format="2">
  <advance width="598.4631578947368"/>
  <unicode hex="0070"/>
  <outline>
    <contour>
      <point x="73.74736842105264" y="-195.6421052631579" type="curve"/>
      <point x="202.93684210526317" y="-192.0" type="line"/>
      <point x="194.6" y="-119.46315789473684"/>
      <point x="191.7263157894737" y="-56.51578947368421"/>
      <point x="191.7263157894737" y="20.378947368421052" type="curve"/>
      <point x="191.7263157894737" y="60.32631578947368" type="line"/>
      <point x="200.6" y="60.32631578947368" type="line"/>
      <point x="243.85263157894738" y="12.021052631578947"/>
      <point x="296.46315789473687" y="-11.873684210526315"/>
      <point x="346.25263157894733" y="-11.873684210526315" type="curve" smooth="yes"/>
      <point x="486.09473684210525" y="-11.873684210526315"/>
      <point x="553.7052631578947" y="110.82105263157895"/>
      <point x="553.7052631578947" y="249.82105263157894" type="curve" smooth="yes"/>
      <point x="553.7052631578947" y="397.6421052631579"/>
      <point x="479.1473684210526" y="509.7473684210526"/>
      <point x="344.6631578947368" y="509.7473684210526" type="curve" smooth="yes"/>
      <point x="282.10526315789474" y="509.7473684210526"/>
      <point x="229.62105263157898" y="476.67368421052635"/>
      <point x="191.44210526315788" y="434.6947368421052" type="curve"/>
      <point x="181.33684210526314" y="434.6947368421052" type="line"/>
      <point x="174.5157894736842" y="503.1578947368421" type="line"/>
      <point x="63.6421052631579" y="497.2842105263158" type="line"/>
      <point x="78.4421052631579" y="419.58947368421053"/>
      <point x="82.90526315789475" y="342.0"/>
      <point x="82.90526315789475" y="267.7157894736842" type="curve"/>
      <point x="82.90526315789475" y="25.71578947368421" type="line"/>
      <point x="82.90526315789475" y="-56.51578947368421"/>
      <point x="80.03157894736843" y="-123.10526315789474"/>
    </contour>
    <contour>
      <point x="308.89473684210526" y="82.93684210526317" type="curve"/>
      <point x="262.77894736842103" y="84.16842105263159"/>
      <point x="222.89473684210526" y="108.90526315789474"/>
      <point x="191.7263157894737" y="153.96842105263158" type="curve"/>
      <point x="191.7263157894737" y="354.4421052631579" type="line"/>
      <point x="224.30526315789473" y="393.3263157894737"/>
      <point x="268.5473684210526" y="412.7052631578947"/>
      <point x="307.7157894736842" y="413.7052631578947" type="curve"/>
      <point x="398.89473684210526" y="410.7052631578947"/>
      <point x="442.2421052631579" y="339.1578947368421"/>
      <point x="442.2421052631579" y="249.0" type="curve" smooth="yes"/>
      <point x="442.2421052631579" y="163.02105263157895"/>
      <point x="401.4315789473684" y="85.93684210526317"/>
    </contour>
  </outline>
</glyph>
<glyph name="q" format="2">
  <advance width="587.0526315789474"/>
  <unicode hex="0071"/>
  <outline>
    <contour>
      <point x="397.5789473684211" y="-195.6421052631579" type="curve"/>
      <point x="524.7157894736841" y="-192.0" type="line"/>
      <point x="518.0210526315789" y="-119.46315789473684"/>
      <point x="515.5578947368421" y="-56.51578947368421"/>
      <point x="515.5578947368421" y="25.71578947368421" type="curve"/>
      <point x="515.5578947368421" y="267.7157894736842" type="line"/>
      <point x="515.5578947368421" y="343.82105263157894"/>
      <point x="520.0210526315789" y="423.6421052631579"/>
      <point x="530.7157894736841" y="503.1578947368421" type="curve"/>
      <point x="423.9473684210526" y="497.2842105263158" type="line"/>
      <point x="417.12631578947367" y="434.6947368421052" type="line"/>
      <point x="407.021052631579" y="434.6947368421052" type="line"/>
      <point x="368.8421052631579" y="476.6736842105263"/>
      <point x="316.35789473684207" y="509.7473684210526"/>
      <point x="253.8" y="509.7473684210526" type="curve" smooth="yes"/>
      <point x="119.3157894736842" y="509.7473684210526"/>
      <point x="44.757894736842104" y="397.6421052631579"/>
      <point x="44.757894736842104" y="249.82105263157894" type="curve" smooth="yes"/>
      <point x="44.757894736842104" y="110.82105263157895"/>
      <point x="112.36842105263158" y="-11.873684210526315"/>
      <point x="252.21052631578948" y="-11.873684210526315" type="curve" smooth="yes"/>
      <point x="302.0" y="-11.873684210526315"/>
      <point x="354.6105263157895" y="12.021052631578947"/>
      <point x="397.86315789473684" y="60.32631578947368" type="curve"/>
      <point x="406.7368421052632" y="60.32631578947368" type="line"/>
      <point x="406.7368421052632" y="20.378947368421052" type="line"/>
      <point x="406.7368421052632" y="-56.51578947368421"/>
      <point x="403.86315789473684" y="-123.10526315789474"/>
    </contour>
    <contour>
      <point x="289.5684210526316" y="82.93684210526317" type="curve"/>
      <point x="197.03157894736842" y="85.93684210526317"/>
      <point x="156.22105263157894" y="163.02105263157895"/>
      <point x="156.22105263157894" y="249.0" type="curve" smooth="yes"/>
      <point x="156.22105263157894" y="339.1578947368421"/>
      <point x="199.56842105263158" y="410.7052631578947"/>
      <point x="290.7473684210526" y="413.7052631578947" type="curve"/>
      <point x="329.9157894736842" y="412.7052631578947"/>
      <point x="374.15789473684214" y="393.3263157894737"/>
      <point x="406.7368421052632" y="354.4421052631579" type="curve"/>
      <point x="406.7368421052632" y="153.96842105263158" type="line"/>
      <point x="375.5684210526316" y="108.90526315789474"/>
      <point x="335.6842105263158" y="84.16842105263159"/>
    </contour>
  </outline>
</glyph>
<glyph name="r" format="2">
  <advance width="412.0631578947369"/>
  <unicode hex="0072"/>
  <anchor x="130.67368421052632" y="0.0" name="bottom"/>
  <anchor x="234.05263157894737" y="497.2842105263158" name="top"/>
  <outline>
    <contour>
      <point x="74.33684210526316" y="0.0" type="curve"/>
      <point x="200.8842105263158" y="0.0" type="line"/>
      <point x="194.18947368421053" y="72.53684210526316"/>
      <point x="191.7263157894737" y="135.4842105263158"/>
      <point x="191.7263157894737" y="212.37894736842105" type="curve"/>
      <point x="191.7263157894737" y="297.65263157894736" type="line"/>
      <point x="231.61052631578946" y="385.3368421052632"/>
      <point x="284.01052631578943" y="399.33684210526314"/>
      <point x="317.08421052631576" y="399.33684210526314" type="curve" smooth="yes"/>
      <point x="334.08421052631576" y="399.33684210526314"/>
      <point x="359.0105263157895" y="392.6947368421052"/>
      <point x="380.7052631578947" y="385.2842105263158" type="curve"/>
      <point x="390.2736842105263" y="500.9263157894737" type="line"/>
      <point x="373.2736842105263" y="507.56842105263155"/>
      <point x="353.6315789473684" y="509.7473684210526"/>
      <point x="336.7368421052631" y="509.7473684210526" type="curve" smooth="yes"/>
      <point x="293.7368421052632" y="509.7473684210526"/>
      <point x="236.46315789473684" y="486.6421052631579"/>
      <point x="188.97894736842105" y="404.4736842105263" type="curve"/>
      <point x="179.05263157894737" y="404.4736842105263" type="line"/>
      <point x="170.82105263157894" y="503.1578947368421" type="line"/>
      <point x="63.6421052631579" y="497.2842105263158" type="line"/>
      <point x="78.4421052631579" y="419.58947368421053"/>
      <point x="82.90526315789475" y="342.0"/>
      <point x="82.90526315789475" y="267.7157894736842" type="curve"/>
      <point x="82.90526315789475" y="217.7157894736842" type="line"/>
      <point x="82.90526315789475" y="135.4842105263158"/>
      <point x="80.03157894736843" y="72.53684210526316"/>
    </contour>
  </outline>
</glyph>
<glyph name="s" format="2">
  <advance width="459.44827586206895"/>
  <unicode hex="0073"/>
  <anchor x="230.9655172413793" y="0.0" name="bottom"/>
  <anchor x="230.9655172413793" y="497.58620689655174" name="top"/>
  <outline>
    <contour>
      <point x="228.10344827586206" y="-11.689655172413794" type="curve" smooth="yes"/>
      <point x="363.41379310344826" y="-11.689655172413794"/>
      <point x="420.37931034482756" y="53.310344827586206"/>
      <point x="420.37931034482756" y="146.13793103448276" type="curve" smooth="yes"/>
      <point x="420.37931034482756" y="237.6206896551724"/>
      <point x="365.0344827586207" y="261.51724137931035"/>
      <point x="263.17241379310343" y="290.41379310344826" type="curve" smooth="yes"/>
      <point x="183.0344827586207" y="312.9310344827586"/>
      <point x="164.9655172413793" y="328.6551724137931"/>
      <point x="164.9655172413793" y="361.44827586206895" type="curve" smooth="yes"/>
      <point x="164.9655172413793" y="404.2068965517241"/>
      <point x="207.27586206896552" y="416.2068965517241"/>
      <point x="243.3103448275862" y="418.2068965517241" type="curve"/>
      <point x="268.2068965517241" y="418.2068965517241"/>
      <point x="321.89655172413796" y="405.2068965517241"/>
      <point x="382.6896551724138" y="375.31034482758616" type="curve"/>
      <point x="390.2758620689655" y="476.86206896551727" type="line"/>
      <point x="351.5862068965517" y="489.17241379310343"/>
      <point x="279.44827586206895" y="509.37931034482756"/>
      <point x="223.58620689655172" y="509.37931034482756" type="curve" smooth="yes"/>
      <point x="120.93103448275862" y="509.37931034482756"/>
      <point x="53.275862068965516" y="452.7931034482759"/>
      <point x="53.275862068965516" y="356.17241379310343" type="curve" smooth="yes"/>
      <point x="53.275862068965516" y="266.1034482758621"/>
      <point x="107.62068965517241" y="233.6206896551724"/>
      <point x="190.27586206896552" y="211.6206896551724" type="curve" smooth="yes"/>
      <point x="279.7586206896552" y="187.48275862068965"/>
      <point x="309.58620689655174" y="175.6551724137931"/>
      <point x="309.58620689655174" y="141.06896551724137" type="curve" smooth="yes"/>
      <point x="309.58620689655174" y="89.0344827586207"/>
      <point x="268.51724137931035" y="81.48275862068965"/>
      <point x="220.9310344827586" y="79.48275862068965" type="curve"/>
      <point x="174.7241379310345" y="79.48275862068965"/>
      <point x="113.6551724137931" y="98.17241379310344"/>
      <point x="58.55172413793104" y="125.17241379310344" type="curve"/>
      <point x="50.862068965517246" y="21.93103448275862" type="line"/>
      <point x="91.65517241379311" y="10.517241379310345"/>
      <point x="151.44827586206895" y="-11.689655172413794"/>
    </contour>
  </outline>
</glyph>
<glyph name="t" format="2">
  <advance width="414.77894736842103"/>
  <unicode hex="0074"/>
  <anchor x="234.94736842105263" y="0.0" name="bottom"/>
  <anchor x="212.8" y="248.6421052631579" name="center"/>
  <anchor x="203.21052631578948" y="646.9894736842106" name="top"/>
  <anchor x="252.7684210526316" y="497.2842105263158" name="topright"/>
  <outline>
    <contour>
      <point x="274.2315789473684" y="-11.873684210526315" type="curve" smooth="yes"/>
      <point x="316.1578947368421" y="-11.873684210526315"/>
      <point x="364.77894736842103" y="1.7157894736842103"/>
      <point x="387.5263157894737" y="11.305263157894737" type="curve"/>
      <point x="379.88421052631577" y="104.77894736842106" type="line"/>
      <point x="355.29473684210524" y="90.01052631578948"/>
      <point x="322.86315789473684" y="79.65263157894736"/>
      <point x="302.91578947368424" y="79.65263157894736" type="curve" smooth="yes"/>
      <point x="245.92631578947368" y="79.65263157894736"/>
      <point x="219.3684210526316" y="113.72631578947369"/>
      <point x="219.3684210526316" y="181.58947368421053" type="curve" smooth="yes"/>
      <point x="219.3684210526316" y="467.6842105263158" type="line"/>
      <point x="219.3684210526316" y="550.0"/>
      <point x="221.83157894736843" y="605.0842105263158"/>
      <point x="227.93684210526317" y="680.6" type="curve"/>
      <point x="102.62105263157895" y="657.6947368421053" type="line"/>
      <point x="108.90526315789474" y="594.0"/>
      <point x="111.77894736842106" y="538.7157894736843"/>
      <point x="111.77894736842106" y="467.6842105263158" type="curve"/>
      <point x="111.77894736842106" y="361.0421052631579"/>
      <point x="109.13684210526316" y="256.0842105263158"/>
      <point x="109.13684210526316" y="151.1578947368421" type="curve" smooth="yes"/>
      <point x="109.13684210526316" y="37.02105263157895"/>
      <point x="166.57894736842104" y="-11.873684210526315"/>
    </contour>
    <contour>
      <point x="22.021052631578947" y="404.70526315789476" type="line"/>
      <point x="142.6421052631579" y="416.6842105263158" type="line"/>
      <point x="189.2315789473684" y="416.6842105263158" type="line"/>
      <point x="251.07368421052632" y="415.86315789473684"/>
      <point x="318.3263157894737" y="412.4"/>
      <point x="383.4" y="404.70526315789476" type="curve"/>
      <point x="383.4" y="497.2842105263158" type="line"/>
      <point x="22.021052631578947" y="497.2842105263158" type="line"/>
    </contour>
  </outline>
</glyph>
<glyph name="u" format="2">
  <advance width="567.8842105263158"/>
  <unicode hex="0075"/>
  <anchor x="282.79999999999995" y="0.0" name="bottom"/>
  <anchor x="503.4631578947368" y="0.0" name="ogonek"/>
  <anchor x="282.79999999999995" y="497.2842105263158" name="top"/>
  <anchor x="541.4" y="497.2842105263158" name="topright"/>
  <outline>
    <contour>
      <point x="218.18947368421053" y="-11.873684210526315" type="curve" smooth="yes"/>
      <point x="278.9789473684211" y="-11.873684210526315"/>
      <point x="348.0" y="38.22105263157894"/>
      <point x="386.87368421052633" y="85.14736842105263" type="curve"/>
      <point x="397.38947368421054" y="85.14736842105263" type="line"/>
      <point x="403.2631578947368" y="0.0" type="line"/>
      <point x="505.9263157894737" y="0.0" type="line"/>
      <point x="499.2315789473684" y="72.53684210526316"/>
      <point x="496.76842105263154" y="135.4842105263158"/>
      <point x="496.76842105263154" y="217.7157894736842" type="curve"/>
      <point x="496.76842105263154" y="271.82105263157894" type="line"/>
      <point x="496.76842105263154" y="360.62105263157895"/>
      <point x="500.05263157894734" y="424.7473684210526"/>
      <point x="506.7473684210526" y="497.2842105263158" type="curve"/>
      <point x="379.61052631578946" y="497.2842105263158" type="line"/>
      <point x="385.0736842105263" y="424.7473684210526"/>
      <point x="387.9473684210526" y="360.62105263157895"/>
      <point x="387.9473684210526" y="284.13684210526316" type="curve"/>
      <point x="387.9473684210526" y="172.4" type="line"/>
      <point x="353.95789473684215" y="125.03157894736842"/>
      <point x="295.0" y="87.0421052631579"/>
      <point x="260.65263157894736" y="87.0421052631579" type="curve" smooth="yes"/>
      <point x="195.97894736842105" y="87.0421052631579"/>
      <point x="175.01052631578946" y="126.77894736842106"/>
      <point x="175.01052631578946" y="205.94736842105263" type="curve"/>
      <point x="175.01052631578946" y="284.13684210526316" type="line"/>
      <point x="175.01052631578946" y="360.62105263157895"/>
      <point x="177.47368421052633" y="428.38947368421054"/>
      <point x="183.34736842105264" y="500.9263157894737" type="curve"/>
      <point x="56.21052631578947" y="497.2842105263158" type="line"/>
      <point x="62.49473684210526" y="424.7473684210526"/>
      <point x="66.18947368421053" y="360.62105263157895"/>
      <point x="66.18947368421053" y="271.82105263157894" type="curve"/>
      <point x="66.18947368421053" y="238.7157894736842"/>
      <point x="64.36842105263158" y="209.1263157894737"/>
      <point x="64.36842105263158" y="165.7157894736842" type="curve" smooth="yes"/>
      <point x="64.36842105263158" y="49.252631578947366"/>
      <point x="113.34736842105262" y="-11.873684210526315"/>
    </contour>
  </outline>
</glyph>
<glyph name="v" format="2">
  <advance width="531.7157894736843"/>
  <unicode hex="0076"/>
  <outline>
    <contour>
      <point x="200.36842105263156" y="0.0" type="curve"/>
      <point x="330.57894736842104" y="0.0" type="line"/>
      <point x="349.06315789473683" y="62.410526315789475"/>
      <point x="370.8315789473684" y="124.23157894736842"/>
      <point x="393.59999999999997" y="186.6421052631579" type="curve"/>
      <point x="425.9578947368421" y="275.46315789473687" type="line"/>
      <point x="452.7263157894737" y="348.87368421052633"/>
      <point x="480.4947368421052" y="423.87368421052633"/>
      <point x="514.3157894736842" y="497.2842105263158" type="curve"/>
      <point x="386.23157894736846" y="497.2842105263158" type="line"/>
      <point x="366.77894736842103" y="422.34736842105264"/>
      <point x="343.2736842105263" y="346.12631578947367"/>
      <point x="318.17894736842106" y="267.13684210526316" type="curve"/>
      <point x="271.34736842105264" y="118.33684210526316" type="line"/>
      <point x="261.2421052631579" y="118.33684210526316" type="line"/>
      <point x="214.41052631578947" y="267.13684210526316" type="line"/>
      <point x="189.3157894736842" y="346.12631578947367"/>
      <point x="166.22105263157894" y="422.34736842105264"/>
      <point x="146.35789473684213" y="500.9263157894737" type="curve"/>
      <point x="17.4" y="497.2842105263158" type="line"/>
      <point x="49.27368421052632" y="424.46315789473687"/>
      <point x="77.63157894736842" y="349.46315789473687"/>
      <point x="104.4" y="276.6421052631579" type="curve"/>
      <point x="136.7578947368421" y="188.23157894736843" type="line"/>
      <point x="158.93684210526314" y="127.0"/>
      <point x="181.47368421052633" y="62.410526315789475"/>
    </contour>
  </outline>
</glyph>
<glyph name="w" format="2">
  <advance width="817.8421052631579"/>
  <unicode hex="0077"/>
  <anchor x="409.1894736842105" y="0.0" name="bottom"/>
  <anchor x="409.1894736842105" y="497.2842105263158" name="top"/>
  <outline>
    <contour>
      <point x="178.77894736842103" y="0.0" type="curve"/>
      <point x="307.7578947368421" y="0.0" type="line"/>
      <point x="323.6736842105263" y="70.29473684210527"/>
      <point x="344.17894736842106" y="146.94736842105263"/>
      <point x="363.14736842105265" y="215.06315789473683" type="curve"/>
      <point x="400.4947368421053" y="348.7052631578947" type="line"/>
      <point x="409.77894736842103" y="348.7052631578947" type="line"/>
      <point x="447.53684210526313" y="216.65263157894736" type="line"/>
      <point x="467.5052631578947" y="148.53684210526316"/>
      <point x="489.8315789473684" y="70.29473684210527"/>
      <point x="506.7473684210526" y="0.0" type="curve"/>
      <point x="640.8315789473684" y="0.0" type="line"/>
      <point x="656.5473684210526" y="61.0"/>
      <point x="675.4947368421052" y="125.82105263157895"/>
      <point x="696.0842105263158" y="190.23157894736843" type="curve"/>
      <point x="724.2631578947369" y="277.6421052631579" type="line"/>
      <point x="747.8526315789474" y="350.46315789473687"/>
      <point x="772.0315789473684" y="423.46315789473687"/>
      <point x="802.0842105263158" y="497.2842105263158" type="curve"/>
      <point x="672.1263157894737" y="497.2842105263158" type="line"/>
      <point x="656.8000000000001" y="428.42105263157896"/>
      <point x="635.5263157894736" y="341.0736842105263"/>
      <point x="614.9684210526316" y="264.85263157894735" type="curve"/>
      <point x="574.4421052631579" y="114.41052631578947" type="line"/>
      <point x="565.3368421052631" y="114.41052631578947" type="line"/>
      <point x="524.8105263157895" y="263.4421052631579" type="line"/>
      <point x="504.2526315789474" y="340.66315789473686"/>
      <point x="482.9263157894737" y="422.06315789473683"/>
      <point x="465.59999999999997" y="497.2842105263158" type="curve"/>
      <point x="354.11578947368423" y="497.2842105263158" type="line"/>
      <point x="336.2" y="418.29473684210524"/>
      <point x="316.05263157894734" y="339.89473684210526"/>
      <point x="295.4947368421053" y="262.2631578947368" type="curve"/>
      <point x="256.14736842105265" y="114.41052631578947" type="line"/>
      <point x="247.0421052631579" y="114.41052631578947" type="line"/>
      <point x="206.69473684210527" y="259.3157894736842" type="line"/>
      <point x="185.13684210526316" y="336.53684210526313"/>
      <point x="162.6315789473684" y="424.29473684210524"/>
      <point x="145.1263157894737" y="500.9263157894737" type="curve"/>
      <point x="15.757894736842104" y="497.2842105263158" type="line"/>
      <point x="46.22105263157895" y="422.87368421052633"/>
      <point x="70.22105263157894" y="351.46315789473687"/>
      <point x="93.98947368421052" y="277.6421052631579" type="curve"/>
      <point x="122.34736842105264" y="189.23157894736843" type="line"/>
      <point x="143.1157894736842" y="125.23157894736842"/>
      <point x="162.47368421052633" y="62.410526315789475"/>
    </contour>
  </outline>
</glyph>
<glyph name="x" format="2">
  <advance width="552.2842105263159"/>
  <unicode hex="0078"/>
  <outline>
    <contour>
      <point x="20.631578947368418" y="0.0" type="curve"/>
      <point x="155.3578947368421" y="0.0" type="line"/>
      <point x="176.22105263157894" y="42.43157894736842"/>
      <point x="193.36842105263156" y="72.68421052631578"/>
      <point x="217.6421052631579" y="114.70526315789473" type="curve"/>
      <point x="264.65263157894736" y="194.1578947368421" type="line"/>
      <point x="272.93684210526317" y="194.1578947368421" type="line"/>
      <point x="325.30526315789473" y="110.70526315789473" type="line"/>
      <point x="350.57894736842104" y="70.50526315789473"/>
      <point x="368.7263157894737" y="39.43157894736842"/>
      <point x="390.58947368421053" y="0.0" type="curve"/>
      <point x="533.7052631578947" y="0.0" type="line"/>
      <point x="481.5263157894737" y="65.46315789473684"/>
      <point x="451.9894736842105" y="105.69473684210526"/>
      <point x="418.2736842105263" y="153.33684210526314" type="curve"/>
      <point x="336.66315789473686" y="269.85263157894735" type="line"/>
      <point x="342.17894736842106" y="243.94736842105263" type="line"/>
      <point x="415.021052631579" y="351.0" type="line"/>
      <point x="449.14736842105265" y="401.2315789473684"/>
      <point x="470.5052631578947" y="432.05263157894734"/>
      <point x="520.0421052631579" y="497.2842105263158" type="curve"/>
      <point x="384.31578947368416" y="497.2842105263158" type="line"/>
      <point x="363.4526315789474" y="454.4421052631579"/>
      <point x="345.4842105263158" y="423.36842105263156"/>
      <point x="322.1578947368421" y="383.29473684210524" type="curve"/>
      <point x="276.6842105263158" y="307.61052631578946" type="line"/>
      <point x="268.1684210526316" y="307.61052631578946" type="line"/>
      <point x="221.8736842105263" y="383.5263157894737" type="line"/>
      <point x="198.13684210526316" y="423.18947368421055"/>
      <point x="178.93684210526314" y="456.7263157894737"/>
      <point x="156.30526315789476" y="500.9263157894737" type="curve"/>
      <point x="20.936842105263157" y="497.2842105263158" type="line"/>
      <point x="69.06315789473685" y="434.87368421052633"/>
      <point x="94.42105263157895" y="398.2315789473684"/>
      <point x="127.90526315789474" y="348.2315789473684" type="curve"/>
      <point x="198.69473684210527" y="241.58947368421053" type="line"/>
      <point x="198.10526315789474" y="268.6736842105263" type="line"/>
      <point x="126.36842105263158" y="155.1578947368421" type="line"/>
      <point x="93.8842105263158" y="104.10526315789474"/>
      <point x="69.7578947368421" y="67.87368421052632"/>
    </contour>
  </outline>
</glyph>
<glyph name="z" format="2">
  <advance width="504.1684210526316"/>
  <unicode hex="007A"/>
  <anchor x="250.49473684210525" y="0.0" name="bottom"/>
  <anchor x="250.49473684210525" y="248.6421052631579" name="center"/>
  <anchor x="250.49473684210525" y="497.2842105263158" name="top"/>
  <outline>
    <contour>
      <point x="35.78947368421053" y="0.0" type="line"/>
      <point x="470.7368421052632" y="0.0" type="line"/>
      <point x="470.7368421052632" y="94.22105263157894" type="line"/>
      <point x="407.0" y="86.06315789473685"/>
      <point x="320.9578947368421" y="82.18947368421053"/>
      <point x="269.1684210526316" y="82.18947368421053" type="curve"/>
      <point x="154.6421052631579" y="82.18947368421053" type="line"/>
      <point x="166.62105263157895" y="57.589473684210525" type="line"/>
      <point x="312.9578947368421" y="248.8421052631579" type="line"/>
      <point x="357.92631578947373" y="307.52631578947364"/>
      <point x="416.66315789473686" y="378.87368421052633"/>
      <point x="455.37894736842105" y="422.6105263157895" type="curve"/>
      <point x="455.37894736842105" y="497.2842105263158" type="line"/>
      <point x="38.66315789473684" y="497.2842105263158" type="line"/>
      <point x="38.66315789473684" y="401.0105263157895" type="line"/>
      <point x="107.98947368421052" y="410.9894736842105"/>
      <point x="195.85263157894735" y="414.6842105263158"/>
      <point x="247.05263157894737" y="414.6842105263158" type="curve"/>
      <point x="351.4526315789474" y="414.6842105263158" type="line"/>
      <point x="336.2421052631579" y="447.87368421052633" type="line"/>
      <point x="186.38947368421051" y="251.05263157894737" type="line"/>
      <point x="144.01052631578946" y="195.13684210526318"/>
      <point x="91.63157894736841" y="131.09473684210528"/>
      <point x="35.78947368421053" y="66.10526315789474" type="curve"/>
    </contour>
  </outline>
</glyph>
<glyph name="braceleft" format="2">
  <advance width="420.4421052631579"/>
  <unicode hex="007B"/>
  <outline>
    <contour>
      <point x="309.63157894736844" y="-119.38947368421053" type="curve" smooth="yes"/>
      <point x="402.2315789473684" y="-119.38947368421053" type="line"/>
      <point x="402.2315789473684" y="-28.042105263157893" type="line"/>
      <point x="368.2315789473684" y="-30.273684210526312"/>
      <point x="341.82105263157894" y="-30.684210526315788"/>
      <point x="324.82105263157894" y="-30.684210526315788" type="curve"/>
      <point x="267.65263157894736" y="-28.86315789473684"/>
      <point x="240.50526315789475" y="-3.0210526315789465"/>
      <point x="239.6842105263158" y="48.71578947368421" type="curve" smooth="yes"/>
      <point x="237.45263157894738" y="186.57894736842104" type="line" smooth="yes"/>
      <point x="235.4" y="264.1684210526316"/>
      <point x="206.45263157894738" y="296.66315789473686"/>
      <point x="151.90526315789475" y="320.17894736842106" type="curve"/>
      <point x="151.90526315789475" y="329.87368421052633" type="line"/>
      <point x="206.45263157894738" y="353.2105263157895"/>
      <point x="235.4" y="384.65263157894736"/>
      <point x="237.45263157894738" y="462.88421052631577" type="curve" smooth="yes"/>
      <point x="239.6842105263158" y="601.3368421052631" type="line" smooth="yes"/>
      <point x="240.50526315789475" y="653.0736842105263"/>
      <point x="267.65263157894736" y="678.9157894736842"/>
      <point x="324.82105263157894" y="680.7368421052631" type="curve"/>
      <point x="342.41052631578947" y="680.7368421052631"/>
      <point x="369.0" y="680.3263157894736"/>
      <point x="400.17894736842106" y="678.0947368421052" type="curve"/>
      <point x="400.17894736842106" y="769.4421052631579" type="line"/>
      <point x="309.63157894736844" y="769.4421052631579" type="line" smooth="yes"/>
      <point x="202.1578947368421" y="769.4421052631579"/>
      <point x="134.02105263157895" y="715.4105263157895"/>
      <point x="134.02105263157895" y="618.9894736842106" type="curve"/>
      <point x="134.02105263157895" y="565.8421052631579"/>
      <point x="137.07368421052632" y="513.1052631578947"/>
      <point x="137.07368421052632" y="459.9578947368421" type="curve"/>
      <point x="137.07368421052632" y="392.2736842105263"/>
      <point x="96.38947368421053" y="364.6842105263158"/>
      <point x="49.49473684210526" y="364.6842105263158" type="curve" smooth="yes"/>
      <point x="14.105263157894736" y="364.6842105263158" type="line"/>
      <point x="14.105263157894736" y="284.77894736842103" type="line"/>
      <point x="49.49473684210526" y="284.77894736842103" type="line" smooth="yes"/>
      <point x="96.38947368421053" y="284.77894736842103"/>
      <point x="137.07368421052632" y="257.1894736842105"/>
      <point x="137.07368421052632" y="189.50526315789475" type="curve"/>
      <point x="137.07368421052632" y="136.3578947368421"/>
      <point x="134.02105263157895" y="84.21052631578948"/>
      <point x="134.02105263157895" y="31.063157894736843" type="curve"/>
      <point x="134.02105263157895" y="-65.3578947368421"/>
      <point x="202.1578947368421" y="-119.38947368421053"/>
    </contour>
  </outline>
</glyph>
<glyph name="bar" format="2">
  <advance width="271.34736842105264"/>
  <unicode hex="007C"/>
  <outline>
    <contour>
      <point x="81.72631578947369" y="-158.10526315789474" type="curve"/>
      <point x="189.62105263157895" y="-158.10526315789474" type="line"/>
      <point x="183.92631578947368" y="-40.10526315789474"/>
      <point x="183.5157894736842" y="62.89473684210526"/>
      <point x="183.5157894736842" y="170.89473684210526" type="curve"/>
      <point x="183.5157894736842" y="452.89473684210526" type="line"/>
      <point x="183.5157894736842" y="560.8947368421053"/>
      <point x="183.92631578947368" y="663.8947368421053"/>
      <point x="189.62105263157895" y="781.8947368421053" type="curve"/>
      <point x="81.72631578947369" y="781.8947368421053" type="line"/>
      <point x="87.42105263157896" y="663.8947368421053"/>
      <point x="87.83157894736843" y="560.8947368421053"/>
      <point x="87.83157894736843" y="452.89473684210526" type="curve"/>
      <point x="87.83157894736843" y="170.89473684210526" type="line"/>
      <point x="87.83157894736843" y="62.89473684210526"/>
      <point x="87.42105263157896" y="-40.10526315789474"/>
    </contour>
  </outline>
</glyph>
<glyph name="asciitilde" format="2">
  <advance width="572.3157894736842"/>
  <unicode hex="007E"/>
  <outline>
    <contour>
      <point x="399.62105263157895" y="214.93684210526317" type="curve" smooth="yes"/>
      <point x="467.34736842105264" y="214.93684210526317"/>
      <point x="514.6315789473684" y="272.82105263157894"/>
      <point x="514.6315789473684" y="371.09473684210525" type="curve"/>
      <point x="446.22105263157897" y="371.09473684210525" type="line"/>
      <point x="439.93684210526317" y="330.69473684210527"/>
      <point x="420.32631578947365" y="312.8"/>
      <point x="388.17894736842106" y="310.38947368421054" type="curve"/>
      <point x="328.67368421052635" y="313.62105263157895"/>
      <point x="259.0315789473684" y="387.7894736842105"/>
      <point x="176.56842105263158" y="387.7894736842105" type="curve" smooth="yes"/>
      <point x="106.37894736842105" y="387.7894736842105"/>
      <point x="57.68421052631579" y="329.4947368421053"/>
      <point x="57.68421052631579" y="231.6315789473684" type="curve"/>
      <point x="126.09473684210526" y="231.6315789473684" type="line"/>
      <point x="132.37894736842105" y="272.0315789473684"/>
      <point x="153.81052631578947" y="289.9263157894737"/>
      <point x="186.77894736842103" y="292.33684210526314" type="curve"/>
      <point x="244.2315789473684" y="289.10526315789474"/>
      <point x="315.9263157894737" y="214.93684210526317"/>
    </contour>
  </outline>
</glyph>
<glyph name="cent" format="2">
  <advance width="490.5052631578947"/>
  <unicode hex="00A2"/>
  <anchor x="283.4315789473684" y="0.0" name="bottom"/>
  <anchor x="278.12631578947367" y="497.2842105263158" name="top"/>
  <outline>
    <contour>
      <point x="237.6" y="-137.0" type="curve"/>
      <point x="328.4842105263158" y="-137.0" type="line"/>
      <point x="322.7894736842105" y="-19.0"/>
      <point x="322.37894736842105" y="84.0"/>
      <point x="322.37894736842105" y="192.0" type="curve"/>
      <point x="322.37894736842105" y="296.05263157894734" type="line"/>
      <point x="322.37894736842105" y="404.05263157894734"/>
      <point x="322.7894736842105" y="507.05263157894734"/>
      <point x="328.4842105263158" y="625.0526315789474" type="curve"/>
      <point x="237.6" y="625.0526315789474" type="line"/>
      <point x="243.29473684210527" y="507.05263157894734"/>
      <point x="243.70526315789473" y="404.05263157894734"/>
      <point x="243.70526315789473" y="296.05263157894734" type="curve"/>
      <point x="243.70526315789473" y="192.0" type="line"/>
      <point x="243.70526315789473" y="84.0"/>
      <point x="243.29473684210527" y="-19.0"/>
    </contour>
    <contour>
      <point x="299.4842105263158" y="-10.23157894736842" type="curve" smooth="yes"/>
      <point x="356.66315789473686" y="-10.23157894736842"/>
      <point x="412.3578947368421" y="7.663157894736842"/>
      <point x="449.82105263157894" y="18.789473684210527" type="curve"/>
      <point x="442.41052631578947" y="116.77894736842106" type="line"/>
      <point x="400.8" y="94.06315789473685"/>
      <point x="357.4947368421053" y="81.70526315789473"/>
      <point x="324.11578947368423" y="81.70526315789473" type="curve" smooth="yes"/>
      <point x="213.7263157894737" y="83.88421052631578"/>
      <point x="154.9894736842105" y="153.20000000000002"/>
      <point x="154.9894736842105" y="251.2842105263158" type="curve" smooth="yes"/>
      <point x="154.9894736842105" y="351.33684210526314"/>
      <point x="213.6421052631579" y="411.93684210526317"/>
      <point x="300.9263157894737" y="414.93684210526317" type="curve"/>
      <point x="325.2842105263158" y="414.93684210526317"/>
      <point x="376.58947368421053" y="402.93684210526317"/>
      <point x="440.17894736842106" y="373.5263157894737" type="curve"/>
      <point x="448.10526315789474" y="473.5684210526316" type="line"/>
      <point x="408.05263157894734" y="488.5684210526316"/>
      <point x="345.64210526315793" y="509.33684210526314"/>
      <point x="289.25263157894733" y="509.33684210526314" type="curve" smooth="yes"/>
      <point x="131.1157894736842" y="509.33684210526314"/>
      <point x="43.93684210526315" y="397.5157894736842"/>
      <point x="43.93684210526315" y="248.41052631578947" type="curve" smooth="yes"/>
      <point x="43.93684210526315" y="100.30526315789474"/>
      <point x="137.09473684210525" y="-10.23157894736842"/>
    </contour>
  </outline>
</glyph>
<glyph name="sterling" format="2">
  <advance width="597.0631578947368"/>
  <unicode hex="00A3"/>
  <outline>
    <contour>
      <point x="58.578947368421055" y="0.0" type="line"/>
      <point x="564.1157894736842" y="0.0" type="line"/>
      <point x="564.1157894736842" y="110.17894736842105" type="line"/>
      <point x="480.0421052631579" y="100.61052631578947"/>
      <point x="406.5578947368421" y="99.78947368421052"/>
      <point x="280.53684210526313" y="99.78947368421052" type="curve"/>
      <point x="141.1578947368421" y="99.78947368421052" type="line"/>
      <point x="150.26315789473685" y="76.27368421052631" type="line"/>
      <point x="241.98947368421054" y="149.4736842105263"/>
      <point x="248.81052631578947" y="210.3157894736842"/>
      <point x="248.81052631578947" y="264.5684210526316" type="curve" smooth="yes"/>
      <point x="248.81052631578947" y="441.9894736842105" type="line" smooth="yes"/>
      <point x="248.81052631578947" y="551.5578947368421"/>
      <point x="296.13684210526316" y="599.778947368421"/>
      <point x="387.63157894736844" y="602.0105263157894" type="curve"/>
      <point x="411.9894736842105" y="602.0105263157894"/>
      <point x="462.88421052631577" y="590.421052631579"/>
      <point x="526.0631578947368" y="562.2421052631579" type="curve"/>
      <point x="537.6315789473684" y="664.1578947368421" type="line"/>
      <point x="497.4" y="679.1578947368421"/>
      <point x="435.4" y="700.1052631578947"/>
      <point x="378.8315789473684" y="700.1052631578947" type="curve" smooth="yes"/>
      <point x="218.93684210526317" y="700.1052631578947"/>
      <point x="131.8315789473684" y="614.6105263157895"/>
      <point x="131.8315789473684" y="447.22105263157897" type="curve" smooth="yes"/>
      <point x="131.8315789473684" y="375.66315789473686"/>
      <point x="134.06315789473683" y="305.10526315789474"/>
      <point x="134.06315789473683" y="233.9578947368421" type="curve"/>
      <point x="134.06315789473683" y="190.1157894736842"/>
      <point x="129.47368421052633" y="129.14736842105265"/>
      <point x="58.578947368421055" y="65.17894736842105" type="curve"/>
    </contour>
    <contour>
      <point x="56.5578947368421" y="328.82105263157894" type="line"/>
      <point x="121.53684210526316" y="332.87368421052633"/>
      <point x="183.10526315789474" y="333.2842105263158"/>
      <point x="236.26315789473685" y="333.2842105263158" type="curve"/>
      <point x="272.0105263157895" y="333.2842105263158" type="line"/>
      <point x="325.1684210526316" y="333.2842105263158"/>
      <point x="386.7368421052632" y="332.87368421052633"/>
      <point x="451.7157894736842" y="328.82105263157894" type="curve"/>
      <point x="451.7157894736842" y="415.8315789473684" type="line"/>
      <point x="386.7368421052632" y="411.77894736842103"/>
      <point x="325.1684210526316" y="411.36842105263156"/>
      <point x="272.0105263157895" y="411.36842105263156" type="curve"/>
      <point x="236.26315789473685" y="411.36842105263156" type="line"/>
      <point x="183.10526315789474" y="411.36842105263156"/>
      <point x="121.53684210526316" y="411.77894736842103"/>
      <point x="56.5578947368421" y="415.8315789473684" type="curve"/>
    </contour>
  </outline>
</glyph>
<glyph name="currency" format="2">
  <advance width="634.4842105263158"/>
  <unicode hex="00A4"/>
  <outline>
    <contour>
      <point x="315.65263157894736" y="108.2421052631579" type="curve" smooth="yes"/>
      <point x="442.9473684210526" y="108.2421052631579"/>
      <point x="534.621052631579" y="185.5263157894737"/>
      <point x="534.621052631579" y="320.82105263157894" type="curve" smooth="yes"/>
      <point x="534.621052631579" y="445.3157894736842"/>
      <point x="443.53684210526313" y="532.3473684210526"/>
      <point x="317.65263157894736" y="532.3473684210526" type="curve" smooth="yes"/>
      <point x="189.76842105263157" y="532.3473684210526"/>
      <point x="98.6842105263158" y="446.77894736842103"/>
      <point x="98.6842105263158" y="320.82105263157894" type="curve" smooth="yes"/>
      <point x="98.6842105263158" y="185.93684210526317"/>
      <point x="189.76842105263157" y="108.2421052631579"/>
    </contour>
    <contour>
      <point x="111.8421052631579" y="39.46315789473684" type="line"/>
      <point x="154.53684210526316" y="88.03157894736843"/>
      <point x="197.6421052631579" y="131.9578947368421"/>
      <point x="235.1578947368421" y="169.4736842105263" type="curve"/>
      <point x="166.1263157894737" y="238.50526315789475" type="line"/>
      <point x="128.61052631578949" y="200.98947368421054"/>
      <point x="84.6842105263158" y="157.88421052631577"/>
      <point x="36.11578947368421" y="115.18947368421053" type="curve"/>
    </contour>
    <contour>
      <point x="316.06315789473683" y="199.3578947368421" type="curve"/>
      <point x="249.3578947368421" y="203.0"/>
      <point x="197.18947368421053" y="240.32631578947368"/>
      <point x="197.18947368421053" y="320.41052631578947" type="curve" smooth="yes"/>
      <point x="197.18947368421053" y="394.4947368421053"/>
      <point x="249.94736842105263" y="438.0"/>
      <point x="317.2421052631579" y="441.6421052631579" type="curve"/>
      <point x="384.3578947368421" y="438.0"/>
      <point x="436.11578947368423" y="393.67368421052635"/>
      <point x="436.11578947368423" y="320.41052631578947" type="curve" smooth="yes"/>
      <point x="436.11578947368423" y="240.32631578947368"/>
      <point x="383.94736842105266" y="203.0"/>
    </contour>
    <contour>
      <point x="166.94736842105263" y="403.4947368421053" type="curve"/>
      <point x="234.33684210526314" y="470.88421052631577" type="line"/>
      <point x="196.82105263157894" y="508.4"/>
      <point x="153.7157894736842" y="552.3263157894737"/>
      <point x="111.02105263157895" y="600.8947368421053" type="curve"/>
      <point x="36.93684210526315" y="526.8105263157895" type="line"/>
      <point x="85.50526315789475" y="484.11578947368423"/>
      <point x="129.43157894736842" y="441.0105263157895"/>
    </contour>
    <contour>
      <point x="523.4631578947368" y="40.28421052631579" type="curve"/>
      <point x="597.5473684210526" y="114.36842105263159" type="line"/>
      <point x="548.9789473684211" y="157.06315789473683"/>
      <point x="505.0526315789474" y="200.16842105263157"/>
      <point x="467.53684210526313" y="237.68421052631578" type="curve"/>
      <point x="400.14736842105265" y="170.29473684210527" type="line"/>
      <point x="437.66315789473686" y="132.77894736842106"/>
      <point x="480.7684210526316" y="88.85263157894738"/>
    </contour>
    <contour>
      <point x="468.3578947368421" y="402.6736842105263" type="line"/>
      <point x="505.87368421052633" y="440.1894736842105"/>
      <point x="549.8000000000001" y="483.2947368421053"/>
      <point x="598.3684210526316" y="525.9894736842106" type="curve"/>
      <point x="522.6421052631579" y="601.7157894736843" type="line"/>
      <point x="479.94736842105266" y="553.1473684210526"/>
      <point x="436.8421052631579" y="509.22105263157897"/>
      <point x="399.3263157894737" y="471.70526315789476" type="curve"/>
    </contour>
  </outline>
</glyph>
<glyph name="yen" format="2">
  <advance width="635.8421052631579"/>
  <unicode hex="00A5"/>
  <outline>
    <contour>
      <point x="264.01052631578943" y="260.0842105263158" type="line"/>
      <point x="373.4736842105263" y="260.0842105263158" type="line"/>
      <point x="517.2105263157895" y="518.9684210526316" type="line"/>
      <point x="547.1578947368421" y="573.0736842105263"/>
      <point x="580.6947368421053" y="632.3578947368421"/>
      <point x="620.2105263157895" y="686.4631578947368" type="curve"/>
      <point x="475.9894736842105" y="686.4631578947368" type="line"/>
      <point x="438.62105263157895" y="601.2421052631579"/>
      <point x="416.88421052631577" y="559.4526315789474"/>
      <point x="382.0736842105263" y="492.53684210526313" type="curve"/>
      <point x="324.1157894736842" y="381.0105263157895" type="line"/>
      <point x="313.1894736842105" y="381.0105263157895" type="line"/>
      <point x="256.6421052631579" y="491.53684210526313" type="line"/>
      <point x="221.65263157894736" y="559.2210526315789"/>
      <point x="200.9157894736842" y="600.4210526315788"/>
      <point x="163.95789473684212" y="686.4631578947368" type="curve"/>
      <point x="14.810526315789474" y="686.4631578947368" type="line"/>
      <point x="70.6842105263158" y="603.1263157894738"/>
      <point x="92.09473684210526" y="567.2526315789473"/>
      <point x="119.45263157894738" y="518.5578947368421" type="curve"/>
    </contour>
    <contour>
      <point x="253.21052631578945" y="0.0" type="curve"/>
      <point x="385.27368421052637" y="0.0" type="line"/>
      <point x="376.5263157894737" y="75.12631578947368"/>
      <point x="376.11578947368423" y="140.07368421052632"/>
      <point x="376.11578947368423" y="224.7157894736842" type="curve"/>
      <point x="376.11578947368423" y="353.2315789473684" type="line"/>
      <point x="261.77894736842103" y="353.2315789473684" type="line"/>
      <point x="261.77894736842103" y="224.7157894736842" type="line"/>
      <point x="261.77894736842103" y="140.07368421052632"/>
      <point x="261.36842105263156" y="75.12631578947368"/>
    </contour>
    <contour>
      <point x="77.14736842105263" y="128.49473684210525" type="line"/>
      <point x="142.12631578947367" y="132.54736842105262"/>
      <point x="203.69473684210524" y="132.9578947368421"/>
      <point x="256.85263157894735" y="132.9578947368421" type="curve"/>
      <point x="380.81052631578945" y="132.9578947368421" type="line"/>
      <point x="433.9684210526316" y="132.9578947368421"/>
      <point x="495.53684210526313" y="132.54736842105262"/>
      <point x="560.5157894736842" y="128.49473684210525" type="curve"/>
      <point x="560.5157894736842" y="205.2421052631579" type="line"/>
      <point x="495.53684210526313" y="203.2421052631579"/>
      <point x="433.9684210526316" y="202.83157894736843"/>
      <point x="380.81052631578945" y="202.83157894736843" type="curve"/>
      <point x="256.85263157894735" y="202.83157894736843" type="line"/>
      <point x="203.69473684210524" y="202.83157894736843"/>
      <point x="142.12631578947367" y="203.2421052631579"/>
      <point x="77.14736842105263" y="205.2421052631579" type="curve"/>
    </contour>
    <contour>
      <point x="77.14736842105263" y="280.66315789473686" type="line"/>
      <point x="142.12631578947367" y="282.66315789473686"/>
      <point x="203.69473684210524" y="283.0736842105263"/>
      <point x="256.85263157894735" y="283.0736842105263" type="curve"/>
      <point x="380.81052631578945" y="283.0736842105263" type="line"/>
      <point x="433.9684210526316" y="283.0736842105263"/>
      <point x="495.53684210526313" y="282.66315789473686"/>
      <point x="560.5157894736842" y="280.66315789473686" type="curve"/>
      <point x="560.5157894736842" y="357.41052631578947" type="line"/>
      <point x="495.53684210526313" y="353.35789473684207"/>
      <point x="433.9684210526316" y="352.9473684210526"/>
      <point x="380.81052631578945" y="352.9473684210526" type="curve"/>
      <point x="256.85263157894735" y="352.9473684210526" type="line"/>
      <point x="203.69473684210524" y="352.9473684210526"/>
      <point x="142.12631578947367" y="353.35789473684207"/>
      <point x="77.14736842105263" y="357.41052631578947" type="curve"/>
    </contour>
  </outline>
</glyph>
<glyph name="ordfeminine" format="2">
  <advance width="398.7586206896552"/>
  <unicode hex="00AA"/>
  <outline>
    <contour>
      <point x="145.55172413793105" y="331.41379310344826" type="curve" smooth="yes"/>
      <point x="192.75862068965517" y="331.41379310344826"/>
      <point x="241.48275862068965" y="362.3103448275862"/>
      <point x="268.8965517241379" y="398.51724137931035" type="curve"/>
      <point x="275.6896551724138" y="398.51724137931035" type="line"/>
      <point x="290.8965517241379" y="339.3103448275862" type="line"/>
      <point x="372.1034482758621" y="339.3103448275862" type="line"/>
      <point x="356.4137931034483" y="384.7931034482759"/>
      <point x="348.1034482758621" y="424.9655172413793"/>
      <point x="348.1034482758621" y="460.55172413793105" type="curve"/>
      <point x="348.1034482758621" y="500.2068965517241" type="line" smooth="yes"/>
      <point x="348.1034482758621" y="530.7241379310345"/>
      <point x="350.1034482758621" y="569.5172413793103"/>
      <point x="350.1034482758621" y="593.3103448275862" type="curve" smooth="yes"/>
      <point x="350.1034482758621" y="687.0"/>
      <point x="295.62068965517244" y="726.7931034482758"/>
      <point x="209.75862068965517" y="726.7931034482758" type="curve" smooth="yes"/>
      <point x="155.3103448275862" y="726.7931034482758"/>
      <point x="91.72413793103449" y="708.8965517241379"/>
      <point x="53.931034482758626" y="698.7931034482758" type="curve"/>
      <point x="57.724137931034484" y="617.3793103448277" type="line"/>
      <point x="110.24137931034483" y="641.1724137931034"/>
      <point x="170.7241379310345" y="655.551724137931"/>
      <point x="188.93103448275863" y="655.551724137931" type="curve" smooth="yes"/>
      <point x="241.13793103448276" y="655.551724137931"/>
      <point x="275.6896551724138" y="641.448275862069"/>
      <point x="272.58620689655174" y="586.5862068965517" type="curve"/>
      <point x="155.13793103448276" y="563.1724137931035" type="line" smooth="yes"/>
      <point x="104.44827586206897" y="553.1724137931035"/>
      <point x="36.93103448275862" y="521.7931034482758"/>
      <point x="36.93103448275862" y="435.3103448275862" type="curve" smooth="yes"/>
      <point x="36.93103448275862" y="376.1034482758621"/>
      <point x="75.34482758620689" y="331.41379310344826"/>
    </contour>
    <contour>
      <point x="178.24137931034483" y="399.0689655172414" type="curve" smooth="yes"/>
      <point x="143.27586206896552" y="399.0689655172414"/>
      <point x="116.24137931034483" y="414.6896551724138"/>
      <point x="116.24137931034483" y="452.6551724137931" type="curve" smooth="yes"/>
      <point x="116.24137931034483" y="492.82758620689657"/>
      <point x="151.89655172413794" y="508.3448275862069"/>
      <point x="187.75862068965517" y="515.6551724137931" type="curve" smooth="yes"/>
      <point x="244.6551724137931" y="528.0689655172414"/>
      <point x="259.37931034482756" y="534.2758620689655"/>
      <point x="270.7931034482759" y="541.1724137931035" type="curve"/>
      <point x="270.6896551724138" y="454.8620689655172" type="line"/>
      <point x="249.75862068965517" y="417.89655172413796"/>
      <point x="206.48275862068965" y="399.0689655172414"/>
    </contour>
  </outline>
</glyph>
<glyph name="registered" format="2">
  <advance width="572.6736842105263"/>
  <unicode hex="00AE"/>
  <outline>
    <contour>
      <point x="288.7473684210526" y="249.16842105263157" type="curve" smooth="yes"/>
      <point x="448.06315789473683" y="249.16842105263157"/>
      <point x="538.8315789473684" y="355.2736842105263"/>
      <point x="538.8315789473684" y="498.0210526315789" type="curve" smooth="yes"/>
      <point x="538.8315789473684" y="635.1263157894737"/>
      <point x="453.29473684210524" y="746.0526315789474"/>
      <point x="285.69473684210527" y="746.0526315789474" type="curve" smooth="yes"/>
      <point x="120.32631578947368" y="746.0526315789474"/>
      <point x="33.8421052631579" y="636.7157894736843"/>
      <point x="33.8421052631579" y="497.61052631578946" type="curve" smooth="yes"/>
      <point x="33.8421052631579" y="365.5578947368421"/>
      <point x="114.5578947368421" y="249.16842105263157"/>
    </contour>
    <contour>
      <point x="181.25263157894736" y="362.2526315789474" type="curve"/>
      <point x="241.57894736842104" y="362.2526315789474" type="line"/>
      <point x="237.93684210526314" y="394.2526315789474"/>
      <point x="237.1157894736842" y="421.2526315789474"/>
      <point x="237.1157894736842" y="456.2526315789474" type="curve"/>
      <point x="237.1157894736842" y="548.2526315789473" type="line"/>
      <point x="237.1157894736842" y="581.6105263157895"/>
      <point x="237.93684210526314" y="608.378947368421"/>
      <point x="241.16842105263157" y="639.1473684210526" type="curve"/>
      <point x="180.02105263157895" y="647.2526315789473" type="line"/>
      <point x="184.07368421052632" y="615.2526315789473"/>
      <point x="184.4842105263158" y="587.2526315789473"/>
      <point x="184.4842105263158" y="552.2526315789473" type="curve"/>
      <point x="184.4842105263158" y="456.2526315789474" type="line"/>
      <point x="184.4842105263158" y="421.2526315789474"/>
      <point x="184.07368421052632" y="394.2526315789474"/>
    </contour>
    <contour>
      <point x="288.33684210526314" y="291.0736842105263" type="curve"/>
      <point x="145.43157894736842" y="294.30526315789473"/>
      <point x="78.62105263157895" y="378.9263157894737"/>
      <point x="78.62105263157895" y="497.61052631578946" type="curve" smooth="yes"/>
      <point x="78.62105263157895" y="619.4526315789474"/>
      <point x="148.66315789473686" y="701.3263157894736"/>
      <point x="286.10526315789474" y="704.5578947368421" type="curve"/>
      <point x="424.36842105263156" y="701.3263157894736"/>
      <point x="493.46315789473687" y="619.4"/>
      <point x="493.46315789473687" y="498.0210526315789" type="curve" smooth="yes"/>
      <point x="493.46315789473687" y="374.3578947368421"/>
      <point x="421.0842105263158" y="294.30526315789473"/>
    </contour>
    <contour>
      <point x="348.81052631578945" y="362.2526315789474" type="curve"/>
      <point x="420.36842105263156" y="362.2526315789474" type="line"/>
      <point x="401.0105263157895" y="384.2526315789474"/>
      <point x="377.4736842105263" y="416.66315789473686"/>
      <point x="356.93684210526317" y="445.0736842105263" type="curve"/>
      <point x="315.86315789473684" y="501.89473684210526" type="line"/>
      <point x="295.1894736842105" y="481.5578947368421" type="line"/>
      <point x="366.42105263157896" y="481.5578947368421"/>
      <point x="392.1894736842105" y="519.9684210526316"/>
      <point x="392.1894736842105" y="567.2" type="curve" smooth="yes"/>
      <point x="392.1894736842105" y="624.4315789473684"/>
      <point x="353.1894736842105" y="649.0736842105263"/>
      <point x="287.7473684210526" y="649.0736842105263" type="curve"/>
      <point x="243.23157894736843" y="649.0736842105263"/>
      <point x="207.94736842105263" y="647.2526315789473"/>
      <point x="180.02105263157895" y="647.2526315789473" type="curve"/>
      <point x="220.31578947368422" y="603.8315789473684" type="line"/>
      <point x="285.5157894736842" y="603.8315789473684" type="line" smooth="yes"/>
      <point x="304.7684210526316" y="603.8315789473684"/>
      <point x="337.3263157894737" y="602.2421052631579"/>
      <point x="337.3263157894737" y="562.2736842105263" type="curve" smooth="yes"/>
      <point x="337.3263157894737" y="524.8947368421053"/>
      <point x="312.30526315789473" y="513.3578947368421"/>
      <point x="275.38947368421054" y="513.3578947368421" type="curve" smooth="yes"/>
      <point x="226.77894736842106" y="513.3578947368421" type="line"/>
      <point x="226.77894736842106" y="476.2736842105263" type="line"/>
      <point x="293.42105263157896" y="476.2736842105263" type="line"/>
      <point x="261.05263157894734" y="496.4842105263158" type="line"/>
      <point x="306.0736842105263" y="431.66315789473686" type="line"/>
      <point x="321.2" y="410.0736842105263"/>
      <point x="336.14736842105265" y="387.8421052631579"/>
    </contour>
  </outline>
</glyph>
<glyph name="degree" format="2">
  <advance width="490.53684210526313"/>
  <unicode hex="00B0"/>
  <outline>
    <contour>
      <point x="245.06315789473683" y="308.70526315789476" type="curve" smooth="yes"/>
      <point x="370.7157894736842" y="308.70526315789476"/>
      <point x="454.6421052631579" y="383.7578947368421"/>
      <point x="454.6421052631579" y="504.2526315789474" type="curve" smooth="yes"/>
      <point x="454.6421052631579" y="615.5894736842105"/>
      <point x="370.7157894736842" y="700.1052631578947"/>
      <point x="246.06315789473683" y="700.1052631578947" type="curve" smooth="yes"/>
      <point x="120.41052631578947" y="700.1052631578947"/>
      <point x="35.89473684210526" y="615.5894736842105"/>
      <point x="35.89473684210526" y="504.2526315789474" type="curve" smooth="yes"/>
      <point x="35.89473684210526" y="383.7578947368421"/>
      <point x="120.41052631578947" y="308.70526315789476"/>
    </contour>
    <contour>
      <point x="245.06315789473683" y="388.14736842105265" type="curve"/>
      <point x="175.10526315789474" y="391.7894736842105"/>
      <point x="128.4736842105263" y="433.2421052631579"/>
      <point x="128.4736842105263" y="503.4315789473684" type="curve" smooth="yes"/>
      <point x="128.4736842105263" y="570.2105263157895"/>
      <point x="174.69473684210527" y="617.021052631579"/>
      <point x="246.06315789473683" y="620.6631578947369" type="curve"/>
      <point x="316.8421052631579" y="616.6105263157895"/>
      <point x="362.06315789473683" y="568.978947368421"/>
      <point x="362.06315789473683" y="503.4315789473684" type="curve" smooth="yes"/>
      <point x="362.06315789473683" y="433.2421052631579"/>
      <point x="316.021052631579" y="391.7894736842105"/>
    </contour>
  </outline>
</glyph>
<glyph name="plusminus" format="2">
  <advance width="572.3157894736842"/>
  <unicode hex="00B1"/>
  <outline>
    <contour>
      <point x="57.68421052631579" y="-4.463157894736842" type="line"/>
      <point x="122.66315789473684" y="-0.4105263157894737"/>
      <point x="184.23157894736843" y="0.0"/>
      <point x="237.38947368421051" y="0.0" type="curve"/>
      <point x="334.9263157894737" y="0.0" type="line"/>
      <point x="388.0842105263158" y="0.0"/>
      <point x="449.65263157894736" y="-0.4105263157894737"/>
      <point x="514.6315789473684" y="-4.463157894736842" type="curve"/>
      <point x="514.6315789473684" y="100.14736842105263" type="line"/>
      <point x="449.65263157894736" y="96.09473684210526"/>
      <point x="388.0842105263158" y="95.6842105263158"/>
      <point x="334.9263157894737" y="95.6842105263158" type="curve"/>
      <point x="237.38947368421051" y="95.6842105263158" type="line"/>
      <point x="184.23157894736843" y="95.6842105263158"/>
      <point x="122.66315789473684" y="96.09473684210526"/>
      <point x="57.68421052631579" y="100.14736842105263" type="curve"/>
    </contour>
    <contour>
      <point x="57.68421052631579" y="357.1578947368421" type="line"/>
      <point x="122.66315789473684" y="361.2105263157895"/>
      <point x="184.23157894736843" y="361.62105263157895"/>
      <point x="237.38947368421051" y="361.62105263157895" type="curve"/>
      <point x="334.9263157894737" y="361.62105263157895" type="line"/>
      <point x="388.0842105263158" y="361.62105263157895"/>
      <point x="449.65263157894736" y="361.2105263157895"/>
      <point x="514.6315789473684" y="357.1578947368421" type="curve"/>
      <point x="514.6315789473684" y="461.7684210526316" type="line"/>
      <point x="449.65263157894736" y="457.7157894736842"/>
      <point x="388.0842105263158" y="457.30526315789473"/>
      <point x="334.9263157894737" y="457.30526315789473" type="curve"/>
      <point x="237.38947368421051" y="457.30526315789473" type="line"/>
      <point x="184.23157894736843" y="457.30526315789473"/>
      <point x="122.66315789473684" y="457.7157894736842"/>
      <point x="57.68421052631579" y="461.7684210526316" type="curve"/>
    </contour>
    <contour>
      <point x="232.62105263157895" y="173.30526315789473" type="curve"/>
      <point x="339.69473684210527" y="173.30526315789473" type="line"/>
      <point x="335.6421052631579" y="238.2842105263158"/>
      <point x="335.2315789473684" y="299.85263157894735"/>
      <point x="335.2315789473684" y="353.0105263157895" type="curve"/>
      <point x="335.2315789473684" y="465.9157894736842" type="line"/>
      <point x="335.2315789473684" y="519.0736842105263"/>
      <point x="335.6421052631579" y="580.6421052631579"/>
      <point x="339.69473684210527" y="645.621052631579" type="curve"/>
      <point x="232.62105263157895" y="645.621052631579" type="line"/>
      <point x="236.67368421052632" y="580.6421052631579"/>
      <point x="237.0842105263158" y="519.0736842105263"/>
      <point x="237.0842105263158" y="465.9157894736842" type="curve"/>
      <point x="237.0842105263158" y="353.0105263157895" type="line"/>
      <point x="237.0842105263158" y="299.85263157894735"/>
      <point x="236.67368421052632" y="238.2842105263158"/>
    </contour>
  </outline>
</glyph>
